<svg width="2409" height="1974" viewBox="0 0 2409 1974" fill="none" xmlns="http://www.w3.org/2000/svg">
<path d="M1420.31 482C1518.98 482 1617.65 482 1719.31 482C1719.31 580.34 1719.31 678.68 1719.31 780C1669.81 780 1620.31 780 1569.31 780C1569.31 730.83 1569.31 681.66 1569.31 631C1520.14 631 1470.97 631 1420.31 631C1420.31 581.83 1420.31 532.66 1420.31 482Z" fill="#231F20"/>
<path d="M997.309 1388C997.932 1388.34 998.556 1388.67 999.198 1389.02C1036.5 1409.47 1064.7 1445.34 1076.75 1486.03C1081.61 1503.12 1083.71 1519.96 1083.62 1537.69C1083.62 1538.42 1083.62 1539.16 1083.62 1539.92C1083.57 1552.14 1082.86 1564.02 1080.31 1576C1080.14 1576.79 1079.98 1577.58 1079.81 1578.39C1074.49 1602.6 1064.08 1625.79 1048.31 1645C1047.64 1645.83 1047.64 1645.83 1046.96 1646.67C1017.04 1683.51 973.708 1704.94 926.868 1710.59C918.772 1711.33 910.619 1711.24 902.497 1711.25C901.625 1711.25 900.754 1711.25 899.857 1711.25C886.787 1711.24 874.123 1710.79 861.309 1708C860.491 1707.83 859.672 1707.66 858.829 1707.48C832.329 1701.8 806.548 1691.07 785.309 1674C784.751 1673.55 784.192 1673.11 783.616 1672.64C767.176 1659.35 754.088 1644.15 743.309 1626C742.963 1625.42 742.616 1624.83 742.259 1624.23C734.466 1610.89 729.304 1596.63 725.497 1581.69C725.302 1580.92 725.107 1580.16 724.906 1579.38C721.664 1565.91 720.935 1552.66 720.997 1538.87C720.999 1538.01 721.001 1537.15 721.003 1536.26C721.054 1523.64 721.338 1511.33 724.309 1499C724.599 1497.76 724.599 1497.76 724.895 1496.5C735.605 1452.25 762.732 1415.14 801.353 1391.13C821.779 1378.83 844.784 1370.74 868.309 1367C869.575 1366.79 870.841 1366.59 872.145 1366.38C914.732 1360.25 959.544 1367.35 997.309 1388ZM867.309 1425C866.575 1425.21 865.84 1425.42 865.083 1425.63C849.863 1430.13 836.259 1437.54 824.309 1448C823.577 1448.59 822.845 1449.18 822.09 1449.78C800.419 1467.76 788.141 1496.06 785.016 1523.58C782.009 1556.21 789.808 1588.09 810.309 1614C830.704 1638.46 858.514 1652.46 890.104 1655.54C924.246 1658.43 955.683 1648.44 982.153 1626.66C998.502 1612.49 1009.42 1593.69 1015.31 1573C1015.52 1572.27 1015.73 1571.54 1015.95 1570.79C1024.73 1538.75 1019.69 1504.21 1003.42 1475.52C993.634 1458.91 979.891 1445.66 963.309 1436C962.202 1435.35 961.095 1434.71 959.954 1434.04C932.289 1419.16 897.327 1416.36 867.309 1425Z" fill="#231F20"/>
<path d="M395.31 1370C566.51 1370 566.51 1370 586.935 1375.62C588.333 1376 588.333 1376 589.76 1376.39C621.025 1385.23 648.266 1403.44 664.31 1432.13C672.726 1447.97 676.752 1466.14 677.31 1484C677.35 1484.84 677.389 1485.67 677.431 1486.54C678.104 1512.15 671.903 1538.37 656.31 1559C655.242 1560.42 655.242 1560.42 654.153 1561.86C641.642 1577.79 625.718 1588.11 607.31 1596C610.144 1601.14 613.261 1605.92 616.685 1610.69C617.758 1612.2 618.831 1613.7 619.903 1615.21C620.461 1615.99 621.02 1616.78 621.595 1617.58C624.479 1621.65 627.331 1625.73 630.185 1629.81C631.369 1631.51 632.554 1633.2 633.739 1634.89C634.329 1635.74 634.919 1636.58 635.527 1637.45C638.453 1641.64 641.382 1645.82 644.31 1650C645.476 1651.67 646.643 1653.33 647.81 1655C648.387 1655.82 648.965 1656.65 649.56 1657.5C654.81 1665 654.81 1665 656.562 1667.5C657.72 1669.16 658.878 1670.81 660.035 1672.46C663.091 1676.83 666.145 1681.19 669.196 1685.56C669.832 1686.47 670.469 1687.38 671.124 1688.32C672.343 1690.06 673.562 1691.81 674.78 1693.55C675.33 1694.34 675.88 1695.13 676.446 1695.94C676.928 1696.63 677.41 1697.32 677.906 1698.03C678.898 1699.42 679.929 1700.79 680.989 1702.13C682.31 1704 682.31 1704 682.31 1706C673.565 1706.21 664.821 1706.37 656.074 1706.47C652.012 1706.51 647.951 1706.58 643.89 1706.68C639.967 1706.78 636.046 1706.83 632.122 1706.85C630.629 1706.87 629.136 1706.9 627.643 1706.95C615.981 1707.32 615.981 1707.32 611.919 1704.12C610.114 1701.83 608.692 1699.56 607.31 1697C606.315 1695.63 606.315 1695.63 605.3 1694.23C604.768 1693.46 604.236 1692.69 603.688 1691.9C603.071 1691.01 602.455 1690.12 601.819 1689.2C601.176 1688.27 600.534 1687.34 599.872 1686.38C598.459 1684.33 597.047 1682.29 595.634 1680.25C594.918 1679.22 594.201 1678.18 593.463 1677.11C590.046 1672.17 586.615 1667.24 583.185 1662.31C582.521 1661.36 581.857 1660.4 581.173 1659.42C578.031 1654.9 574.883 1650.39 571.72 1645.88C571.18 1645.11 570.64 1644.33 570.083 1643.54C568.931 1641.91 567.763 1640.29 566.571 1638.69C563.393 1634.35 560.902 1630.28 558.931 1625.27C555.945 1618.48 552.706 1613.01 546.31 1609C532.569 1604.6 515.307 1607 501.372 1607.62C487.161 1608.08 472.951 1608.53 458.31 1609C458.31 1641.01 458.31 1673.02 458.31 1706C437.52 1706 416.73 1706 395.31 1706C395.31 1595.12 395.31 1484.24 395.31 1370ZM458.31 1424C458.31 1467.56 458.31 1511.12 458.31 1556C472.644 1556.06 486.978 1556.12 501.747 1556.19C506.239 1556.21 510.73 1556.24 515.358 1556.27C519.457 1556.28 519.457 1556.28 523.557 1556.29C525.353 1556.29 527.15 1556.3 528.947 1556.32C553.715 1556.52 577.8 1552.92 596.56 1535.31C609.358 1521.84 613.765 1504.82 613.513 1486.61C612.623 1470.78 607.743 1455.44 596.423 1443.88C580.713 1429.89 560.028 1423.8 539.253 1423.89C537.914 1423.89 537.914 1423.89 536.547 1423.89C533.678 1423.89 530.808 1423.89 527.938 1423.9C526.158 1423.9 524.378 1423.9 522.599 1423.91C516.023 1423.91 509.448 1423.92 502.872 1423.94C480.814 1423.97 480.814 1423.97 458.31 1424Z" fill="#231F20"/>
<path d="M2101.31 1370C2122.1 1370 2142.89 1370 2164.31 1370C2164.31 1415.54 2164.31 1461.08 2164.31 1508C2221.4 1508 2278.49 1508 2337.31 1508C2337.31 1462.46 2337.31 1416.92 2337.31 1370C2358.1 1370 2378.89 1370 2400.31 1370C2400.31 1480.88 2400.31 1591.76 2400.31 1706C2379.52 1706 2358.73 1706 2337.31 1706C2337.31 1658.81 2337.31 1611.62 2337.31 1563C2280.22 1563 2223.13 1563 2164.31 1563C2164.31 1610.19 2164.31 1657.38 2164.31 1706C2143.52 1706 2122.73 1706 2101.31 1706C2101.31 1595.12 2101.31 1484.24 2101.31 1370Z" fill="#231F20"/>
<path d="M1433.31 1370C1514.49 1370 1595.67 1370 1679.31 1370C1679.31 1387.49 1679.31 1404.98 1679.31 1423C1618.92 1423 1558.53 1423 1496.31 1423C1496.31 1451.38 1496.31 1479.76 1496.31 1509C1549.77 1509 1603.23 1509 1658.31 1509C1658.31 1526.49 1658.31 1543.98 1658.31 1562C1604.85 1562 1551.39 1562 1496.31 1562C1496.31 1592.03 1496.31 1622.06 1496.31 1653C1558.68 1653 1621.05 1653 1685.31 1653C1685.31 1670.49 1685.31 1687.98 1685.31 1706C1602.15 1706 1518.99 1706 1433.31 1706C1433.31 1595.12 1433.31 1484.24 1433.31 1370Z" fill="#231F20"/>
<path d="M303.497 1405.5C308.241 1409.86 312.803 1414.4 317.309 1419C316.035 1421.79 314.718 1423.84 312.547 1426.01C311.992 1426.56 311.438 1427.12 310.866 1427.7C310.267 1428.29 309.668 1428.88 309.051 1429.49C308.119 1430.42 308.119 1430.42 307.167 1431.37C305.85 1432.69 304.53 1434 303.208 1435.31C301.207 1437.29 299.215 1439.28 297.223 1441.27C284.962 1453.5 284.962 1453.5 278.309 1459C274.936 1457.4 272.688 1455.6 269.997 1453C255.087 1439.4 236.808 1429.96 217.309 1425C216.09 1424.68 214.87 1424.36 213.614 1424.03C180.958 1416.91 143.709 1422.23 115.309 1440C111.153 1442.8 107.209 1445.85 103.309 1449C102.656 1449.5 102.002 1450 101.329 1450.52C81.9491 1465.95 69.0548 1493.43 65.653 1517.57C62.0972 1553.05 68.2538 1585.65 90.9342 1613.94C92.3788 1615.64 93.8357 1617.33 95.3092 1619C95.8352 1619.61 96.3611 1620.22 96.903 1620.85C116.437 1641.93 147.405 1653.32 175.587 1654.91C176.485 1654.94 177.384 1654.97 178.309 1655C179.197 1655.04 180.086 1655.08 181.001 1655.12C205.536 1655.7 229.554 1650.31 251.309 1639C251.969 1639 252.629 1639 253.309 1639C253.309 1604.35 253.309 1569.7 253.309 1534C273.109 1534 292.909 1534 313.309 1534C313.873 1567.45 313.873 1567.45 313.993 1581.5C314.076 1591.19 314.173 1600.88 314.365 1610.57C314.505 1617.63 314.595 1624.68 314.626 1631.74C314.645 1635.48 314.687 1639.21 314.789 1642.94C315.436 1667.47 315.436 1667.47 310.334 1672.96C306.938 1675.75 303.354 1677.33 299.309 1679C297.031 1680.29 294.837 1681.67 292.622 1683.06C270.823 1695.43 247.87 1703.25 223.309 1708C222.089 1708.25 222.089 1708.25 220.845 1708.5C195.445 1713.48 165.609 1713.55 140.309 1708C139.492 1707.83 138.675 1707.66 137.834 1707.48C111.327 1701.8 85.5579 1691.07 64.3092 1674C63.7559 1673.56 63.2026 1673.12 62.6325 1672.66C27.5137 1644.35 5.96765 1604.89 0.518432 1560.15C0.170179 1556.57 0.127288 1552.99 0.106109 1549.39C0.0990494 1548.59 0.0919898 1547.79 0.0847162 1546.97C-0.145372 1513.22 -0.145372 1513.22 3.30923 1499C3.51323 1498.15 3.71722 1497.31 3.9274 1496.44C12.9948 1460.07 32.2548 1426.96 62.3092 1404C63.2309 1403.26 64.1526 1402.53 65.1022 1401.77C73.026 1395.56 81.4053 1390.63 90.3092 1386C90.9808 1385.65 91.6524 1385.3 92.3444 1384.94C110.054 1375.87 128.69 1370.15 148.309 1367C149.004 1366.88 149.699 1366.77 150.415 1366.65C202.96 1358.11 263.035 1369.8 303.497 1405.5Z" fill="#231F20"/>
<path d="M2030.31 1407.8C2032.32 1409.65 2034.29 1411.53 2036.25 1413.44C2036.87 1414.03 2037.49 1414.62 2038.13 1415.23C2039.84 1416.93 2039.84 1416.93 2042.31 1420C2042.03 1423.22 2040.88 1424.77 2038.53 1426.89C2037.94 1427.43 2037.35 1427.96 2036.75 1428.52C2036.11 1429.09 2035.47 1429.66 2034.81 1430.25C2033.45 1431.49 2032.08 1432.74 2030.72 1433.98C2030 1434.64 2029.28 1435.29 2028.54 1435.96C2024.74 1439.43 2021 1442.97 2017.25 1446.5C2016.55 1447.16 2015.84 1447.82 2015.12 1448.49C2011.11 1452.26 2007.18 1456.09 2003.31 1460C1999.44 1458.41 1996.97 1455.9 1994 1453C1968.97 1429.43 1937.92 1421.09 1904.29 1421.72C1877.56 1422.58 1853 1432.07 1832.31 1449C1831.61 1449.54 1830.91 1450.08 1830.18 1450.63C1808.54 1468.04 1797.15 1497.31 1794 1524.19C1790.84 1555.55 1798.27 1587.77 1818 1612.75C1819.73 1614.87 1821.51 1616.94 1823.31 1619C1823.88 1619.67 1824.45 1620.34 1825.03 1621.03C1838.22 1635.36 1857.03 1644.29 1875.31 1650C1876.26 1650.3 1877.2 1650.59 1878.18 1650.9C1909.51 1659.67 1944.31 1654.99 1972.56 1639.19C1979.03 1635.44 1984.69 1630.91 1990.31 1626C1991.01 1625.42 1991.71 1624.84 1992.44 1624.24C1995.48 1621.72 1998.12 1619.34 2000.31 1616C2003.72 1616.58 2005.32 1617.66 2007.7 1620.13C2008.32 1620.77 2008.95 1621.41 2009.59 1622.07C2010.56 1623.08 2010.56 1623.08 2011.56 1624.13C2012.91 1625.51 2014.27 1626.9 2015.63 1628.28C2016.24 1628.91 2016.84 1629.53 2017.47 1630.17C2019.93 1632.62 2022.54 1634.87 2025.2 1637.11C2028.93 1640.46 2032.41 1644.07 2035.92 1647.65C2038.82 1650.7 2038.82 1650.7 2042.31 1653C2040.52 1664.15 2024.94 1673.52 2016.36 1679.8C1988.68 1699.58 1953.68 1711 1919.64 1711.2C1918.84 1711.21 1918.04 1711.22 1917.22 1711.22C1914.67 1711.24 1912.11 1711.25 1909.56 1711.25C1908.25 1711.25 1908.25 1711.25 1906.91 1711.25C1893.82 1711.24 1881.15 1710.78 1868.31 1708C1867.5 1707.83 1866.69 1707.67 1865.86 1707.5C1833.12 1700.62 1803.25 1685.41 1779.31 1662C1778.31 1661.06 1777.3 1660.11 1776.29 1659.17C1755.72 1639.64 1741.88 1613.66 1734.5 1586.44C1734.31 1585.77 1734.13 1585.1 1733.94 1584.41C1730.13 1569.26 1728.78 1554.14 1728.93 1538.56C1728.94 1537.71 1728.94 1536.86 1728.95 1535.98C1729.03 1523.47 1729.34 1511.21 1732.31 1499C1732.51 1498.15 1732.72 1497.31 1732.93 1496.44C1738.87 1472.61 1748.64 1450.09 1764.31 1431C1764.76 1430.45 1765.2 1429.9 1765.66 1429.33C1793.49 1395.07 1832.88 1373.94 1876.31 1367C1877.02 1366.88 1877.72 1366.77 1878.45 1366.65C1931.87 1358.13 1989.69 1371.33 2030.31 1407.8Z" fill="#231F20"/>
<path d="M1100.31 1370C1194.69 1370 1289.07 1370 1386.31 1370C1386.31 1387.82 1386.31 1405.64 1386.31 1424C1349.68 1424 1313.05 1424 1275.31 1424C1275.31 1517.06 1275.31 1610.12 1275.31 1706C1254.52 1706 1233.73 1706 1212.31 1706C1212.31 1612.94 1212.31 1519.88 1212.31 1424C1175.35 1424 1138.39 1424 1100.31 1424C1100.31 1406.18 1100.31 1388.36 1100.31 1370Z" fill="#231F20"/>
<path d="M772.31 589C775.994 590.164 779.397 591.433 782.802 593.258C784.082 593.937 784.082 593.937 785.389 594.629C786.311 595.123 787.234 595.616 788.185 596.125C797.909 601.267 807.71 606.229 817.56 611.125C826.694 615.669 835.796 620.254 844.793 625.065C852.12 628.956 859.555 632.625 866.985 636.314C880.269 642.91 893.414 649.665 906.31 657C905.035 661.06 903.531 664.804 901.622 668.605C901.094 669.661 900.566 670.716 900.021 671.803C899.457 672.92 898.892 674.037 898.31 675.188C897.721 676.357 897.133 677.527 896.527 678.732C892.9 685.924 889.19 693.065 885.401 700.173C881.058 708.375 876.945 716.692 872.81 725C868 734.663 863.165 744.301 858.078 753.822C851.564 766.079 845.485 778.569 839.31 791C835.625 789.836 832.222 788.567 828.817 786.742C827.964 786.29 827.11 785.837 826.23 785.371C825.308 784.877 824.385 784.384 823.435 783.875C813.711 778.733 803.909 773.771 794.06 768.875C784.925 764.331 775.823 759.746 766.826 754.935C759.499 751.044 752.064 747.375 744.634 743.686C731.35 737.09 718.206 730.335 705.31 723C706.669 718.615 708.376 714.621 710.435 710.52C710.737 709.914 711.04 709.309 711.352 708.685C712.334 706.726 713.321 704.769 714.31 702.812C714.999 701.441 715.688 700.07 716.376 698.698C720.271 690.96 724.24 683.267 728.319 675.624C733.028 666.745 737.461 657.727 741.939 648.73C746.421 639.731 750.947 630.767 755.682 621.897C761.449 611.049 766.849 600.005 772.31 589Z" fill="#231F20"/>
<path d="M837.31 313C837.97 313 838.63 313 839.31 313C839.601 313.584 839.892 314.168 840.191 314.77C843.272 320.954 846.356 327.137 849.441 333.319C850.586 335.613 851.731 337.909 852.874 340.204C858.745 351.989 864.649 363.747 870.821 375.377C874.587 382.486 878.188 389.673 881.759 396.881C886.761 406.972 891.782 417.049 897.06 427C897.645 428.106 897.645 428.106 898.242 429.234C899.839 432.244 901.443 435.249 903.056 438.25C903.531 439.158 904.007 440.065 904.497 441C904.882 441.722 905.268 442.444 905.665 443.188C906.31 445 906.31 445 905.31 448C902.76 449.531 900.251 450.889 897.595 452.211C896.801 452.616 896.007 453.02 895.189 453.437C892.588 454.759 889.98 456.067 887.372 457.375C885.58 458.283 883.788 459.192 881.996 460.101C876.774 462.748 871.544 465.377 866.31 468C865.607 468.352 864.905 468.704 864.182 469.067C859.09 471.618 853.995 474.163 848.896 476.698C842.257 480.003 835.686 483.416 829.142 486.906C819.383 492.075 809.469 496.945 799.575 501.849C798.166 502.548 796.757 503.249 795.349 503.949C794.668 504.288 793.986 504.626 793.285 504.975C787.701 507.768 782.22 510.727 776.764 513.761C774.31 515 774.31 515 772.31 515C771.726 513.827 771.142 512.654 770.541 511.446C768.325 506.996 766.106 502.548 763.887 498.099C762.936 496.193 761.986 494.285 761.036 492.378C755.77 481.799 750.435 471.268 744.9 460.827C741.103 453.649 737.466 446.397 733.861 439.121C728.941 429.196 724.009 419.282 718.81 409.5C715.548 403.35 712.297 397.196 709.122 391C708.722 390.239 708.323 389.478 707.911 388.693C706.966 386.833 706.128 384.919 705.31 383C706.31 380 706.31 380 708.325 378.717C709.204 378.293 710.083 377.87 710.989 377.434C712.46 376.714 712.46 376.714 713.961 375.98C715.025 375.471 716.089 374.962 717.185 374.438C719.415 373.348 721.644 372.257 723.872 371.164C724.977 370.624 726.082 370.084 727.22 369.528C731.251 367.534 735.221 365.438 739.185 363.312C748.141 358.537 757.224 354.022 766.31 349.5C775.88 344.736 785.427 339.953 794.852 334.906C804.827 329.604 814.981 324.642 825.101 319.623C825.832 319.259 826.564 318.896 827.317 318.521C828.71 317.829 830.103 317.139 831.497 316.45C834.611 315.034 834.611 315.034 837.31 313Z" fill="#231F20"/>
<path d="M1030.31 828C1033.54 844.294 1036.26 860.648 1038.86 877.054C1039.17 879.028 1039.48 881.001 1039.8 882.975C1040.78 889.139 1041.75 895.304 1042.73 901.469C1043.73 907.803 1044.74 914.136 1045.75 920.469C1046.62 925.949 1047.49 931.43 1048.36 936.911C1048.88 940.167 1049.39 943.423 1049.91 946.678C1050.49 950.292 1051.06 953.907 1051.63 957.523C1051.8 958.587 1051.97 959.651 1052.15 960.747C1052.95 965.899 1053.51 970.785 1053.31 976C1041.03 977.965 1028.75 979.93 1016.47 981.895C1010.77 982.809 1005.06 983.722 999.354 984.636C997.144 984.989 994.934 985.343 992.724 985.697C991.629 985.872 990.535 986.047 989.407 986.228C983.896 987.11 978.386 987.991 972.875 988.872C970.683 989.222 968.491 989.572 966.3 989.922C965.224 990.094 964.148 990.266 963.04 990.443C956.535 991.482 950.03 992.527 943.527 993.575C939.411 994.238 935.295 994.898 931.179 995.558C929.251 995.868 927.323 996.179 925.396 996.491C922.754 996.919 920.113 997.342 917.471 997.765C916.309 997.955 916.309 997.955 915.125 998.148C911.787 998.678 908.701 999 905.31 999C903.344 986.721 901.379 974.443 899.414 962.164C898.501 956.457 897.587 950.751 896.674 945.044C896.32 942.834 895.966 940.624 895.612 938.414C895.437 937.319 895.262 936.225 895.081 935.097C894.199 929.587 893.318 924.076 892.438 918.565C892.087 916.373 891.737 914.182 891.387 911.99C891.215 910.914 891.044 909.838 890.866 908.73C889.827 902.225 888.782 895.721 887.734 889.217C887.071 885.101 886.411 880.985 885.751 876.869C885.441 874.941 885.13 873.014 884.818 871.086C884.391 868.445 883.967 865.803 883.544 863.161C883.418 862.387 883.292 861.612 883.161 860.815C882.631 857.477 882.31 854.391 882.31 851C889.609 849.286 896.934 848.021 904.337 846.845C905.615 846.64 906.892 846.435 908.209 846.223C911.687 845.665 915.167 845.11 918.646 844.556C921.559 844.093 924.472 843.627 927.384 843.162C934.256 842.064 941.128 840.97 948 839.877C955.077 838.751 962.153 837.62 969.229 836.485C975.32 835.509 981.412 834.537 987.505 833.568C991.136 832.99 994.768 832.411 998.399 831.828C1002.45 831.178 1006.49 830.536 1010.54 829.896C1011.74 829.702 1012.93 829.509 1014.16 829.31C1019.61 828.455 1024.79 827.758 1030.31 828Z" fill="#231F20"/>
<path d="M1555.31 105C1560.05 133.026 1564.56 161.086 1569.03 189.156C1570 195.305 1570.99 201.453 1571.97 207.601C1572.74 212.382 1573.5 217.163 1574.26 221.944C1574.62 224.215 1574.98 226.485 1575.34 228.756C1575.85 231.897 1576.35 235.039 1576.84 238.181C1577.07 239.57 1577.07 239.57 1577.3 240.987C1577.93 245.027 1578.51 248.895 1578.31 253C1571.38 254.883 1564.4 256.04 1557.3 257.155C1556.02 257.36 1554.73 257.565 1553.4 257.776C1549.89 258.335 1546.38 258.89 1542.87 259.443C1539.94 259.907 1537 260.372 1534.06 260.838C1527.13 261.936 1520.2 263.031 1513.27 264.123C1506.13 265.248 1498.99 266.38 1491.85 267.514C1485.71 268.491 1479.57 269.463 1473.42 270.432C1469.76 271.009 1466.1 271.589 1462.44 272.172C1458.35 272.822 1454.27 273.463 1450.19 274.104C1448.38 274.394 1448.38 274.394 1446.53 274.69C1441.06 275.541 1435.85 276.243 1430.31 276C1425.41 248.215 1420.98 220.361 1416.59 192.492C1415.62 186.274 1414.63 180.058 1413.65 173.842C1412.88 169.011 1412.12 164.179 1411.36 159.347C1411 157.051 1410.64 154.756 1410.27 152.46C1409.77 149.283 1409.27 146.105 1408.78 142.926C1408.63 141.989 1408.48 141.052 1408.32 140.087C1408.19 139.222 1408.05 138.357 1407.91 137.466C1407.8 136.719 1407.68 135.973 1407.56 135.204C1407.29 132.787 1407.27 130.431 1407.31 128C1426.16 124.998 1445.02 121.999 1463.87 119.004C1472.63 117.612 1481.38 116.221 1490.13 114.827C1497.76 113.612 1505.39 112.399 1513.02 111.188C1517.06 110.546 1521.1 109.904 1525.14 109.26C1528.94 108.653 1532.74 108.049 1536.54 107.447C1537.94 107.226 1539.34 107.003 1540.73 106.78C1542.64 106.475 1544.54 106.174 1546.44 105.873C1547.51 105.704 1548.58 105.534 1549.68 105.359C1552.31 105 1552.31 105 1555.31 105Z" fill="#231F20"/>
<path d="M905.31 105C921.913 107.169 938.449 109.701 954.983 112.343C958.456 112.897 961.928 113.449 965.401 114C971.938 115.04 978.475 116.081 985.012 117.124C992.471 118.313 999.929 119.5 1007.39 120.686C1022.7 123.121 1038 125.559 1053.31 128C1052.75 136.976 1051.71 145.776 1050.28 154.653C1050.08 155.949 1049.88 157.245 1049.67 158.58C1049.12 162.09 1048.56 165.6 1048 169.109C1047.41 172.795 1046.83 176.482 1046.25 180.169C1045.28 186.344 1044.3 192.52 1043.32 198.695C1042.18 205.835 1041.05 212.976 1039.93 220.118C1038.84 227.004 1037.75 233.89 1036.66 240.776C1036.2 243.702 1035.74 246.628 1035.27 249.555C1034.63 253.627 1033.98 257.699 1033.33 261.77C1033.14 262.986 1032.95 264.202 1032.76 265.455C1032.49 267.11 1032.49 267.11 1032.22 268.798C1032.07 269.76 1031.92 270.722 1031.76 271.713C1031.31 274 1031.31 274 1030.31 276C1021.33 275.44 1012.53 274.396 1003.66 272.975C1002.36 272.771 1001.06 272.568 999.729 272.358C996.219 271.807 992.71 271.25 989.201 270.691C985.515 270.105 981.828 269.524 978.141 268.943C971.965 267.968 965.79 266.989 959.615 266.007C952.475 264.872 945.334 263.743 938.192 262.618C931.305 261.532 924.419 260.443 917.533 259.352C914.607 258.888 911.681 258.426 908.755 257.964C904.682 257.322 900.611 256.674 896.539 256.025C895.323 255.834 894.107 255.643 892.854 255.446C891.2 255.181 891.2 255.181 889.512 254.911C888.069 254.682 888.069 254.682 886.596 254.448C884.31 254 884.31 254 882.31 253C883.931 238.566 886.247 224.24 888.518 209.897C889.072 206.397 889.623 202.896 890.174 199.394C891.098 193.532 892.024 187.669 892.95 181.807C894.021 175.04 895.088 168.272 896.154 161.504C897.295 154.265 898.436 147.026 899.579 139.787C899.907 137.711 900.234 135.635 900.561 133.559C901.17 129.697 901.781 125.834 902.392 121.972C902.572 120.827 902.752 119.683 902.938 118.504C903.105 117.452 903.272 116.399 903.443 115.315C903.587 114.404 903.731 113.493 903.88 112.554C904.306 110.024 904.793 107.513 905.31 105Z" fill="#231F20"/>
<path d="M1430.31 828C1439.29 828.56 1448.09 829.604 1456.96 831.025C1458.26 831.229 1459.55 831.432 1460.89 831.642C1464.4 832.193 1467.91 832.75 1471.42 833.309C1475.1 833.895 1478.79 834.476 1482.48 835.057C1488.65 836.032 1494.83 837.011 1501 837.993C1508.14 839.128 1515.29 840.257 1522.43 841.382C1529.31 842.468 1536.2 843.557 1543.09 844.648C1546.01 845.112 1548.94 845.574 1551.86 846.036C1555.94 846.678 1560.01 847.326 1564.08 847.975C1565.3 848.166 1566.51 848.357 1567.76 848.554C1568.87 848.731 1569.97 848.907 1571.11 849.089C1572.07 849.242 1573.03 849.395 1574.02 849.552C1576.31 850 1576.31 850 1578.31 851C1577.68 859.202 1576.58 867.273 1575.28 875.394C1575.08 876.687 1574.88 877.979 1574.67 879.311C1574.12 882.821 1573.56 886.331 1573 889.84C1572.42 893.525 1571.83 897.211 1571.25 900.897C1570.28 907.076 1569.3 913.255 1568.32 919.434C1567.18 926.573 1566.05 933.713 1564.93 940.853C1563.72 948.473 1562.52 956.091 1561.31 963.71C1560.97 965.901 1560.62 968.092 1560.27 970.282C1559.63 974.359 1558.98 978.435 1558.33 982.511C1558.05 984.329 1558.05 984.329 1557.76 986.184C1557.49 987.847 1557.49 987.847 1557.22 989.544C1556.99 990.988 1556.99 990.988 1556.76 992.461C1556.37 994.677 1555.89 996.828 1555.31 999C1538.71 996.831 1522.17 994.299 1505.64 991.657C1502.16 991.103 1498.69 990.551 1495.22 990C1488.68 988.96 1482.14 987.919 1475.61 986.876C1468.15 985.687 1460.69 984.5 1453.23 983.314C1437.92 980.879 1422.62 978.441 1407.31 976C1407.9 967.444 1408.97 959.048 1410.33 950.584C1410.54 949.301 1410.74 948.018 1410.95 946.697C1411.5 943.217 1412.06 939.739 1412.62 936.26C1413.2 932.606 1413.79 928.951 1414.37 925.296C1415.34 919.169 1416.32 913.043 1417.3 906.918C1418.44 899.841 1419.57 892.763 1420.69 885.684C1421.89 878.128 1423.1 870.573 1424.31 863.017C1424.65 860.846 1425 858.674 1425.35 856.502C1425.99 852.461 1426.64 848.421 1427.28 844.381C1427.48 843.18 1427.67 841.979 1427.86 840.741C1428.04 839.642 1428.22 838.544 1428.4 837.411C1428.55 836.457 1428.7 835.503 1428.86 834.52C1429.25 832.312 1429.73 830.166 1430.31 828Z" fill="#231F20"/>
<path d="M1229.31 893C1232.79 894.494 1235.04 896.479 1237.7 899.151C1238.57 900.02 1239.45 900.89 1240.34 901.785C1241.3 902.751 1242.26 903.716 1243.22 904.682C1244.23 905.698 1245.25 906.713 1246.26 907.727C1249.02 910.481 1251.77 913.241 1254.51 916.001C1257.39 918.887 1260.26 921.766 1263.14 924.646C1268.59 930.099 1274.03 935.558 1279.47 941.018C1285.67 947.235 1291.87 953.446 1298.07 959.657C1310.82 972.431 1323.57 985.213 1336.31 998C1331.37 1003.96 1326.02 1009.42 1320.54 1014.88C1319.56 1015.86 1318.59 1016.84 1317.61 1017.81C1314.98 1020.44 1312.35 1023.07 1309.71 1025.7C1306.95 1028.45 1304.19 1031.21 1301.43 1033.97C1296.22 1039.18 1291 1044.39 1285.78 1049.6C1279.84 1055.53 1273.9 1061.47 1267.96 1067.4C1255.75 1079.6 1243.53 1091.8 1231.31 1104C1227.83 1102.51 1225.58 1100.52 1222.92 1097.85C1222.05 1096.98 1221.17 1096.11 1220.28 1095.21C1219.32 1094.25 1218.36 1093.28 1217.4 1092.32C1216.39 1091.3 1215.37 1090.29 1214.35 1089.27C1211.6 1086.52 1208.85 1083.76 1206.11 1081C1203.23 1078.11 1200.35 1075.23 1197.48 1072.35C1192.03 1066.9 1186.59 1061.44 1181.15 1055.98C1174.95 1049.76 1168.75 1043.55 1162.55 1037.34C1149.8 1024.57 1137.05 1011.79 1124.31 999C1129.25 993.039 1134.59 987.58 1140.08 982.117C1141.06 981.141 1142.03 980.165 1143.01 979.188C1145.64 976.556 1148.27 973.928 1150.91 971.299C1153.67 968.545 1156.43 965.788 1159.18 963.031C1164.4 957.82 1169.62 952.611 1174.83 947.403C1180.78 941.47 1186.72 935.535 1192.66 929.599C1204.87 917.396 1217.09 905.197 1229.31 893Z" fill="#231F20"/>
<path d="M1229.31 0C1232.79 1.49369 1235.04 3.47917 1237.7 6.15079C1238.57 7.02019 1239.45 7.8896 1240.34 8.78535C1241.3 9.75085 1242.26 10.7164 1243.22 11.6821C1244.23 12.6976 1245.25 13.7127 1246.26 14.7273C1249.02 17.4809 1251.77 20.2406 1254.51 23.0015C1257.39 25.8865 1260.26 28.7659 1263.14 31.6458C1268.59 37.0994 1274.03 42.558 1279.47 48.0184C1285.67 54.2351 1291.87 60.4461 1298.07 66.6567C1310.82 79.4315 1323.57 92.2134 1336.31 105C1331.37 110.961 1326.02 116.42 1320.54 121.883C1319.56 122.859 1318.59 123.835 1317.61 124.812C1314.98 127.444 1312.35 130.072 1309.71 132.701C1306.95 135.455 1304.19 138.212 1301.43 140.969C1296.22 146.18 1291 151.389 1285.78 156.597C1279.84 162.53 1273.9 168.465 1267.96 174.401C1255.75 186.604 1243.53 198.803 1231.31 211C1227.83 209.506 1225.58 207.521 1222.92 204.849C1222.05 203.98 1221.17 203.11 1220.28 202.215C1219.32 201.249 1218.36 200.284 1217.4 199.318C1216.39 198.302 1215.37 197.287 1214.35 196.273C1211.6 193.519 1208.85 190.759 1206.11 187.999C1203.23 185.113 1200.35 182.234 1197.48 179.354C1192.03 173.901 1186.59 168.442 1181.15 162.982C1174.95 156.765 1168.75 150.554 1162.55 144.343C1149.8 131.569 1137.05 118.787 1124.31 106C1129.25 100.039 1134.59 94.5796 1140.08 89.1174C1141.06 88.1413 1142.03 87.1649 1143.01 86.1883C1145.64 83.5564 1148.27 80.9275 1150.91 78.2993C1153.67 75.5451 1156.43 72.7881 1159.18 70.0314C1164.4 64.8199 1169.62 59.611 1174.83 54.403C1180.78 48.4702 1186.72 42.5346 1192.66 36.5987C1204.87 24.396 1217.09 12.1968 1229.31 0Z" fill="#231F20"/>
<path d="M1452.31 1895C1460.31 1895 1460.31 1895 1462.35 1897C1462.87 1897.99 1463.4 1898.98 1463.93 1900C1464.6 1901.19 1465.26 1902.39 1465.92 1903.58C1466.29 1904.27 1466.66 1904.95 1467.03 1905.66C1469.06 1909.37 1471.22 1913 1473.36 1916.64C1475.18 1919.75 1477 1922.87 1478.81 1925.98C1481.92 1931.33 1485.05 1936.67 1488.18 1942C1488.61 1942.72 1489.03 1943.44 1489.47 1944.17C1490.41 1945.78 1491.36 1947.39 1492.31 1949C1495.21 1945.53 1497.56 1942.03 1499.78 1938.09C1500.43 1936.94 1501.07 1935.8 1501.74 1934.62C1502.08 1934.02 1502.42 1933.41 1502.77 1932.8C1504.53 1929.65 1506.31 1926.52 1508.09 1923.38C1508.45 1922.76 1508.81 1922.13 1509.17 1921.49C1512.46 1915.72 1515.83 1910 1519.25 1904.31C1519.75 1903.48 1520.25 1902.64 1520.77 1901.78C1524.17 1896.14 1524.17 1896.14 1525.31 1895C1527.95 1895 1530.59 1895 1533.31 1895C1533.31 1920.41 1533.31 1945.82 1533.31 1972C1530.34 1972 1527.37 1972 1524.31 1972C1523.98 1953.19 1523.65 1934.38 1523.31 1915C1519.02 1922.59 1514.73 1930.18 1510.31 1938C1507.93 1942.09 1505.55 1946.18 1503.12 1950.25C1502.58 1951.17 1502.03 1952.09 1501.47 1953.04C1499.47 1956.41 1497.48 1959.74 1495.31 1963C1492.89 1963.48 1492.89 1963.48 1490.31 1963C1488.57 1961.05 1488.57 1961.05 1487 1958.3C1486.4 1957.28 1485.79 1956.25 1485.17 1955.19C1484.56 1954.09 1483.94 1953 1483.31 1951.88C1482.73 1950.87 1482.14 1949.86 1481.54 1948.82C1479.45 1945.22 1477.38 1941.61 1475.31 1938C1471.02 1930.74 1466.73 1923.48 1462.31 1916C1461.98 1934.48 1461.65 1952.96 1461.31 1972C1458.34 1972 1455.37 1972 1452.31 1972C1452.31 1946.59 1452.31 1921.18 1452.31 1895Z" fill="#231F20"/>
<path d="M1789.31 1895C1799.89 1894.88 1799.89 1894.88 1810.68 1894.75C1812.89 1894.71 1815.1 1894.68 1817.37 1894.64C1819.15 1894.63 1820.93 1894.62 1822.71 1894.61C1823.61 1894.59 1824.51 1894.57 1825.43 1894.55C1832.62 1894.54 1839.82 1895.81 1845.29 1900.81C1850.21 1906.26 1850.6 1910.84 1850.52 1918.05C1850.06 1924.42 1846.86 1927.82 1842.31 1932C1842.84 1932.35 1843.37 1932.7 1843.92 1933.07C1848.53 1936.29 1852.7 1939.38 1854.31 1945C1855.01 1950.8 1855.43 1956.76 1852.62 1962.06C1848.03 1967.89 1843.41 1970.29 1836.31 1972C1832.58 1972.37 1828.89 1972.35 1825.15 1972.29C1824.23 1972.29 1823.32 1972.29 1822.38 1972.28C1819 1972.27 1815.62 1972.23 1812.25 1972.19C1800.89 1972.09 1800.89 1972.09 1789.31 1972C1789.31 1946.59 1789.31 1921.18 1789.31 1895ZM1798.31 1902C1798.31 1911.24 1798.31 1920.48 1798.31 1930C1803.91 1930.06 1803.91 1930.06 1809.62 1930.12C1810.77 1930.14 1811.93 1930.16 1813.12 1930.18C1827.19 1930.26 1827.19 1930.26 1839.31 1924C1841.66 1921.01 1841.73 1917.78 1841.62 1914.03C1841.09 1910.57 1839.59 1908.58 1837.31 1906C1831.55 1902.45 1826.36 1901.87 1819.7 1901.9C1818.57 1901.9 1817.45 1901.91 1816.29 1901.91C1814.87 1901.92 1813.46 1901.93 1812 1901.94C1805.22 1901.97 1805.22 1901.97 1798.31 1902ZM1798.31 1937C1798.31 1946.24 1798.31 1955.48 1798.31 1965C1802.56 1965.05 1806.81 1965.09 1811.06 1965.11C1812.5 1965.12 1813.94 1965.13 1815.39 1965.15C1828.87 1965.65 1828.87 1965.65 1841.25 1961.12C1844.58 1957.69 1845.22 1955.97 1845.68 1951.12C1845.56 1946.78 1844.22 1944.29 1841.31 1941C1835.16 1937.12 1829.07 1936.87 1821.94 1936.9C1821.26 1936.9 1820.58 1936.9 1819.88 1936.91C1817.73 1936.91 1815.58 1936.92 1813.43 1936.94C1811.97 1936.94 1810.5 1936.95 1809.04 1936.95C1805.46 1936.96 1801.89 1936.98 1798.31 1937Z" fill="#231F20"/>
<path d="M67.3096 1895C76.4002 1894.35 85.4825 1893.85 94.5917 1893.55C98.8248 1893.4 103.042 1893.21 107.265 1892.89C133.784 1890.93 133.784 1890.93 140.96 1896.22C147.579 1902.56 151.25 1911.18 154.735 1919.5C156.739 1923.95 159.269 1927.88 162.011 1931.91C163.31 1934 163.31 1934 163.31 1936C166.584 1932.99 168.75 1929.89 170.989 1926.05C171.492 1925.2 171.492 1925.2 172.005 1924.33C173.071 1922.51 174.128 1920.69 175.185 1918.87C175.886 1917.68 176.588 1916.48 177.29 1915.28C177.634 1914.69 177.977 1914.11 178.332 1913.5C179.017 1912.33 179.704 1911.17 180.392 1910C181.964 1907.33 183.497 1904.65 184.965 1901.93C185.466 1901.02 185.966 1900.11 186.481 1899.17C186.903 1898.38 187.324 1897.58 187.758 1896.76C189.31 1895 189.31 1895 191.885 1894.39C194.442 1894.38 196.795 1894.55 199.31 1895C196.008 1901.9 192.328 1908.41 188.247 1914.87C187.689 1915.78 187.131 1916.69 186.557 1917.63C183.773 1922.15 180.931 1926.58 177.829 1930.89C168.569 1944.22 167.545 1955.97 168.31 1972C165.34 1972 162.37 1972 159.31 1972C159.332 1971.27 159.354 1970.54 159.376 1969.79C159.706 1954.3 159.161 1942.93 149.925 1930.3C146.641 1925.62 143.807 1920.65 140.872 1915.75C139.688 1913.81 138.502 1911.86 137.313 1909.92C135.296 1906.62 133.295 1903.32 131.31 1900C130.98 1900.66 130.65 1901.32 130.31 1902C121.4 1902 112.49 1902 103.31 1902C103.31 1925.1 103.31 1948.2 103.31 1972C100.34 1972 97.3696 1972 94.3096 1972C94.3096 1948.9 94.3096 1925.8 94.3096 1902C85.3996 1902 76.4896 1902 67.3096 1902C67.3096 1899.69 67.3096 1897.38 67.3096 1895Z" fill="#231F20"/>
<path d="M2094.31 1895C2102.31 1895 2102.31 1895 2104.38 1896.37C2105.18 1897.39 2105.18 1897.39 2106 1898.44C2106.66 1899.26 2107.32 1900.08 2108 1900.93C2108.76 1901.95 2109.52 1902.96 2110.31 1904C2111.28 1905.26 2112.24 1906.52 2113.21 1907.79C2114.85 1909.92 2116.48 1912.06 2118.1 1914.21C2122.11 1919.49 2126.25 1924.65 2130.5 1929.75C2143.86 1945.83 2143.86 1945.83 2149.31 1954C2149.64 1934.53 2149.97 1915.06 2150.31 1895C2153.28 1895 2156.25 1895 2159.31 1895C2159.31 1920.41 2159.31 1945.82 2159.31 1972C2151.31 1972 2151.31 1972 2148.51 1969.65C2147.65 1968.58 2146.81 1967.48 2146 1966.38C2145.54 1965.79 2145.08 1965.21 2144.6 1964.6C2143.64 1963.37 2142.68 1962.13 2141.73 1960.88C2140.36 1959.07 2138.96 1957.29 2137.55 1955.51C2135.24 1952.61 2132.95 1949.69 2130.68 1946.76C2128.43 1943.87 2126.19 1941 2123.93 1938.12C2123.49 1937.56 2123.05 1937 2122.6 1936.42C2118.29 1930.94 2113.89 1925.54 2109.46 1920.15C2108.93 1919.51 2108.41 1918.87 2107.86 1918.2C2107.39 1917.63 2106.93 1917.06 2106.44 1916.47C2105.31 1915 2105.31 1915 2104.31 1913C2103.98 1932.47 2103.65 1951.94 2103.31 1972C2100.34 1972 2097.37 1972 2094.31 1972C2094.31 1946.59 2094.31 1921.18 2094.31 1895Z" fill="#231F20"/>
<path d="M835.31 1895C843.31 1895 843.31 1895 845.384 1896.37C846.182 1897.39 846.182 1897.39 846.997 1898.44C847.658 1899.26 848.32 1900.08 849.001 1900.93C849.763 1901.95 850.525 1902.96 851.31 1904C852.276 1905.26 853.244 1906.52 854.212 1907.79C855.848 1909.92 857.48 1912.06 859.103 1914.21C863.111 1919.49 867.255 1924.65 871.497 1929.75C884.862 1945.83 884.862 1945.83 890.31 1954C890.64 1934.53 890.97 1915.06 891.31 1895C894.28 1895 897.25 1895 900.31 1895C900.31 1920.41 900.31 1945.82 900.31 1972C892.31 1972 892.31 1972 889.509 1969.65C888.647 1968.58 887.81 1967.48 886.997 1966.38C886.537 1965.79 886.077 1965.21 885.603 1964.6C884.635 1963.37 883.679 1962.13 882.733 1960.88C881.362 1959.07 879.962 1957.29 878.548 1955.51C876.238 1952.61 873.953 1949.69 871.676 1946.76C869.435 1943.87 867.187 1941 864.935 1938.12C864.493 1937.56 864.052 1937 863.597 1936.42C859.29 1930.94 854.887 1925.54 850.46 1920.15C849.934 1919.51 849.407 1918.87 848.864 1918.2C848.395 1917.63 847.925 1917.06 847.442 1916.47C846.31 1915 846.31 1915 845.31 1913C844.98 1932.47 844.65 1951.94 844.31 1972C841.34 1972 838.37 1972 835.31 1972C835.31 1946.59 835.31 1921.18 835.31 1895Z" fill="#231F20"/>
<path d="M2335.31 1895C2345.61 1894.88 2345.61 1894.88 2356.12 1894.75C2358.27 1894.71 2360.41 1894.68 2362.62 1894.64C2377.52 1894.49 2388.05 1896.37 2399.22 1906.78C2407.4 1915.26 2408.93 1924.62 2408.78 1936.01C2408.36 1946.76 2405.34 1953.98 2397.81 1961.77C2388.8 1969.81 2380.01 1972.33 2368.22 1972.2C2367.38 1972.19 2366.54 1972.19 2365.68 1972.19C2362.58 1972.18 2359.47 1972.15 2356.37 1972.13C2349.42 1972.08 2342.47 1972.04 2335.31 1972C2335.31 1946.59 2335.31 1921.18 2335.31 1895ZM2344.31 1902C2344.31 1922.79 2344.31 1943.58 2344.31 1965C2369.46 1966.4 2369.46 1966.4 2391.31 1956C2398.98 1946.8 2400.3 1937.78 2399.31 1926C2397.39 1918.04 2393.47 1912.02 2386.75 1907.31C2372.68 1899.98 2360.44 1902 2344.31 1902Z" fill="#231F20"/>
<path d="M1135.31 1895C1145.61 1894.88 1145.61 1894.88 1156.12 1894.75C1158.27 1894.71 1160.41 1894.68 1162.62 1894.64C1177.52 1894.49 1188.05 1896.37 1199.22 1906.78C1207.4 1915.26 1208.93 1924.62 1208.78 1936.01C1208.36 1946.76 1205.34 1953.98 1197.81 1961.77C1188.8 1969.81 1180.01 1972.33 1168.22 1972.2C1167.38 1972.19 1166.54 1972.19 1165.68 1972.19C1162.58 1972.18 1159.47 1972.15 1156.37 1972.13C1149.42 1972.08 1142.47 1972.04 1135.31 1972C1135.31 1946.59 1135.31 1921.18 1135.31 1895ZM1144.31 1902C1144.31 1922.79 1144.31 1943.58 1144.31 1965C1169.46 1966.4 1169.46 1966.4 1191.31 1956C1198.98 1946.8 1200.3 1937.78 1199.31 1926C1197.39 1918.04 1193.47 1912.02 1186.75 1907.31C1172.68 1899.98 1160.44 1902 1144.31 1902Z" fill="#231F20"/>
<path d="M1286.25 1895.13C1290.73 1897.87 1293.61 1900.9 1295.31 1906C1295.74 1912.51 1295.2 1916.66 1290.76 1921.79C1287.25 1925.45 1283.59 1928.24 1279.31 1931C1282.26 1933.98 1285.22 1936.96 1288.18 1939.94C1289.45 1941.21 1289.45 1941.21 1290.74 1942.51C1291.54 1943.32 1292.35 1944.13 1293.18 1944.97C1294.29 1946.09 1294.29 1946.09 1295.43 1947.23C1297.2 1949.06 1297.2 1949.06 1299.31 1950C1299.51 1949.23 1299.72 1948.46 1299.93 1947.66C1300.2 1946.66 1300.47 1945.66 1300.75 1944.63C1301.01 1943.63 1301.28 1942.63 1301.56 1941.6C1302.31 1939 1302.31 1939 1303.31 1937C1305.62 1937.33 1307.93 1937.66 1310.31 1938C1309.89 1943.75 1308.69 1947.83 1305.95 1952.92C1305.09 1955 1305.09 1955 1305.97 1957.05C1307.92 1959.88 1310.38 1961.95 1312.95 1964.22C1314.31 1966 1314.31 1966 1314.14 1968.03C1313.31 1970 1313.31 1970 1311.31 1973C1307.74 1972.42 1306.06 1971.13 1303.56 1968.56C1302.95 1967.95 1302.33 1967.33 1301.7 1966.69C1300.31 1965 1300.31 1965 1300.31 1963C1299.7 1963.47 1299.1 1963.94 1298.47 1964.43C1288.23 1972.04 1279.09 1974.25 1266.31 1973C1258.91 1971.52 1254.27 1968.78 1249.55 1962.9C1246.55 1958.31 1246.77 1953.28 1247.31 1948C1249.21 1940.93 1254.52 1936.16 1260.31 1932C1263.09 1930.77 1263.09 1930.77 1265.31 1930C1264.82 1929.31 1264.32 1928.63 1263.81 1927.92C1263.17 1927.02 1262.53 1926.12 1261.87 1925.19C1261.23 1924.29 1260.6 1923.4 1259.94 1922.48C1256.41 1917.1 1256.72 1911.23 1257.31 1905C1259.61 1900.05 1262.62 1897.69 1267.31 1895C1273.1 1893.07 1280.47 1892.96 1286.25 1895.13ZM1267.31 1904C1264.84 1907.71 1264.65 1910.7 1265.31 1915C1267.62 1919.45 1270.4 1921.96 1274.31 1925C1276.11 1923.76 1277.9 1922.51 1279.68 1921.25C1281.18 1920.21 1281.18 1920.21 1282.71 1919.14C1286.16 1916.3 1287.13 1914.44 1287.68 1910.06C1287.22 1906.24 1286 1904.7 1283.31 1902C1277.3 1900 1272.65 1900.65 1267.31 1904ZM1260.31 1942C1257.4 1945.34 1256.08 1947.7 1255.87 1952.06C1256.33 1956.16 1256.59 1957.94 1259.31 1961C1265.56 1965.89 1272.69 1965.79 1280.31 1965C1285.46 1963.85 1289.4 1961.54 1293.31 1958C1290.9 1952.36 1286.15 1948.51 1281.87 1944.25C1281 1943.36 1280.13 1942.47 1279.23 1941.56C1278.39 1940.72 1277.55 1939.88 1276.69 1939.02C1275.92 1938.25 1275.15 1937.47 1274.36 1936.68C1269.11 1932.38 1264.34 1938.42 1260.31 1942Z" fill="#231F20"/>
<path d="M677.31 1895C683.703 1894.92 690.097 1894.84 696.685 1894.75C698.682 1894.71 700.679 1894.68 702.737 1894.64C714.079 1894.52 724.155 1894.94 732.837 1903.2C738.193 1909.76 739.029 1917.35 738.751 1925.59C737.951 1931.77 735.883 1936.6 731.302 1940.88C729.356 1942.37 727.394 1943.71 725.31 1945C724.32 1945.66 723.33 1946.32 722.31 1947C722.647 1947.45 722.984 1947.9 723.332 1948.36C724.888 1950.43 726.442 1952.49 727.997 1954.56C728.528 1955.27 729.058 1955.97 729.604 1956.7C731.179 1958.79 732.746 1960.9 734.31 1963C734.808 1963.67 735.306 1964.33 735.82 1965.02C739.31 1969.77 739.31 1969.77 739.31 1972C735.708 1972.9 732.896 1973.03 729.31 1972C726.366 1969.17 724.117 1966.18 721.829 1962.82C721.427 1962.23 721.025 1961.65 720.611 1961.04C719.31 1959 719.31 1959 717.924 1956.36C714.772 1950.88 714.772 1950.88 709.313 1948.11C705.794 1947.79 702.404 1947.77 698.872 1947.88C697.664 1947.87 696.455 1947.87 695.21 1947.87C692.243 1947.87 689.276 1947.93 686.31 1948C686.31 1955.92 686.31 1963.84 686.31 1972C683.34 1972 680.37 1972 677.31 1972C677.31 1946.59 677.31 1921.18 677.31 1895ZM686.31 1902C686.31 1914.87 686.31 1927.74 686.31 1941C706.166 1942.39 706.166 1942.39 724.31 1935C728.836 1929.01 729.971 1924.34 729.31 1917C727.674 1911.55 725.27 1907.85 720.31 1905C712.832 1901.87 705.687 1901.62 697.685 1901.81C693.931 1901.87 690.177 1901.94 686.31 1902Z" fill="#231F20"/>
<path d="M2037.31 1895C2040.61 1895 2043.91 1895 2047.31 1895C2052.84 1905.89 2058.08 1916.88 2063.12 1928C2064.17 1930.3 2065.21 1932.59 2066.25 1934.89C2066.95 1936.41 2067.64 1937.93 2068.33 1939.46C2070.47 1944.16 2072.62 1948.85 2074.79 1953.54C2075.31 1954.65 2075.82 1955.76 2076.35 1956.91C2077.3 1958.97 2078.25 1961.02 2079.21 1963.07C2079.63 1963.96 2080.04 1964.86 2080.47 1965.79C2080.82 1966.56 2081.18 1967.33 2081.55 1968.13C2082.31 1970 2082.31 1970 2082.31 1972C2079.01 1972 2075.71 1972 2072.31 1972C2069.34 1965.73 2066.37 1959.46 2063.31 1953C2049.45 1952.67 2035.59 1952.34 2021.31 1952C2020.32 1954.97 2019.33 1957.94 2018.31 1961C2017.45 1963.04 2016.56 1965.06 2015.62 1967.06C2014.97 1968.47 2014.97 1968.47 2014.3 1969.91C2013.81 1970.94 2013.81 1970.94 2013.31 1972C2010.01 1972 2006.71 1972 2003.31 1972C2005.27 1965.8 2007.56 1959.97 2010.34 1954.1C2010.72 1953.28 2011.11 1952.45 2011.51 1951.6C2012.33 1949.84 2013.15 1948.09 2013.97 1946.34C2016.12 1941.76 2018.25 1937.18 2020.39 1932.61C2020.81 1931.7 2021.23 1930.79 2021.67 1929.86C2027.04 1918.31 2032.2 1906.67 2037.31 1895ZM2042.31 1906C2038.08 1914.27 2034.16 1922.62 2030.43 1931.12C2029.94 1932.25 2029.44 1933.37 2028.93 1934.52C2028.46 1935.59 2027.99 1936.66 2027.5 1937.76C2027.08 1938.72 2026.66 1939.68 2026.22 1940.67C2025.19 1942.89 2025.19 1942.89 2025.31 1945C2036.86 1945 2048.41 1945 2060.31 1945C2054.99 1931.83 2049.26 1918.9 2043.31 1906C2042.98 1906 2042.65 1906 2042.31 1906Z" fill="#231F20"/>
<path d="M1893.31 1895C1896.61 1895 1899.91 1895 1903.31 1895C1908.84 1905.89 1914.08 1916.88 1919.12 1928C1920.17 1930.3 1921.21 1932.59 1922.25 1934.89C1922.95 1936.41 1923.64 1937.93 1924.33 1939.46C1926.47 1944.16 1928.62 1948.85 1930.79 1953.54C1931.31 1954.65 1931.82 1955.76 1932.35 1956.91C1933.3 1958.97 1934.25 1961.02 1935.21 1963.07C1935.63 1963.96 1936.04 1964.86 1936.47 1965.79C1936.82 1966.56 1937.18 1967.33 1937.55 1968.13C1938.31 1970 1938.31 1970 1938.31 1972C1935.01 1972 1931.71 1972 1928.31 1972C1925.34 1965.73 1922.37 1959.46 1919.31 1953C1905.45 1952.67 1891.59 1952.34 1877.31 1952C1876.32 1954.97 1875.33 1957.94 1874.31 1961C1873.45 1963.04 1872.56 1965.06 1871.62 1967.06C1870.97 1968.47 1870.97 1968.47 1870.3 1969.91C1869.81 1970.94 1869.81 1970.94 1869.31 1972C1866.01 1972 1862.71 1972 1859.31 1972C1861.27 1965.8 1863.56 1959.97 1866.34 1954.1C1866.72 1953.28 1867.11 1952.45 1867.51 1951.6C1868.33 1949.84 1869.15 1948.09 1869.97 1946.34C1872.12 1941.76 1874.25 1937.18 1876.39 1932.61C1876.81 1931.7 1877.23 1930.79 1877.67 1929.86C1883.04 1918.31 1888.2 1906.67 1893.31 1895ZM1898.31 1906C1894.08 1914.27 1890.16 1922.62 1886.43 1931.12C1885.94 1932.25 1885.44 1933.37 1884.93 1934.52C1884.46 1935.59 1883.99 1936.66 1883.5 1937.76C1883.08 1938.72 1882.66 1939.68 1882.22 1940.67C1881.19 1942.89 1881.19 1942.89 1881.31 1945C1892.86 1945 1904.41 1945 1916.31 1945C1910.99 1931.83 1905.26 1918.9 1899.31 1906C1898.98 1906 1898.65 1906 1898.31 1906Z" fill="#231F20"/>
<path d="M779.31 1895C782.61 1895 785.91 1895 789.31 1895C794.844 1905.89 800.083 1916.88 805.122 1928C806.165 1930.3 807.209 1932.59 808.253 1934.89C808.946 1936.41 809.639 1937.93 810.331 1939.46C812.467 1944.16 814.621 1948.85 816.79 1953.54C817.305 1954.65 817.82 1955.76 818.351 1956.91C819.302 1958.97 820.255 1961.02 821.211 1963.07C821.625 1963.96 822.039 1964.86 822.466 1965.79C822.825 1966.56 823.184 1967.33 823.554 1968.13C824.31 1970 824.31 1970 824.31 1972C821.01 1972 817.71 1972 814.31 1972C811.34 1965.73 808.37 1959.46 805.31 1953C791.45 1952.67 777.59 1952.34 763.31 1952C762.32 1954.97 761.33 1957.94 760.31 1961C759.45 1963.04 758.56 1965.06 757.622 1967.06C756.967 1968.47 756.967 1968.47 756.298 1969.91C755.809 1970.94 755.809 1970.94 755.31 1972C752.01 1972 748.71 1972 745.31 1972C747.272 1965.8 749.557 1959.97 752.337 1954.1C752.722 1953.28 753.108 1952.45 753.505 1951.6C754.326 1949.84 755.149 1948.09 755.973 1946.34C758.122 1941.76 760.255 1937.18 762.388 1932.61C762.81 1931.7 763.233 1930.79 763.668 1929.86C769.042 1918.31 774.196 1906.67 779.31 1895ZM784.31 1906C780.085 1914.27 776.159 1922.62 772.435 1931.12C771.937 1932.25 771.439 1933.37 770.927 1934.52C770.458 1935.59 769.988 1936.66 769.505 1937.76C769.082 1938.72 768.66 1939.68 768.224 1940.67C767.188 1942.89 767.188 1942.89 767.31 1945C778.86 1945 790.41 1945 802.31 1945C796.995 1931.83 791.257 1918.9 785.31 1906C784.98 1906 784.65 1906 784.31 1906Z" fill="#231F20"/>
<path d="M566.122 1901.25C567.2 1902.15 568.27 1903.06 569.31 1904C568.616 1907.26 567.851 1908.79 565.31 1911C562.338 1909.95 560.037 1908.81 557.435 1907C549.594 1901.98 540.288 1901.7 531.306 1903.65C523.35 1906.23 516.909 1910.49 512.935 1918C508.865 1927.38 507.963 1935.76 511.208 1945.51C515.156 1954.43 521.647 1959.62 530.435 1963.31C539.603 1964.94 547.931 1964.92 556.419 1960.88C558.31 1960 558.31 1960 560.31 1960C560.31 1951.09 560.31 1942.18 560.31 1933C563.28 1933 566.25 1933 569.31 1933C569.508 1937.32 569.653 1941.64 569.749 1945.97C569.789 1947.44 569.844 1948.91 569.913 1950.38C570.473 1962.53 570.473 1962.53 567.706 1966.02C565.606 1967.38 563.678 1968.22 561.31 1969C560.287 1969.45 559.265 1969.9 558.212 1970.36C545.329 1974.49 532.797 1974.5 520.31 1969C509.748 1963.22 503.926 1955.37 500.31 1944C497.627 1932.72 499.423 1921.75 505.06 1911.69C510.886 1902.66 519.03 1898.24 528.997 1894.69C541.63 1892.06 555.59 1893.45 566.122 1901.25Z" fill="#231F20"/>
<path d="M1736.31 1898C1738.67 1900.14 1738.67 1900.14 1740.31 1902C1739.32 1903.98 1738.33 1905.96 1737.31 1908C1731.31 1906 1731.31 1906 1729.4 1905.2C1721.7 1902.16 1712.06 1901.22 1704.18 1904.19C1700.91 1906.25 1699.17 1907.58 1697.31 1911C1696.65 1914.17 1696.32 1916.9 1697.31 1920C1703.14 1926.69 1711.96 1927.72 1720.21 1929.87C1728.72 1932.21 1737.14 1934.84 1741.87 1942.81C1743.99 1947.94 1744.29 1952.83 1742.65 1958.14C1740.03 1964.09 1736.03 1968.18 1730.2 1971.03C1718.31 1975.33 1704.36 1973.88 1692.93 1968.98C1690.02 1967.59 1687.6 1966.29 1685.31 1964C1685.6 1960.18 1686.55 1958.55 1689.31 1956C1689.77 1956.33 1690.23 1956.65 1690.71 1956.99C1700.37 1963.46 1709.74 1965.02 1721.31 1964C1725.21 1963.18 1728.24 1961.97 1731.25 1959.25C1732.74 1956.09 1733.19 1953.49 1733.31 1950C1731.76 1945.84 1729.36 1944.14 1725.54 1942.02C1720.08 1939.52 1714.08 1938.3 1708.29 1936.82C1700.43 1934.68 1693.6 1931.95 1688.27 1925.55C1686.1 1919.8 1686.21 1912.53 1688.04 1906.67C1691.56 1900.07 1697.2 1897.08 1704.02 1894.77C1714.71 1892.27 1726.36 1893.29 1736.31 1898Z" fill="#231F20"/>
<path d="M453.31 1898C455.669 1900.14 455.669 1900.14 457.31 1902C456.32 1903.98 455.33 1905.96 454.31 1908C448.31 1906 448.31 1906 446.399 1905.2C438.7 1902.16 429.064 1901.22 421.185 1904.19C417.911 1906.25 416.166 1907.58 414.31 1911C413.648 1914.17 413.322 1916.9 414.31 1920C420.136 1926.69 428.957 1927.72 437.214 1929.87C445.72 1932.21 454.142 1934.84 458.872 1942.81C460.99 1947.94 461.29 1952.83 459.649 1958.14C457.028 1964.09 453.034 1968.18 447.196 1971.03C435.307 1975.33 421.357 1973.88 409.931 1968.98C407.024 1967.59 404.599 1966.29 402.31 1964C402.603 1960.18 403.554 1958.55 406.31 1956C406.771 1956.33 407.233 1956.65 407.708 1956.99C417.369 1963.46 426.744 1965.02 438.31 1964C442.21 1963.18 445.24 1961.97 448.247 1959.25C449.74 1956.09 450.187 1953.49 450.31 1950C448.761 1945.84 446.356 1944.14 442.539 1942.02C437.083 1939.52 431.084 1938.3 425.29 1936.82C417.432 1934.68 410.596 1931.95 405.274 1925.55C403.1 1919.8 403.207 1912.53 405.036 1906.67C408.564 1900.07 414.196 1897.08 421.024 1894.77C431.711 1892.27 443.364 1893.29 453.31 1898Z" fill="#231F20"/>
<path d="M56.3096 1898C58.6689 1900.14 58.6689 1900.14 60.3096 1902C59.3196 1903.98 58.3296 1905.96 57.3096 1908C51.3096 1906 51.3096 1906 49.3994 1905.2C41.7003 1902.16 32.0641 1901.22 24.1846 1904.19C20.9113 1906.25 19.1662 1907.58 17.3096 1911C16.6476 1914.17 16.3225 1916.9 17.3096 1920C23.1357 1926.69 31.9569 1927.72 40.2139 1929.87C48.72 1932.21 57.142 1934.84 61.8721 1942.81C63.9905 1947.94 64.2895 1952.83 62.6494 1958.14C60.0277 1964.09 56.0343 1968.18 50.1963 1971.03C38.3067 1975.33 24.3565 1973.88 12.9307 1968.98C10.0236 1967.59 7.59892 1966.29 5.30957 1964C5.60347 1960.18 6.55352 1958.55 9.30957 1956C9.77105 1956.33 10.2325 1956.65 10.708 1956.99C20.3691 1963.46 29.7435 1965.02 41.3096 1964C45.2095 1963.18 48.2398 1961.97 51.2471 1959.25C52.7404 1956.09 53.1869 1953.49 53.3096 1950C51.7611 1945.84 49.3556 1944.14 45.5391 1942.02C40.0825 1939.52 34.0842 1938.3 28.29 1936.82C20.4317 1934.68 13.5965 1931.95 8.27441 1925.55C6.09991 1919.8 6.20724 1912.53 8.03613 1906.67C11.5639 1900.07 17.1957 1897.08 24.0244 1894.77C34.7115 1892.27 46.3639 1893.29 56.3096 1898Z" fill="#231F20"/>
<path d="M2262.31 1895C2280.13 1895 2297.95 1895 2316.31 1895C2316.31 1897.31 2316.31 1899.62 2316.31 1902C2301.46 1902 2286.61 1902 2271.31 1902C2271.31 1911.24 2271.31 1920.48 2271.31 1930C2284.51 1930 2297.71 1930 2311.31 1930C2311.31 1932.31 2311.31 1934.62 2311.31 1937C2298.11 1937 2284.91 1937 2271.31 1937C2271.31 1946.24 2271.31 1955.48 2271.31 1965C2286.49 1965 2301.67 1965 2317.31 1965C2317.31 1967.31 2317.31 1969.62 2317.31 1972C2299.16 1972 2281.01 1972 2262.31 1972C2262.31 1946.59 2262.31 1921.18 2262.31 1895Z" fill="#231F20"/>
<path d="M1557.31 1895C1575.13 1895 1592.95 1895 1611.31 1895C1611.31 1897.31 1611.31 1899.62 1611.31 1902C1596.46 1902 1581.61 1902 1566.31 1902C1566.31 1911.24 1566.31 1920.48 1566.31 1930C1579.51 1930 1592.71 1930 1606.31 1930C1606.31 1932.31 1606.31 1934.62 1606.31 1937C1593.11 1937 1579.91 1937 1566.31 1937C1566.31 1946.24 1566.31 1955.48 1566.31 1965C1581.49 1965 1596.67 1965 1612.31 1965C1612.31 1967.31 1612.31 1969.62 1612.31 1972C1594.16 1972 1576.01 1972 1557.31 1972C1557.31 1946.59 1557.31 1921.18 1557.31 1895Z" fill="#231F20"/>
<path d="M1061.31 1895C1079.13 1895 1096.95 1895 1115.31 1895C1115.31 1897.31 1115.31 1899.62 1115.31 1902C1100.46 1902 1085.61 1902 1070.31 1902C1070.31 1911.24 1070.31 1920.48 1070.31 1930C1083.51 1930 1096.71 1930 1110.31 1930C1110.31 1932.31 1110.31 1934.62 1110.31 1937C1097.11 1937 1083.91 1937 1070.31 1937C1070.31 1946.24 1070.31 1955.48 1070.31 1965C1085.49 1965 1100.67 1965 1116.31 1965C1116.31 1967.31 1116.31 1969.62 1116.31 1972C1098.16 1972 1080.01 1972 1061.31 1972C1061.31 1946.59 1061.31 1921.18 1061.31 1895Z" fill="#231F20"/>
<path d="M988.31 1895C1006.13 1895 1023.95 1895 1042.31 1895C1042.31 1897.31 1042.31 1899.62 1042.31 1902C1027.46 1902 1012.61 1902 997.31 1902C997.31 1911.24 997.31 1920.48 997.31 1930C1010.51 1930 1023.71 1930 1037.31 1930C1037.31 1932.31 1037.31 1934.62 1037.31 1937C1024.11 1937 1010.91 1937 997.31 1937C997.31 1946.24 997.31 1955.48 997.31 1965C1012.49 1965 1027.67 1965 1043.31 1965C1043.31 1967.31 1043.31 1969.62 1043.31 1972C1025.16 1972 1007.01 1972 988.31 1972C988.31 1946.59 988.31 1921.18 988.31 1895Z" fill="#231F20"/>
<path d="M274.31 1895C292.13 1895 309.95 1895 328.31 1895C328.31 1897.31 328.31 1899.62 328.31 1902C313.46 1902 298.61 1902 283.31 1902C283.31 1911.24 283.31 1920.48 283.31 1930C296.51 1930 309.71 1930 323.31 1930C323.31 1932.31 323.31 1934.62 323.31 1937C310.11 1937 296.91 1937 283.31 1937C283.31 1946.24 283.31 1955.48 283.31 1965C298.49 1965 313.67 1965 329.31 1965C329.31 1967.31 329.31 1969.62 329.31 1972C311.16 1972 293.01 1972 274.31 1972C274.31 1946.59 274.31 1921.18 274.31 1895Z" fill="#231F20"/>
<path d="M589.31 1895C592.28 1895 595.25 1895 598.31 1895C598.329 1896.3 598.349 1897.6 598.37 1898.94C598.446 1903.82 598.535 1908.69 598.627 1913.57C598.665 1915.67 598.7 1917.77 598.732 1919.87C597.97 1940.53 597.97 1940.53 605.31 1959C611.409 1963.61 617.574 1964.82 625.122 1964.47C630.251 1963.71 634.297 1962.34 638.31 1959C644.681 1950.42 644.449 1940.4 644.626 1930.16C644.647 1929.15 644.668 1928.14 644.689 1927.1C644.754 1923.9 644.813 1920.7 644.872 1917.5C644.915 1915.32 644.959 1913.14 645.003 1910.96C645.11 1905.64 645.211 1900.32 645.31 1895C647.95 1895 650.59 1895 653.31 1895C653.412 1902.65 653.481 1910.3 653.529 1917.95C653.549 1920.55 653.577 1923.15 653.611 1925.75C653.66 1929.5 653.683 1933.24 653.7 1936.99C653.721 1938.14 653.742 1939.3 653.763 1940.48C653.766 1950.65 651.34 1958.81 644.31 1966.31C635.783 1973.52 624.921 1973.74 614.31 1973C605.902 1971.27 598.952 1967.23 594.001 1960.12C589.267 1951.54 589.017 1941.87 589.114 1932.3C589.117 1931.23 589.12 1930.16 589.123 1929.05C589.134 1925.66 589.159 1922.27 589.185 1918.88C589.195 1916.56 589.204 1914.24 589.212 1911.93C589.234 1906.29 589.268 1900.64 589.31 1895Z" fill="#231F20"/>
<path d="M2242.06 1901.06C2244.64 1903.1 2245.23 1903.77 2246.31 1907C2244.66 1908.65 2243.01 1910.3 2241.31 1912C2237.93 1910.51 2235.18 1908.47 2232.29 1906.22C2225.1 1901.79 2216.33 1901.91 2208.3 1903.65C2200.35 1906.23 2193.91 1910.49 2189.93 1918C2185.46 1928.32 2185.14 1936.58 2188.99 1947.13C2192.82 1955.46 2198.92 1959.72 2207.31 1963C2215.51 1965.6 2224.49 1964.68 2232.21 1961.16C2234.84 1959.71 2237.11 1958.05 2239.31 1956C2242.68 1957.39 2244.3 1958.98 2246.31 1962C2236.64 1971.25 2226.22 1973.44 2213.1 1973.21C2202.51 1972.62 2192.81 1968.04 2185.5 1960.31C2177.66 1950.65 2175.67 1940.12 2176.31 1928C2177.4 1918.41 2182.18 1909.52 2189.31 1903C2204.44 1891.68 2226.25 1889.78 2242.06 1901.06Z" fill="#231F20"/>
<path d="M1344.31 1895C1365.1 1895 1385.89 1895 1407.31 1895C1407.31 1897.31 1407.31 1899.62 1407.31 1902C1398.4 1902 1389.49 1902 1380.31 1902C1380.31 1925.1 1380.31 1948.2 1380.31 1972C1377.34 1972 1374.37 1972 1371.31 1972C1371.31 1948.9 1371.31 1925.8 1371.31 1902C1362.4 1902 1353.49 1902 1344.31 1902C1344.31 1899.69 1344.31 1897.38 1344.31 1895Z" fill="#231F20"/>
<path d="M913.31 1895C934.1 1895 954.89 1895 976.31 1895C976.31 1897.31 976.31 1899.62 976.31 1902C967.4 1902 958.49 1902 949.31 1902C949.31 1925.1 949.31 1948.2 949.31 1972C946.34 1972 943.37 1972 940.31 1972C940.31 1948.9 940.31 1925.8 940.31 1902C931.4 1902 922.49 1902 913.31 1902C913.31 1899.69 913.31 1897.38 913.31 1895Z" fill="#231F20"/>
<path d="M1950.31 1895C1953.28 1895 1956.25 1895 1959.31 1895C1959.31 1918.1 1959.31 1941.2 1959.31 1965C1973.5 1965 1987.69 1965 2002.31 1965C2002.31 1967.31 2002.31 1969.62 2002.31 1972C1985.15 1972 1967.99 1972 1950.31 1972C1950.31 1946.59 1950.31 1921.18 1950.31 1895Z" fill="#231F20"/>
<path d="M209.31 1895C212.28 1895 215.25 1895 218.31 1895C218.31 1918.1 218.31 1941.2 218.31 1965C232.5 1965 246.69 1965 261.31 1965C261.31 1967.31 261.31 1969.62 261.31 1972C244.15 1972 226.99 1972 209.31 1972C209.31 1946.59 209.31 1921.18 209.31 1895Z" fill="#231F20"/>
<path d="M1659.31 1895C1662.28 1895 1665.25 1895 1668.31 1895C1668.31 1920.41 1668.31 1945.82 1668.31 1972C1665.34 1972 1662.37 1972 1659.31 1972C1659.31 1946.59 1659.31 1921.18 1659.31 1895Z" fill="#231F20"/>
<path d="M1419.31 1895C1422.28 1895 1425.25 1895 1428.31 1895C1428.31 1920.41 1428.31 1945.82 1428.31 1972C1425.34 1972 1422.37 1972 1419.31 1972C1419.31 1946.59 1419.31 1921.18 1419.31 1895Z" fill="#231F20"/>
<path d="M376.31 1895C379.28 1895 382.25 1895 385.31 1895C385.31 1920.41 385.31 1945.82 385.31 1972C382.34 1972 379.37 1972 376.31 1972C376.31 1946.59 376.31 1921.18 376.31 1895Z" fill="#231F20"/>
</svg>
