<svg width="31" height="22" viewBox="0 0 31 22" fill="none" xmlns="http://www.w3.org/2000/svg">
<path d="M9.26897 17.0264C7.3269 19.316 2.28046 20.5753 0 20.9187C1.50069 21.4683 6.14253 21.3004 8.27586 21.1477C12.7779 20.3235 15.0069 18.5147 15.5586 17.7133C15.7352 17.0722 15.9264 17.0646 16 17.1409C16.1103 17.2935 16.3752 17.6675 16.5517 17.9423C16.7724 18.2857 19.7517 20.5753 22.9517 21.1477C25.5117 21.6056 30.0506 21.1096 32 20.8043C29.4621 20.499 24.0552 19.3618 22.731 17.2554C21.0759 14.6223 19.4207 15.4237 19.0897 15.4237C18.8248 15.4237 18.7586 15.271 18.7586 15.1947C18.8469 14.7368 19.8989 14.1644 20.4138 13.9354L21.8483 15.4237C23.2828 16.9442 27.72 16.3718 29.0207 12.5617C30.5214 8.1656 28.3954 4.92961 27.1448 3.86113C26.2621 3.10691 23.9971 2.06174 21.5172 3.86113C18.3172 6.18305 18.9057 10.501 19.4207 12.5617C18.6851 12.8669 17.0814 13.5691 16.5517 13.9354C16.0221 14.3018 15.5954 14.0881 15.4483 13.9354L12.469 12.5617C12.6897 11.9893 13.5724 6.18304 10.4828 4.12239C8.01103 2.47386 6.06897 3.32102 5.07586 3.77894C4.7319 3.9162 4.2915 4.33462 3.86207 4.94831C3.67298 5.21854 3.48601 5.52662 3.31034 5.86523C3.20174 6.07456 3.09746 6.29556 2.99966 6.52649C2.11661 8.6116 1.76214 11.5065 3.53103 13.9354C6.53241 18.0567 10.2989 15.6526 11.8069 13.9354L13.3517 15.4237C12.8 15.0039 11.211 14.7368 9.26897 17.0264Z" fill="#9B0E53"/>
<path d="M2.95741 5.99938C0.930717 5.00459 -0.430521 2.75918 0.322483 0.469262C0.475711 -0.184537 1.39134 -0.144244 1.56555 0.522028C1.70688 1.20139 1.97224 1.89929 2.61828 2.21569C3.03288 2.54597 4.17103 3.29813 5.4069 3.66447C4.90036 4.0446 3.75235 5.06861 3.21261 6.1236L2.95741 5.99938Z" fill="#9B0E53"/>
<ellipse cx="7.72412" cy="9.61747" rx="3.97241" ry="5.03715" fill="white"/>
<ellipse cx="24.4966" cy="9.61747" rx="3.97241" ry="5.03715" fill="white"/>
<ellipse cx="15.7793" cy="15.456" rx="0.551724" ry="0.572404" fill="white"/>
</svg>
