<svg width="32" height="36" viewBox="0 0 32 36" fill="none" xmlns="http://www.w3.org/2000/svg">
<g filter="url(#filter0_d_127_1468)">
<path d="M12.25 9.75C11.84 9.75 11.5 9.41 11.5 9V6C11.5 5.59 11.84 5.25 12.25 5.25C12.66 5.25 13 5.59 13 6V9C13 9.41 12.66 9.75 12.25 9.75Z" fill="#757575"/>
<path d="M19.75 9.75C19.34 9.75 19 9.41 19 9V6C19 5.59 19.34 5.25 19.75 5.25C20.16 5.25 20.5 5.59 20.5 6V9C20.5 9.41 20.16 9.75 19.75 9.75Z" fill="#757575"/>
<path d="M16 18.09C16.52 18.09 16.9 17.78 16.9 17.29C16.9 16.79 16.52 16.5 16 16.5C15.48 16.5 15.1 16.79 15.1 17.29C15.1 17.78 15.48 18.09 16 18.09Z" fill="#757575"/>
<path d="M16 20.9999C16.6296 20.9999 17.14 20.5835 17.14 20.0699C17.14 19.5563 16.6296 19.1399 16 19.1399C15.3704 19.1399 14.86 19.5563 14.86 20.0699C14.86 20.5835 15.3704 20.9999 16 20.9999Z" fill="#757575"/>
<path d="M23.57 8.5C22.91 8.01 21.96 8.48 21.96 9.31V9.41C21.96 10.58 21.12 11.66 19.95 11.78C18.6 11.92 17.46 10.86 17.46 9.54V8.5C17.46 7.95 17.01 7.5 16.46 7.5H15.54C14.99 7.5 14.54 7.95 14.54 8.5V9.54C14.54 10.33 14.13 11.03 13.51 11.42C13.42 11.48 13.32 11.53 13.22 11.58C13.13 11.63 13.03 11.67 12.92 11.7C12.8 11.74 12.67 11.77 12.53 11.78C12.37 11.8 12.21 11.8 12.05 11.78C11.91 11.77 11.78 11.74 11.66 11.7C11.56 11.67 11.46 11.63 11.36 11.58C11.26 11.53 11.16 11.48 11.07 11.42C10.44 10.98 10.04 10.22 10.04 9.41V9.31C10.04 8.54 9.22 8.08 8.57 8.41C8.56 8.42 8.55 8.42 8.54 8.43C8.5 8.45 8.47 8.47 8.43 8.5C8.4 8.53 8.36 8.55 8.33 8.58C8.05 8.8 7.8 9.05 7.59 9.32C7.48 9.44 7.39 9.57 7.31 9.7C7.3 9.71 7.29 9.72 7.28 9.74C7.19 9.87 7.11 10.02 7.04 10.16C7.02 10.18 7.01 10.19 7.01 10.21C6.95 10.33 6.89 10.45 6.85 10.58C6.82 10.63 6.81 10.67 6.79 10.72C6.73 10.87 6.69 11.02 6.65 11.17C6.61 11.31 6.58 11.46 6.56 11.61C6.54 11.72 6.53 11.83 6.52 11.95C6.51 12.09 6.5 12.23 6.5 12.37V21.13C6.5 23.82 8.68 26 11.37 26H20.63C23.32 26 25.5 23.82 25.5 21.13V12.37C25.5 10.78 24.74 9.39 23.57 8.5ZM16 22.25C14.45 22.25 13.5 21.48 13.5 20.24C13.5 19.56 13.85 18.97 14.46 18.62C14.02 18.31 13.73 17.85 13.73 17.22C13.73 15.92 14.77 15.25 16 15.25C17.23 15.25 18.26 15.92 18.26 17.22C18.26 17.85 17.98 18.31 17.53 18.62C18.15 18.97 18.5 19.56 18.5 20.24C18.5 21.48 17.54 22.25 16 22.25Z" fill="#757575"/>
</g>
<defs>
<filter id="filter0_d_127_1468" x="-4" y="0" width="40" height="40" filterUnits="userSpaceOnUse" color-interpolation-filters="sRGB">
<feFlood flood-opacity="0" result="BackgroundImageFix"/>
<feColorMatrix in="SourceAlpha" type="matrix" values="0 0 0 0 0 0 0 0 0 0 0 0 0 0 0 0 0 0 127 0" result="hardAlpha"/>
<feOffset dy="4"/>
<feGaussianBlur stdDeviation="2"/>
<feComposite in2="hardAlpha" operator="out"/>
<feColorMatrix type="matrix" values="0 0 0 0 0 0 0 0 0 0 0 0 0 0 0 0 0 0 0.25 0"/>
<feBlend mode="normal" in2="BackgroundImageFix" result="effect1_dropShadow_127_1468"/>
<feBlend mode="normal" in="SourceGraphic" in2="effect1_dropShadow_127_1468" result="shape"/>
</filter>
</defs>
</svg>
