<svg width="250" height="60" viewBox="0 0 490 85" fill="none" xmlns="http://www.w3.org/2000/svg">
<path d="M114.655 67.1286C106.766 76.144 86.2644 81.1024 77 82.4547C83.0966 84.6184 101.954 83.9573 110.621 83.3563C128.91 80.1107 137.966 72.9886 140.207 69.8332C140.924 67.3089 141.701 67.2789 142 67.5794C142.448 68.1804 143.524 69.6529 144.241 70.7348C145.138 72.0871 157.241 81.1024 170.241 83.3563C180.641 85.1593 199.08 83.206 207 82.004C196.69 80.8019 174.724 76.3243 169.345 68.0302C162.621 57.6625 155.897 60.8179 154.552 60.8179C153.476 60.8179 153.207 60.2169 153.207 59.9164C153.566 58.1133 157.839 55.8594 159.931 54.9579L165.759 60.8179C171.586 66.8051 189.613 64.5512 194.897 49.5487C200.993 32.2392 192.356 19.4975 187.276 15.2903C183.69 12.3206 174.488 8.20524 164.414 15.2903C151.414 24.4329 153.805 41.4349 155.897 49.5487C152.908 50.7507 146.393 53.5154 144.241 54.9579C142.09 56.4003 140.356 55.5589 139.759 54.9579L127.655 49.5487C128.552 47.2948 132.138 24.4329 119.586 16.319C109.545 9.82798 101.655 13.1637 97.6207 14.9667C96.2233 15.5072 94.4342 17.1547 92.6897 19.5711C91.9215 20.6351 91.1619 21.8482 90.4483 23.1815C90.0071 24.0057 89.5834 24.8759 89.1861 25.7852C85.5987 33.9953 84.1587 45.394 91.3448 54.9579C103.538 71.1855 118.839 61.7194 124.966 54.9579L131.241 60.8179C129 59.1651 122.545 58.1133 114.655 67.1286Z" fill="#9B0E53"/>
<path d="M89.0145 23.7097C80.7811 19.7927 75.2511 10.9514 78.3101 1.93486C78.9326 -0.639469 82.6524 -0.480818 83.3601 2.14263C83.9343 4.81762 85.0123 7.56559 87.6368 8.81141C89.3211 10.1119 93.9449 13.0735 98.9656 14.516C96.9078 16.0128 92.244 20.0448 90.0513 24.1988L89.0145 23.7097Z" fill="#9B0E53"/>
<ellipse cx="108.379" cy="37.9559" rx="16.1379" ry="19.8338" fill="white"/>
<ellipse cx="176.517" cy="37.9559" rx="16.1379" ry="19.8338" fill="white"/>
<ellipse cx="141.103" cy="60.9451" rx="2.24138" ry="2.25384" fill="white"/>
<path d="M225.944 54.0872V30.2872H231.452V49.5992H243.386V54.0872H225.944ZM253.708 54.3592C252.189 54.3592 250.829 54.0645 249.628 53.4752C248.449 52.8858 247.531 51.9905 246.874 50.7892C246.217 49.5652 245.888 48.0125 245.888 46.1312V35.7952H251.192V45.3492C251.192 46.8678 251.509 47.9898 252.144 48.7152C252.801 49.4178 253.719 49.7692 254.898 49.7692C255.714 49.7692 256.439 49.5992 257.074 49.2592C257.709 48.8965 258.207 48.3525 258.57 47.6272C258.933 46.8792 259.114 45.9498 259.114 44.8392V35.7952H264.418V54.0872H259.386V49.0552L260.304 50.5172C259.692 51.7865 258.785 52.7498 257.584 53.4072C256.405 54.0418 255.113 54.3592 253.708 54.3592ZM267.02 54.0872L275.214 43.3432L275.112 46.2672L267.258 35.7952H273.208L278.172 42.6292L275.928 42.6972L281.062 35.7952H286.706L278.818 46.1652V43.3092L286.978 54.0872H280.96L275.758 46.8112L277.968 47.1172L272.8 54.0872H267.02ZM298.066 54.3592C295.981 54.3592 294.145 53.9512 292.558 53.1352C290.994 52.3192 289.781 51.2085 288.92 49.8032C288.059 48.3752 287.628 46.7545 287.628 44.9412C287.628 43.1052 288.047 41.4845 288.886 40.0792C289.747 38.6512 290.915 37.5405 292.388 36.7472C293.861 35.9312 295.527 35.5232 297.386 35.5232C299.177 35.5232 300.786 35.9085 302.214 36.6792C303.665 37.4272 304.809 38.5152 305.648 39.9432C306.487 41.3485 306.906 43.0372 306.906 45.0092C306.906 45.2132 306.895 45.4512 306.872 45.7232C306.849 45.9725 306.827 46.2105 306.804 46.4372H291.946V43.3432H304.016L301.976 44.2612C301.976 43.3092 301.783 42.4818 301.398 41.7792C301.013 41.0765 300.48 40.5325 299.8 40.1472C299.12 39.7392 298.327 39.5352 297.42 39.5352C296.513 39.5352 295.709 39.7392 295.006 40.1472C294.326 40.5325 293.793 41.0878 293.408 41.8132C293.023 42.5158 292.83 43.3545 292.83 44.3292V45.1452C292.83 46.1425 293.045 47.0265 293.476 47.7972C293.929 48.5452 294.553 49.1232 295.346 49.5312C296.162 49.9165 297.114 50.1092 298.202 50.1092C299.177 50.1092 300.027 49.9618 300.752 49.6672C301.5 49.3725 302.18 48.9305 302.792 48.3412L305.614 51.4012C304.775 52.3532 303.721 53.0898 302.452 53.6112C301.183 54.1098 299.721 54.3592 298.066 54.3592ZM310.811 54.0872V30.2872H316.319V49.5992H328.253V54.0872H310.811ZM339.561 54.3592C337.612 54.3592 335.878 53.9512 334.359 53.1352C332.863 52.3192 331.673 51.2085 330.789 49.8032C329.928 48.3752 329.497 46.7545 329.497 44.9412C329.497 43.1052 329.928 41.4845 330.789 40.0792C331.673 38.6512 332.863 37.5405 334.359 36.7472C335.878 35.9312 337.612 35.5232 339.561 35.5232C341.488 35.5232 343.211 35.9312 344.729 36.7472C346.248 37.5405 347.438 38.6398 348.299 40.0452C349.161 41.4505 349.591 43.0825 349.591 44.9412C349.591 46.7545 349.161 48.3752 348.299 49.8032C347.438 51.2085 346.248 52.3192 344.729 53.1352C343.211 53.9512 341.488 54.3592 339.561 54.3592ZM339.561 50.0072C340.445 50.0072 341.239 49.8032 341.941 49.3952C342.644 48.9872 343.199 48.4092 343.607 47.6612C344.015 46.8905 344.219 45.9838 344.219 44.9412C344.219 43.8758 344.015 42.9692 343.607 42.2212C343.199 41.4732 342.644 40.8952 341.941 40.4872C341.239 40.0792 340.445 39.8752 339.561 39.8752C338.677 39.8752 337.884 40.0792 337.181 40.4872C336.479 40.8952 335.912 41.4732 335.481 42.2212C335.073 42.9692 334.869 43.8758 334.869 44.9412C334.869 45.9838 335.073 46.8905 335.481 47.6612C335.912 48.4092 336.479 48.9872 337.181 49.3952C337.884 49.8032 338.677 50.0072 339.561 50.0072ZM361.84 54.3592C359.891 54.3592 358.157 53.9512 356.638 53.1352C355.142 52.3192 353.952 51.2085 353.068 49.8032C352.207 48.3752 351.776 46.7545 351.776 44.9412C351.776 43.1052 352.207 41.4845 353.068 40.0792C353.952 38.6512 355.142 37.5405 356.638 36.7472C358.157 35.9312 359.891 35.5232 361.84 35.5232C363.767 35.5232 365.49 35.9312 367.008 36.7472C368.527 37.5405 369.717 38.6398 370.578 40.0452C371.44 41.4505 371.87 43.0825 371.87 44.9412C371.87 46.7545 371.44 48.3752 370.578 49.8032C369.717 51.2085 368.527 52.3192 367.008 53.1352C365.49 53.9512 363.767 54.3592 361.84 54.3592ZM361.84 50.0072C362.724 50.0072 363.518 49.8032 364.22 49.3952C364.923 48.9872 365.478 48.4092 365.886 47.6612C366.294 46.8905 366.498 45.9838 366.498 44.9412C366.498 43.8758 366.294 42.9692 365.886 42.2212C365.478 41.4732 364.923 40.8952 364.22 40.4872C363.518 40.0792 362.724 39.8752 361.84 39.8752C360.956 39.8752 360.163 40.0792 359.46 40.4872C358.758 40.8952 358.191 41.4732 357.76 42.2212C357.352 42.9692 357.148 43.8758 357.148 44.9412C357.148 45.9838 357.352 46.8905 357.76 47.6612C358.191 48.4092 358.758 48.9872 359.46 49.3952C360.163 49.8032 360.956 50.0072 361.84 50.0072ZM379.802 50.3472L379.938 43.8872L388.472 35.7952H394.796L386.602 44.1252L383.848 46.3692L379.802 50.3472ZM375.416 54.0872V28.8592H380.72V54.0872H375.416ZM389.05 54.0872L382.862 46.4032L386.194 42.2892L395.476 54.0872H389.05ZM403.417 54.3592C401.853 54.3592 400.346 54.1778 398.895 53.8152C397.467 53.4298 396.334 52.9538 395.495 52.3872L397.263 48.5792C398.102 49.1005 399.088 49.5312 400.221 49.8712C401.377 50.1885 402.511 50.3472 403.621 50.3472C404.845 50.3472 405.707 50.1998 406.205 49.9052C406.727 49.6105 406.987 49.2025 406.987 48.6812C406.987 48.2505 406.783 47.9332 406.375 47.7292C405.99 47.5025 405.469 47.3325 404.811 47.2192C404.154 47.1058 403.429 46.9925 402.635 46.8792C401.865 46.7658 401.083 46.6185 400.289 46.4372C399.496 46.2332 398.771 45.9385 398.113 45.5532C397.456 45.1678 396.923 44.6465 396.515 43.9892C396.13 43.3318 395.937 42.4818 395.937 41.4392C395.937 40.2832 396.266 39.2632 396.923 38.3792C397.603 37.4952 398.578 36.8038 399.847 36.3052C401.117 35.7838 402.635 35.5232 404.403 35.5232C405.65 35.5232 406.919 35.6592 408.211 35.9312C409.503 36.2032 410.58 36.5998 411.441 37.1212L409.673 40.8952C408.789 40.3738 407.894 40.0225 406.987 39.8412C406.103 39.6372 405.242 39.5352 404.403 39.5352C403.225 39.5352 402.363 39.6938 401.819 40.0112C401.275 40.3285 401.003 40.7365 401.003 41.2352C401.003 41.6885 401.196 42.0285 401.581 42.2552C401.989 42.4818 402.522 42.6632 403.179 42.7992C403.837 42.9352 404.551 43.0598 405.321 43.1732C406.115 43.2638 406.908 43.4112 407.701 43.6152C408.495 43.8192 409.209 44.1138 409.843 44.4992C410.501 44.8618 411.033 45.3718 411.441 46.0292C411.849 46.6638 412.053 47.5025 412.053 48.5452C412.053 49.6785 411.713 50.6872 411.033 51.5712C410.353 52.4325 409.367 53.1125 408.075 53.6112C406.806 54.1098 405.253 54.3592 403.417 54.3592Z" fill="#121212"/>
</svg>
