<svg width="20" height="19" viewBox="0 0 16 16" fill="none" xmlns="http://www.w3.org/2000/svg">
<path d="M7.99992 14.8174C4.23945 14.8174 1.18246 11.7604 1.18246 7.99992C1.18246 4.23945 4.23945 1.18246 7.99992 1.18246C11.7604 1.18246 14.8174 4.23945 14.8174 7.99992C14.8174 11.7604 11.7604 14.8174 7.99992 14.8174ZM7.99992 1.48404C4.40705 1.48404 1.48404 4.40705 1.48404 7.99992C1.48404 11.5928 4.40705 14.5158 7.99992 14.5158C11.5928 14.5158 14.5158 11.5928 14.5158 7.99992C14.5158 4.40705 11.5928 1.48404 7.99992 1.48404Z" fill="#121212" stroke="#121212" stroke-width="0.698422"/>
<path d="M9.05349 8.24691L9.30042 7.99998L9.05349 7.75305L7.05349 5.75305C6.99653 5.69609 6.99653 5.5972 7.05349 5.54024C7.11045 5.48329 7.20934 5.48329 7.2663 5.54024L9.61963 7.89358C9.67659 7.95054 9.67659 8.04943 9.61963 8.10639L7.2663 10.4597C7.23524 10.4908 7.19894 10.5041 7.15989 10.5041C7.12085 10.5041 7.08455 10.4908 7.05349 10.4597C6.99653 10.4028 6.99653 10.3039 7.05349 10.2469L6.80809 10.0015L7.05349 10.2469L9.05349 8.24691Z" fill="#121212" stroke="#121212" stroke-width="0.698422"/>
</svg>
