<svg width="30" height="30" viewBox="0 0 30 30" fill="none" xmlns="http://www.w3.org/2000/svg">
<path d="M20.9375 4.45V2.5C20.9375 1.9875 20.5126 1.5625 20 1.5625C19.4876 1.5625 19.0626 1.9875 19.0626 2.5V4.375H10.9376V2.5C10.9376 1.9875 10.5126 1.5625 10.0001 1.5625C9.48755 1.5625 9.06255 1.9875 9.06255 2.5V4.45C5.68755 4.7625 4.05004 6.775 3.80004 9.7625C3.77504 10.125 4.07504 10.425 4.42504 10.425H25.5751C25.9376 10.425 26.2376 10.1125 26.2001 9.7625C25.9501 6.775 24.3125 4.7625 20.9375 4.45Z" fill="#E80000"/>
<path opacity="0.4" d="M26.25 13.55V15.725C26.25 16.4875 25.575 17.075 24.825 16.95C24.475 16.9 24.1125 16.8625 23.75 16.8625C19.9625 16.8625 16.875 19.95 16.875 23.7375C16.875 24.3125 17.1 25.1125 17.3375 25.8375C17.6125 26.65 17.0125 27.4875 16.15 27.4875H10C5.625 27.4875 3.75 24.9875 3.75 21.2375V13.5375C3.75 12.85 4.3125 12.2875 5 12.2875H25C25.6875 12.3 26.25 12.8625 26.25 13.55Z" fill="#E80000"/>
<path d="M23.75 18.75C20.9875 18.75 18.75 20.9875 18.75 23.75C18.75 26.5125 20.9875 28.75 23.75 28.75C26.5125 28.75 28.75 26.5125 28.75 23.75C28.75 20.9875 26.5125 18.75 23.75 18.75ZM25.75 25.8C25.5625 25.9875 25.325 26.075 25.0875 26.075C24.85 26.075 24.6125 25.9875 24.425 25.8L23.7625 25.1375L23.075 25.825C22.8875 26.0125 22.65 26.1 22.4125 26.1C22.175 26.1 21.9375 26.0125 21.75 25.825C21.3875 25.4625 21.3875 24.8625 21.75 24.5L22.4375 23.8125L21.775 23.15C21.4125 22.7875 21.4125 22.1875 21.775 21.825C22.1375 21.4625 22.7375 21.4625 23.1 21.825L23.7625 22.4875L24.3875 21.8625C24.75 21.5 25.35 21.5 25.7125 21.8625C26.075 22.225 26.075 22.825 25.7125 23.1875L25.0875 23.8125L25.75 24.475C26.1125 24.85 26.1125 25.4375 25.75 25.8Z" fill="#E80000"/>
<path d="M10.625 18.75C10.3 18.75 9.975 18.6125 9.7375 18.3875C9.5125 18.15 9.375 17.825 9.375 17.5C9.375 17.175 9.5125 16.85 9.7375 16.6125C10.025 16.325 10.4625 16.1875 10.875 16.275C10.95 16.2875 11.025 16.3125 11.1 16.35C11.175 16.375 11.25 16.4125 11.325 16.4625C11.3875 16.5125 11.45 16.5625 11.5125 16.6125C11.7375 16.85 11.875 17.175 11.875 17.5C11.875 17.825 11.7375 18.15 11.5125 18.3875C11.45 18.4375 11.3875 18.4875 11.325 18.5375C11.25 18.5875 11.175 18.625 11.1 18.65C11.025 18.6875 10.95 18.7125 10.875 18.725C10.7875 18.7375 10.7 18.75 10.625 18.75Z" fill="#E80000"/>
<path d="M15 18.75C14.675 18.75 14.35 18.6125 14.1125 18.3875C13.8875 18.15 13.75 17.825 13.75 17.5C13.75 17.175 13.8875 16.85 14.1125 16.6125C14.5875 16.15 15.425 16.15 15.8875 16.6125C16.1125 16.85 16.25 17.175 16.25 17.5C16.25 17.825 16.1125 18.15 15.8875 18.3875C15.65 18.6125 15.325 18.75 15 18.75Z" fill="#E80000"/>
<path d="M10.625 23.125C10.3 23.125 9.975 22.9875 9.7375 22.7625C9.5125 22.525 9.375 22.2 9.375 21.875C9.375 21.55 9.5125 21.225 9.7375 20.9875C9.8625 20.875 9.9875 20.7874 10.15 20.7249C10.6125 20.5249 11.1625 20.6375 11.5125 20.9875C11.7375 21.225 11.875 21.55 11.875 21.875C11.875 22.2 11.7375 22.525 11.5125 22.7625C11.275 22.9875 10.95 23.125 10.625 23.125Z" fill="#E80000"/>
</svg>
