<svg width="500" height="368" viewBox="0 0 500 368" fill="none" xmlns="http://www.w3.org/2000/svg">
<g opacity="0.5">
<path opacity="0.5" d="M448.709 361.03C459.386 370.072 40.6121 370.072 51.2912 361.028C40.6136 351.988 459.387 351.988 448.709 361.03Z" fill="#FFD86C"/>
<g opacity="0.3">
<path d="M432.762 179.325C428.685 417.419 71.3508 417.382 67.3091 179.318C71.386 -58.7688 428.72 -58.7313 432.762 179.325Z" fill="url(#paint0_linear_92_699)"/>
<path opacity="0.6" d="M214.124 254.037C211.735 393.54 2.36837 393.517 0.000488281 254.032C2.38858 114.534 211.756 114.556 214.124 254.037Z" fill="#FFD86C"/>
<path opacity="0.6" d="M285.876 254.037C288.265 393.54 497.632 393.517 500 254.032C497.612 114.534 288.245 114.556 285.876 254.037Z" fill="#FFD86C"/>
<path d="M353.296 145.982C354.933 241.56 498.378 241.545 500 145.979C498.364 50.4034 354.919 50.4188 353.296 145.982Z" fill="url(#paint1_linear_92_699)"/>
<path d="M146.704 145.982C145.067 241.56 1.62238 241.545 0 145.979C1.63634 50.4034 145.081 50.4188 146.704 145.982Z" fill="url(#paint2_linear_92_699)"/>
</g>
</g>
<g opacity="0.8">
<g opacity="0.8">
<path d="M400.527 307.688C402.686 292.798 414.446 281.889 428.67 278.088C455.263 270.394 457.745 250.71 461.291 260.552C464.837 270.394 457.391 281.023 463.773 288.714C470.155 296.405 465.08 310.817 454.852 313.98C444.625 317.144 408.008 341.215 408.008 360.463C408.008 360.463 380.469 360.463 380.446 360.463C379.036 360.463 379.034 349.937 379.092 349.15C379.643 332.416 396.572 323.118 400.527 307.688Z" fill="#C6CC40"/>
<g opacity="0.8">
<path d="M420.441 320.179C419.863 310.707 424.287 301.216 431.41 294.997C435.472 291.436 440.001 288.842 443.938 285.383C447.032 282.841 450.521 280.396 452.276 276.683C450.861 281.26 446.759 284.272 443.44 287.462C431.927 296.174 421.441 304.553 420.441 320.179Z" fill="white"/>
</g>
</g>
<path d="M498.392 324.909C494.567 336.795 484.147 343.408 472.283 346.014C438.545 353.419 422.75 358.096 417.503 359.769C415.058 361.127 388.949 360.216 385.764 360.463C394.903 339.331 393.623 302.912 440.132 306.03C471.334 311.871 483.153 289.182 490.719 282.716C492.322 281.346 498.423 275.534 499.377 280.164C496.186 295.095 502.725 310.006 498.392 324.909Z" fill="#93B730"/>
<path d="M486.821 306.247C480.794 328.95 452.72 329.361 433.535 331.127C421.759 332.52 409.646 339.528 406.685 351.703C408.235 338.836 420.767 330.651 432.794 328.927C451.816 326.463 478.59 327.608 486.821 306.247Z" fill="#93B730"/>
<path opacity="0.8" d="M486.821 306.247C480.794 328.95 452.72 329.361 433.535 331.127C421.759 332.52 409.646 339.528 406.685 351.703C408.235 338.836 420.767 330.651 432.794 328.927C451.816 326.463 478.59 327.608 486.821 306.247Z" fill="white"/>
<g opacity="0.8">
<path d="M99.473 307.688C97.3136 292.798 85.5536 281.889 71.3304 278.088C44.737 270.394 42.2551 250.71 38.709 260.552C35.163 270.394 42.6093 281.023 36.2271 288.714C29.8444 296.405 34.9204 310.817 45.1475 313.98C55.3746 317.144 91.9916 341.215 91.9916 360.463C91.9916 360.463 119.531 360.463 119.554 360.463C120.964 360.463 120.966 349.937 120.908 349.15C120.357 332.416 103.428 323.118 99.473 307.688Z" fill="#C6CC40"/>
<g opacity="0.8">
<path d="M79.5586 320.179C80.1366 310.707 75.7132 301.216 68.5894 294.997C64.5274 291.436 59.9991 288.842 56.0623 285.383C52.9676 282.841 49.4793 280.396 47.7236 276.683C49.1391 281.26 53.2405 284.272 56.5599 287.462C68.0725 296.174 78.5585 304.553 79.5586 320.179Z" fill="white"/>
</g>
</g>
<path d="M1.6072 324.909C5.43238 336.795 15.853 343.408 27.7169 346.014C61.4549 353.419 77.2498 358.095 82.4962 359.769C84.9421 361.127 111.05 360.216 114.235 360.463C105.097 339.331 106.376 302.912 59.8671 306.03C28.6655 311.871 16.8463 289.182 9.28018 282.716C7.67801 281.346 1.57638 275.534 0.622495 280.164C3.81384 295.095 -2.72525 310.006 1.6072 324.909Z" fill="#93B730"/>
<path d="M13.1792 306.247C19.2062 328.95 47.2805 329.361 66.4652 331.127C78.241 332.52 90.3538 339.528 93.3156 351.703C91.7654 338.836 79.2334 330.651 67.2058 328.927C48.1843 326.463 21.4105 327.608 13.1792 306.247Z" fill="#93B730"/>
<path opacity="0.8" d="M13.1792 306.247C19.2062 328.95 47.2805 329.361 66.4652 331.127C78.241 332.52 90.3538 339.528 93.3156 351.703C91.7654 338.836 79.2334 330.651 67.2058 328.927C48.1843 326.463 21.4105 327.608 13.1792 306.247Z" fill="white"/>
</g>
<g opacity="0.8">
<g opacity="0.5">
<g opacity="0.8">
<path d="M63.5823 230.587C61.5874 230.001 63.8402 228.31 64.6386 227.173C73.0268 217.289 84.3589 204.41 93.5282 193.805C90.191 197.169 86.5083 200.899 82.9926 204.46C58.8214 228.944 58.6044 228.945 57.9605 228.949C56.9007 228.877 57.0224 227.731 57.6476 227.177C68.2169 214.742 82.7909 198.828 93.9315 186C84.1414 195.862 70.6282 209.749 61.3333 219.047C51.8285 228.099 52.9696 228.077 51.1841 227.563C50.5531 226.937 51.0099 226.393 52.9335 224.101C63.5351 211.755 78.715 195.298 90.18 182.314C80.8485 191.489 44.5266 228.916 47.357 224.797C47.1428 224.799 46.9296 224.713 46.7789 224.564C46.1523 223.943 46.5364 223.49 48.6675 220.978C59.0828 208.937 73.5682 193.209 84.8869 180.51C81.1816 184.249 77.071 188.418 73.1486 192.397C45.7158 220.224 44.1603 221.553 43.3802 221.557C41.7746 220.988 42.4027 220.491 44.7364 217.682C55.3793 205.395 70.2161 189.266 81.7446 176.33C76.2566 181.814 69.7075 188.411 63.8176 194.345C40.2514 218.083 40.1773 218.083 39.6002 218.086C39.3909 218.102 39.1791 218.002 39.0285 217.853C38.1973 216.308 40.7394 214.777 41.8743 212.991C50.57 202.806 62.0922 190.122 72.0585 179.004C64.1626 186.675 41.0961 211.151 36.5408 213.843C36.328 213.843 36.1037 213.753 35.9531 213.604C35.1975 212.35 36.8214 211.614 37.5938 210.386C48.2916 198.085 63.5938 181.401 74.9524 168.563C70.4717 173.074 65.1676 178.471 60.156 183.569C35.7346 208.413 34.4299 209.52 33.6724 209.524C32.0866 208.988 32.7194 208.421 34.8678 205.817C44.5179 194.553 57.8671 179.921 68.4056 167.997C64.2719 172.138 59.567 176.874 55.0945 181.376C31.6212 205.006 31.5321 205.006 30.9517 205.008C29.6301 204.609 29.8871 204.089 31.4253 202.339C41.4185 190.791 55.1103 175.559 65.3447 163.699C60.3023 168.491 29.3356 200.487 30.4829 198.312C30.2702 198.314 30.0628 198.229 29.9126 198.08C29.1402 196.866 30.8646 195.984 31.6317 194.711C38.9216 185.919 48.5678 174.77 56.7433 165.17C54.0958 167.851 51.2794 170.718 48.6704 173.373C29.827 192.056 31.2544 192.02 29.2653 191.507C28.2792 190.163 32.2935 186.847 33.7474 184.555C38.1838 179.061 44.7148 171.13 49.6936 165.028C24.0608 191.843 27.3166 185.563 40.1946 167.227C37.7156 169.718 37.6578 169.719 37.319 169.72C36.548 169.747 36.214 168.664 36.8849 168.265C37.267 167.93 39.363 165.816 40.9059 164.259C44.6199 160.511 44.62 160.511 45.0074 160.51C47.0966 161.147 44.4227 163.362 43.6714 164.915C41.3189 168.428 37.7478 173.625 35.1378 177.493C38.8388 174.016 59.7137 152.113 58.4879 154.388C59.8417 154.787 59.4977 155.354 58.0254 157.216C52.0571 164.775 44.0193 174.405 37.4802 182.472C40.5556 179.37 44.1382 175.723 47.5283 172.271C66.4973 152.962 66.6903 152.961 67.3295 152.957C68.3556 153.02 68.2858 154.136 67.6683 154.677C60.017 163.948 49.9496 175.476 41.5538 185.393C99.0701 126.398 68.6732 163.387 44.9111 189.368C47.8503 186.417 50.9618 183.284 53.9587 180.267C79.3975 154.659 79.5375 154.659 80.1266 154.657C81.7066 155.207 81.0521 155.77 78.8782 158.417C69.0096 169.944 55.2571 185.01 44.5295 197.159C48.9457 192.709 54.1198 187.446 59.0144 182.466C83.3838 157.675 84.6862 156.571 85.4408 156.566C87.07 157.183 86.4963 157.549 83.8242 160.817C73.4908 172.844 59.2368 188.395 47.8315 201.189C54.1073 195.109 92.3525 155.744 89.5712 159.65C89.7849 159.648 89.9947 159.733 90.1453 159.882C90.8817 160.983 89.5346 161.544 88.9084 162.527C77.5051 175.468 62.3276 192.062 50.4545 205.538C54.1834 201.797 58.4595 197.489 62.6813 193.236C93.5258 162.681 92.0945 162.712 94.1279 163.229C94.756 163.852 94.3579 164.32 92.1484 166.92C81.3438 179.402 66.197 195.863 54.5265 208.964C59.8557 203.62 66.2605 197.124 72.0084 191.293C96.2912 166.661 96.4664 166.66 97.118 166.656C97.3346 166.66 97.5474 166.742 97.6975 166.892C98.3328 167.521 97.8818 168.053 95.7156 170.611C85.4952 182.454 71.4901 197.666 60.2268 210.281C63.7001 206.782 67.4873 202.95 71.1132 199.283C98.0229 172.061 99.4282 170.848 100.148 170.844C101.772 171.404 101.069 172.027 98.7693 174.857C88.29 187.13 73.5461 203.12 62.1297 215.997C72.1581 206.095 105.46 171.388 103.496 174.885C103.711 174.882 103.932 174.971 104.083 175.121C104.697 175.729 104.405 176.159 101.829 179.251C92.8222 189.896 80.95 203.038 70.7075 214.626C82.4877 202.923 105.894 178.505 104.916 180.78C106.022 180.916 105.869 181.938 105.136 182.658C96.465 193.049 85.2262 205.694 75.645 216.805C77.7553 214.671 79.9514 212.445 82.0758 210.292C105.071 186.803 107.271 184.807 106.041 188.957C98.4488 198.332 88.3068 210.062 79.9947 220.027C84.537 215.65 108.105 191.159 106.437 193.815C106.651 193.813 106.859 193.898 107.009 194.047C107.739 195.122 106.385 195.812 105.79 196.864C100.83 203.22 94.3724 211.17 88.7212 218.219C104.41 202.364 105.828 200.691 105.379 203.995C103.966 205.001 95.9202 213.24 89.5591 219.626C80.1892 229.081 80.1993 229.077 79.7454 229.08C78.5086 228.706 78.6616 228.256 80.0294 226.568C85.3446 219.817 92.3982 211.148 98.2019 203.882C96.7773 205.323 95.2805 206.84 93.7958 208.344C72.1634 230.265 71.9252 230.266 71.288 230.27C71.0839 230.275 70.8563 230.183 70.7061 230.034C70.0824 229.416 70.0824 229.416 76.3414 221.918C82.0108 215.128 90.2979 205.354 96.5588 197.911C92.4458 202.038 87.5883 206.962 83.2145 211.395C64.2849 230.582 64.1781 230.583 63.5847 230.586C63.5851 230.587 63.5837 230.587 63.5823 230.587ZM93.4257 213.896C93.5272 213.996 93.6413 214.058 93.7554 214.091C93.6351 214.055 93.5215 213.99 93.4257 213.896ZM26.485 178.038C26.6881 178.038 26.8912 178.115 27.0461 178.268C26.7728 177.998 26.3829 177.986 26.1235 178.124C26.2366 178.067 26.3608 178.038 26.485 178.038Z" fill="#DDA528"/>
</g>
<g opacity="0.8">
<path d="M266.779 91.1267C265.315 90.6969 266.968 89.4557 267.554 88.6221C273.71 81.3688 282.025 71.9175 288.753 64.1362C278.677 73.757 260.099 94.7676 262.424 88.625C270.18 79.5 280.875 67.8219 289.049 58.409C281.056 66.0835 265.018 83.7372 258.111 89.0832C256.94 88.6929 257.435 88.2198 258.965 86.3674C266.744 77.3078 277.883 65.2316 286.297 55.7038C279.449 62.4364 252.796 89.9009 254.873 86.878C254.716 86.8794 254.559 86.8164 254.449 86.7071C253.668 85.502 258.208 81.7447 259.872 79.4577C266.183 72.354 275.62 61.9743 282.412 54.3798C231.173 106.962 253.149 80.4693 280.106 51.3121C276.08 55.3366 271.273 60.1777 266.951 64.5314C249.658 81.9507 249.604 81.9507 249.18 81.9526C249.026 81.9651 248.872 81.891 248.761 81.7818C248.19 80.5742 249.99 79.5717 250.85 78.2145C257.23 70.7408 265.686 61.4329 272.999 53.2743C267.202 58.9033 250.28 76.8675 246.933 78.8392C245.452 78.3907 247.104 77.1398 247.709 76.3024C255.559 67.2756 266.788 55.0329 275.123 45.6119C230.687 91.5007 239.132 79.3388 270.319 45.1966C223.984 92.3876 244.147 68.8542 268.072 42.0433C264.372 45.5599 241.648 69.0385 242.49 67.4426C242.334 67.4436 242.182 67.382 242.072 67.2722C241.506 66.3814 242.77 65.7341 243.333 64.8004C248.683 58.3489 255.761 50.1667 261.761 43.1228C233.558 72.4647 237.744 65.4203 256.588 43.0188C237.828 62.665 240.19 58.0308 249.618 44.632C247.798 46.4604 247.756 46.4604 247.508 46.4619C246.942 46.4811 246.697 45.687 247.189 45.3944C247.783 44.98 253.131 39.1392 253.149 39.7033C255.648 39.6215 246.587 50.4574 245.907 52.1655C248.624 49.6132 263.942 33.541 263.042 35.2106C264.035 35.5032 263.783 35.9195 262.702 37.2858C258.323 42.8335 252.425 49.8996 247.626 55.8188C249.883 53.5424 252.512 50.8665 255 48.334C268.92 34.1648 269.061 34.1638 269.53 34.1609C270.283 34.2071 270.232 35.0262 269.779 35.4233C264.164 42.2261 256.776 50.6855 250.615 57.9634C292.59 14.8848 270.52 41.8459 253.079 60.8799C300.705 12.3143 273.137 44.3847 252.799 66.596C256.04 63.3311 259.836 59.4683 263.428 55.8145C281.31 37.6227 282.266 36.8123 282.82 36.8084C282.977 36.8074 283.14 36.8729 283.251 36.9826C283.707 37.435 283.488 37.7329 281.634 39.9276C274.051 48.7532 263.591 60.1647 255.222 69.553C259.828 65.0921 287.892 36.2054 285.851 39.0714C286.008 39.0699 286.162 39.1325 286.272 39.2417C286.901 40.405 283.834 42.5404 282.69 44.2153C275.239 52.563 264.86 64.0082 257.147 72.7448C309.83 18.9834 287.826 45.1845 260.136 75.2595C264.046 71.3381 268.746 66.5705 272.964 62.292C290.783 44.2172 290.911 44.2162 291.39 44.2133C291.549 44.2162 291.705 44.2764 291.815 44.3861C292.547 45.6976 287.894 49.542 286.136 51.9542C280.034 58.8268 271.004 68.7661 264.319 76.2259C315.261 24.0286 290.635 53.4062 265.716 80.4207C304.984 39.6884 306.459 41.3493 272.01 79.4139C311.643 38.643 298.981 54.7735 275.633 81.0136C312.841 42.7156 296.562 62.8503 278.825 83.3782C282.167 80.1608 299.445 62.1957 298.232 64.143C300.178 64.6276 296.051 68.0947 295.169 69.6613C292.407 73.1318 288.425 78.0726 285.228 82.0518C297.13 70.3957 296.064 70.4217 297.451 70.7947C298.099 71.904 290.148 78.1857 285.844 83.0846C278.971 90.0202 278.971 90.0202 278.644 90.0217C278.489 90.0222 278.338 89.961 278.227 89.8518C277.843 89.4711 277.997 89.2738 278.85 88.1779C282.75 83.2246 287.927 76.8631 292.185 71.5311C280.334 83.4138 272.526 91.6888 272.437 90.8943C272.286 90.8986 272.119 90.8312 272.009 90.722C271.551 90.2681 271.551 90.2681 276.144 84.7662C280.305 79.784 286.386 72.612 290.98 67.15C287.962 70.1782 284.397 73.7911 281.188 77.0446C267.297 91.1243 267.219 91.1243 266.783 91.1267C266.781 91.1267 266.78 91.1267 266.779 91.1267ZM276.548 61.1013C276.622 61.1745 276.706 61.2197 276.79 61.2447C276.701 61.2183 276.618 61.1701 276.548 61.1013ZM227.426 34.7885C227.575 34.7885 227.724 34.8448 227.838 34.9569C227.638 34.7591 227.352 34.75 227.161 34.8515C227.244 34.8097 227.335 34.7885 227.426 34.7885Z" fill="#DDA528"/>
</g>
<g opacity="0.8">
<path d="M435.732 215.926C434.759 215.64 435.857 214.816 436.247 214.261C440.338 209.441 445.865 203.159 450.337 197.987C418.636 230.415 436.931 209.184 450.534 194.181C445.223 199.282 434.561 211.011 429.973 214.567C429.192 214.311 429.521 213.994 430.539 212.763C435.709 206.741 443.113 198.715 448.704 192.382C417.485 224.432 424.58 214.924 446.123 191.503C412.363 226.171 426.707 208.772 444.591 189.464C441.914 192.139 438.72 195.356 435.847 198.25C424.354 209.827 424.317 209.827 424.036 209.828C423.409 209.725 423.614 209.18 424.054 208.68C428.658 203.086 434.563 196.726 439.866 190.768C436.015 194.509 424.765 206.447 422.543 207.76C421.556 207.465 422.655 206.63 423.057 206.074C428.274 200.075 435.738 191.937 441.277 185.676C411.981 215.963 417.468 207.935 438.084 185.4C407.454 216.608 420.702 201.092 436.591 183.304C434.131 185.641 419.029 201.245 419.588 200.185C418.598 199.887 419.755 199.018 420.149 198.429C423.704 194.141 428.409 188.703 432.396 184.021C413.766 203.431 416.487 198.749 428.958 183.952C416.536 196.98 418.083 193.874 424.325 185.024C422.864 186.361 423.275 186.368 422.645 186.127C422.281 185.348 423.811 184.714 424.672 183.577C426.483 181.749 426.483 181.749 426.672 181.748C428.192 182.026 422.396 188.691 421.859 190.031C441.049 170.175 433.182 180.296 423.002 192.459C446.197 168.471 438.367 178.662 424.988 193.884C452.716 165.413 438.22 183.191 426.626 195.823C457.961 163.852 439.98 184.869 426.44 199.622C458.744 166.297 446.868 181.212 428.051 201.587C431.112 198.622 449.764 179.423 448.408 181.328C449.299 181.56 448.449 182.288 448.084 182.731C442.523 189.042 435.12 197.137 429.33 203.708C464.082 168.225 449.686 185.454 431.316 205.38C461.883 173.881 455.742 182.526 434.096 206.022C467.66 171.609 451.574 190.901 435.024 208.81C461 181.839 461.988 182.994 439.208 208.14C465.32 181.252 457.081 191.856 441.616 209.204C466.185 183.898 455.518 197.166 443.737 210.775C445.955 208.639 457.446 196.696 456.634 197.991C458.47 198.121 448.95 208.174 447.993 209.893C455.904 202.147 455.195 202.163 456.117 202.411C456.349 203.386 451.39 207.169 448.402 210.58C443.835 215.189 443.835 215.189 443.617 215.19C441.741 215.153 451.755 204.527 452.617 202.901C428.981 227.211 441.809 211.512 451.816 199.989C449.81 202.001 447.441 204.402 445.308 206.565C436.076 215.923 436.023 215.923 435.734 215.925C435.733 215.926 435.732 215.926 435.732 215.926ZM479.094 210.683C479.144 210.731 479.199 210.761 479.255 210.778C479.196 210.76 479.141 210.729 479.094 210.683ZM446.447 193.194C446.546 193.194 446.644 193.231 446.72 193.306C446.587 193.175 446.397 193.169 446.27 193.236C446.326 193.208 446.386 193.194 446.447 193.194Z" fill="#DDA528"/>
</g>
</g>
<g opacity="0.5">
<path opacity="0.5" d="M13.125 153.191C41.0896 136.854 70.6106 123.068 101.111 112.166C73.1565 128.523 43.6163 142.268 13.125 153.191Z" fill="#DDA528"/>
<path opacity="0.5" d="M160.85 71.6157C189.301 56.1523 218.694 42.4311 248.836 30.5902C220.392 46.0676 190.985 59.7609 160.85 71.6157Z" fill="#DDA528"/>
<path opacity="0.5" d="M427.012 229.574C445.435 219.448 464.522 210.538 484.127 202.944C465.709 213.08 446.613 221.97 427.012 229.574Z" fill="#DDA528"/>
</g>
</g>
<path d="M357.794 213.692L423.066 176.335C424.566 175.476 424.566 173.33 423.066 172.471L357.794 135.114C356.294 134.256 354.419 135.329 354.419 137.046V155.793C354.419 157.025 353.412 158.023 352.169 158.023H279.129C277.886 158.023 276.879 159.022 276.879 160.253V188.552C276.879 189.783 277.886 190.782 279.129 190.782H352.169C353.412 190.782 354.419 191.781 354.419 193.012V211.76C354.419 213.477 356.294 214.55 357.794 213.692Z" fill="url(#paint3_linear_92_699)"/>
<path d="M309.386 279.496L351.683 255.289C352.655 254.732 352.655 253.341 351.683 252.785L309.386 228.578C308.414 228.021 307.199 228.717 307.199 229.83V241.978C307.199 242.776 306.546 243.423 305.741 243.423H258.41C257.605 243.423 256.953 244.07 256.953 244.868V263.206C256.953 264.004 257.605 264.651 258.41 264.651H305.741C306.546 264.651 307.199 265.298 307.199 266.097V278.245C307.199 279.357 308.414 280.053 309.386 279.496Z" fill="url(#paint4_linear_92_699)"/>
<path d="M110.647 173.873C86.0608 160.942 135.746 148.767 142.676 134.297C147.735 122.901 153.029 108.415 168.987 114.79C186.174 120.828 180.92 137.831 179.593 148.306C192.931 161.576 193.107 179.824 172.592 180.385C164.281 180.64 154.837 179.605 148.941 186.23C142.99 194.86 136.699 200.017 125.95 201.754C120.807 202.703 113.766 202.226 115.065 196.083C117.626 183.966 128.746 182.312 110.647 173.873Z" fill="url(#paint5_linear_92_699)"/>
<path d="M172.012 143.165C172.012 143.165 172.133 156.802 176.577 157.994C176.577 157.994 170.803 165.808 162.82 156.26C162.82 156.26 163.334 149.023 161.327 143.63L172.012 143.165Z" fill="url(#paint6_linear_92_699)"/>
<path d="M175.638 126.79C173.786 134.441 181.986 142.432 172.598 150.79C169.635 150.742 157.108 151.052 155.242 140.489C154.519 138.729 151.669 138.239 152.36 135.065C153.052 131.892 154.752 133.606 154.752 133.606C154.752 133.606 154.676 131.248 154.773 129.248C154.871 127.248 175.638 126.79 175.638 126.79Z" fill="url(#paint7_linear_92_699)"/>
<path d="M174.97 121.802C177.128 105.414 151.835 112.246 148.778 127.553L149.838 127.454L150.869 133.717C155.766 136.264 167.282 138.207 172.18 129.08C173.105 130.325 174.687 131.64 177.13 131.257C177.13 131.257 177.425 126.205 174.97 121.802Z" fill="url(#paint8_linear_92_699)"/>
<path d="M196.548 349.202C196.548 349.202 202.467 353.502 208.408 351.744C208.344 357.562 188.638 358.521 183.784 355.795C185.254 347.35 189.387 346.497 196.548 349.202Z" fill="url(#paint9_linear_92_699)"/>
<path d="M196.07 344.509C196.07 344.509 196.029 347.546 196.087 349.066C196.112 349.733 190.108 350.268 187.461 348.424L188.425 344.771L194.354 342.671L196.07 344.509Z" fill="url(#paint10_linear_92_699)"/>
<path d="M185.1 288.102C181.726 306.097 187.653 344.683 188.426 344.77C193.119 347.057 196.07 344.509 196.07 344.509C197.189 327.647 204.452 238.085 195.237 219.619L183.784 216.318C181.052 219.782 177.657 224.639 175.874 232.279C173.368 245.242 183.08 277.583 185.1 288.102Z" fill="url(#paint11_linear_92_699)"/>
<path opacity="0.5" d="M175.289 238.261C175.539 248.638 183.233 280.506 185.1 288.102C183.308 280.194 181.695 248.131 187.461 233.466C193.228 218.801 196.013 224.416 196.013 224.416L196.38 223.851C195.72 220.945 195.238 219.618 195.238 219.618L183.784 216.318C183 216.328 176.352 231.455 175.874 232.279C175.466 234.19 175.24 236.201 175.289 238.261Z" fill="url(#paint12_linear_92_699)"/>
<path d="M226.721 183.38C227.72 183.348 229.049 182.777 229.963 182.825C230.588 183.339 239.521 177.327 233.998 179.317C233.47 179.638 232.917 179.89 232.458 180.071C233.91 179.449 239.733 173.839 234.929 176.439C232.996 177.905 232.73 178.428 231.539 178.683C232.59 178.531 239.322 170.579 234.378 174.084C232.615 175.851 232.474 176.357 231.23 176.806C232.162 176.364 235.796 166.476 232.341 171.477C231.187 174.448 230.757 174.787 228.989 176.397C228.989 176.397 227.682 177.314 227.408 175.567C227.133 173.818 227.456 172.602 226.866 171.93C226.276 171.255 226.116 171.24 225.905 171.578C226.496 173.857 225.5 173.731 224.954 176.022C224.545 177.659 222.768 178.189 221.31 178.296C221.416 178.381 224.113 180.426 223.793 184.395C224.796 184.066 225.781 183.697 226.765 183.362C226.75 183.369 226.736 183.373 226.721 183.38Z" fill="url(#paint13_linear_92_699)"/>
<path d="M154.64 346.58C154.64 346.58 154.837 357.003 162.816 359.38C158.999 364.038 142.436 352.207 140.277 346.865C145.194 342.426 149.393 342.225 154.64 346.58Z" fill="url(#paint14_linear_92_699)"/>
<path d="M155.975 342.053C155.975 342.053 155.034 345.054 154.641 346.58C154.469 347.249 148.352 346.031 146.272 343.43L148.311 340.086L154.817 339.729L155.975 342.053Z" fill="url(#paint15_linear_92_699)"/>
<path d="M159.791 287.235C154.826 304.677 149.13 322.613 148.045 340.824C150.235 342.516 152.758 344 155.623 343.041C170.023 305 187.284 260.855 180.55 219.35C176.88 218.215 173.037 216.288 169.39 214.733C163.817 220.464 158.761 227.111 157.821 236.225C156.833 252.166 158.946 271.251 159.791 287.235Z" fill="url(#paint16_linear_92_699)"/>
<path d="M183.782 159.83C175.621 176.082 183.475 186.712 197.432 193.475C197.508 193.432 197.583 193.384 197.657 193.337C200.703 193.918 203.73 192.582 206.575 191.399C212.915 188.749 219.516 186.846 225.664 183.756C225.664 183.756 223.608 181.354 223.38 177.911C215.806 179.332 200.987 182.005 200.706 182.051C200.704 182.049 200.702 182.051 200.702 182.051C194.642 180.27 183.782 159.83 183.782 159.83Z" fill="url(#paint17_linear_92_699)"/>
<path d="M151.588 185.901C154.469 197.844 158.694 209.704 163.356 220.972C175.039 223.901 196.923 220.168 195.354 219.734C193.396 213.792 191.653 200.58 191.792 192.711C191.285 187.501 194.133 182.907 193.543 177.697C193.158 173.652 190.325 171.236 188.605 167.911C187.239 165.39 185.925 162.831 184.424 160.418C181.56 157.626 176.365 157.913 173.727 154.736C173.927 155.074 176.033 158.807 172.348 159.312C166.054 159.932 162.858 156.198 162.858 156.198C149.731 159.574 147.625 174.639 151.588 185.901Z" fill="url(#paint18_linear_92_699)"/>
<path opacity="0.3" d="M186.451 185.073C186.394 185.096 186.193 185.18 185.867 185.307C186.109 185.229 186.307 185.151 186.451 185.073Z" fill="url(#paint19_linear_92_699)"/>
<path d="M196.347 174.403L196.665 174.65C196.577 174.546 196.467 174.462 196.347 174.403Z" fill="url(#paint20_linear_92_699)"/>
<path opacity="0.5" d="M162.877 215.475C159.027 209.04 189.764 202.173 192.418 202.044L192.244 200.794C192.116 200.752 177.729 195.823 177.6 195.78C173.429 196.748 165.22 198.366 161.981 199.076C161.425 199.2 160.933 198.71 161.044 198.157C161.436 196.19 161.03 195.285 162.626 194.982C164.926 194.541 167.539 194.297 170.235 194.004L190.578 193.477V186.938C167.474 192.266 162.81 173.865 162.081 177.235C161.352 180.604 165.624 181.967 165.624 181.967L169.106 191.055C160.889 190.783 159.67 178.772 158.862 177.193C157.376 175.385 158.203 190.444 152.455 188.196C154.502 199.331 159.267 210.486 163.357 220.972C175.039 223.901 196.926 220.167 195.355 219.733C174.702 222.093 166.198 219.249 162.877 215.475Z" fill="url(#paint21_linear_92_699)"/>
<path d="M162.512 156.251C162.512 156.251 162.327 162.72 170.834 164.416C172.281 164.183 172.505 161.436 172.348 159.313C172.348 159.313 165.446 159.269 162.835 155.984C162.835 155.984 162.589 155.859 162.512 156.251Z" fill="url(#paint22_linear_92_699)"/>
<path d="M172.349 159.313C172.349 159.313 172.881 161.642 174.994 162.597C175.102 162.646 175.23 162.581 175.257 162.466C175.498 161.403 176.377 156.752 173.831 154.797C173.831 154.797 175.052 158.438 172.349 159.313Z" fill="url(#paint23_linear_92_699)"/>
<path d="M272.474 143.534L321.652 195.836C317.679 196.769 252.609 212.056 250.73 212.497L272.474 143.534Z" fill="url(#paint24_linear_92_699)"/>
<path d="M228.099 233.408C227.617 234.939 207.478 298.803 206.354 302.37L157.175 250.068L228.099 233.408Z" fill="url(#paint25_linear_92_699)"/>
<path d="M321.652 195.836C324.874 198.708 327.88 202.96 323.963 206.708L217.132 305.419C213.193 308.979 208.974 305.807 206.354 302.37C207.572 298.507 227.523 235.236 228.1 233.408C246.469 229.433 245.429 230.554 250.73 212.497C252.304 212.128 317.984 196.698 321.652 195.836Z" fill="url(#paint26_linear_92_699)"/>
<path d="M259.817 130.073L272.474 143.534C269.911 151.714 248.977 218.019 247.058 224.143C246.041 227.364 243.388 229.815 240.076 230.594C234.051 231.993 165.209 248.192 157.176 250.067L144.519 236.606C142.34 234.288 142.468 230.659 144.807 228.499L251.638 129.788C253.976 127.628 257.638 127.756 259.817 130.073Z" fill="url(#paint27_linear_92_699)"/>
<g opacity="0.2">
<path d="M272.474 143.534L276.878 148.219L257.873 210.82L250.729 212.497L272.474 143.534Z" fill="white"/>
<path d="M228.099 233.408L225.909 240.354L161.58 254.752L157.176 250.068L228.099 233.408Z" fill="white"/>
</g>
<path opacity="0.3" d="M257.873 210.82L255.744 217.829C254.409 221.081 252.429 231.406 249.458 233.6L249.459 233.601L249.425 233.633L249.424 233.631C247.048 236.405 236.421 237.664 233.113 238.74L225.91 240.354L228.099 233.408C246.469 229.433 245.429 230.554 250.73 212.497L257.873 210.82Z" fill="white"/>
<path d="M208.284 192.831C209.537 192.79 211.205 192.075 212.351 192.134C213.607 192.069 217.474 189.697 219.038 188.329C220.597 186.96 218.948 186.797 217.412 187.735C216.75 188.137 216.056 188.454 215.481 188.68C217.283 187.905 224.652 180.833 218.579 184.125C216.155 185.964 215.821 186.62 214.327 186.939C215.811 186.049 218.631 183.009 219.743 181.332C220.973 179.475 219.213 179.769 217.888 181.171C215.676 183.387 215.5 184.023 213.94 184.586C215.032 183.294 216.662 179.398 217.132 177.423C217.645 175.258 216.093 176.132 215.334 177.902C213.854 181.68 213.384 182.005 211.129 184.073C211.129 184.073 209.49 185.222 209.146 183.031C208.8 180.837 209.207 179.313 208.466 178.47C207.726 177.623 207.526 177.604 207.262 178.028C207.997 181.05 206.778 180.584 206.068 183.602C205.554 185.654 203.332 186.318 201.498 186.454C201.632 186.56 205.014 189.125 204.613 194.103C205.871 193.69 207.106 193.227 208.34 192.807C208.321 192.816 208.304 192.822 208.284 192.831Z" fill="url(#paint28_linear_92_699)"/>
<path d="M153.01 163.295C146.016 174.297 148.03 193.964 168.482 203.897C173.369 206.615 178.234 204.888 183.018 202.888C190.969 199.564 199.248 197.178 206.959 193.303C206.959 193.303 204.38 190.29 204.077 185.973C194.573 187.763 176.008 191.104 175.652 191.165C168.051 188.93 153.01 163.295 153.01 163.295Z" fill="url(#paint29_linear_92_699)"/>
<defs>
<linearGradient id="paint0_linear_92_699" x1="426.531" y1="250.742" x2="67.0371" y2="202.574" gradientUnits="userSpaceOnUse">
<stop stop-color="#FF625E"/>
<stop offset="1" stop-color="#B0413E"/>
</linearGradient>
<linearGradient id="paint1_linear_92_699" x1="497.499" y1="174.65" x2="353.187" y2="155.314" gradientUnits="userSpaceOnUse">
<stop stop-color="#FF625E"/>
<stop offset="1" stop-color="#B0413E"/>
</linearGradient>
<linearGradient id="paint2_linear_92_699" x1="144.203" y1="174.65" x2="-0.109167" y2="155.314" gradientUnits="userSpaceOnUse">
<stop stop-color="#FF625E"/>
<stop offset="1" stop-color="#B0413E"/>
</linearGradient>
<linearGradient id="paint3_linear_92_699" x1="421.68" y1="190.238" x2="282.43" y2="156.319" gradientUnits="userSpaceOnUse">
<stop stop-color="#FF625E"/>
<stop offset="1" stop-color="#B0413E"/>
</linearGradient>
<linearGradient id="paint4_linear_92_699" x1="350.784" y1="264.298" x2="260.55" y2="242.318" gradientUnits="userSpaceOnUse">
<stop stop-color="#FF625E"/>
<stop offset="1" stop-color="#B0413E"/>
</linearGradient>
<linearGradient id="paint5_linear_92_699" x1="171.152" y1="101.381" x2="147.17" y2="165.475" gradientUnits="userSpaceOnUse">
<stop stop-color="#C2728D"/>
<stop offset="1" stop-color="#11486D"/>
</linearGradient>
<linearGradient id="paint6_linear_92_699" x1="167.565" y1="144.554" x2="169.659" y2="156.891" gradientUnits="userSpaceOnUse">
<stop stop-color="#F0877E"/>
<stop offset="1" stop-color="#FABEB2"/>
</linearGradient>
<linearGradient id="paint7_linear_92_699" x1="159.833" y1="121.496" x2="167.682" y2="144.616" gradientUnits="userSpaceOnUse">
<stop stop-color="#F0877E"/>
<stop offset="1" stop-color="#FABEB2"/>
</linearGradient>
<linearGradient id="paint8_linear_92_699" x1="174.373" y1="98.595" x2="149.506" y2="165.057" gradientUnits="userSpaceOnUse">
<stop stop-color="#C2728D"/>
<stop offset="1" stop-color="#11486D"/>
</linearGradient>
<linearGradient id="paint9_linear_92_699" x1="194.992" y1="353.087" x2="207.639" y2="360.905" gradientUnits="userSpaceOnUse">
<stop stop-color="#5B00E7"/>
<stop offset="1" stop-color="#C845FF"/>
</linearGradient>
<linearGradient id="paint10_linear_92_699" x1="193.562" y1="341.12" x2="191.45" y2="350.141" gradientUnits="userSpaceOnUse">
<stop stop-color="#F0877E"/>
<stop offset="1" stop-color="#FABEB2"/>
</linearGradient>
<linearGradient id="paint11_linear_92_699" x1="190.688" y1="234.63" x2="180.573" y2="348.7" gradientUnits="userSpaceOnUse">
<stop stop-color="#E75B00"/>
<stop offset="1" stop-color="#FFA345"/>
</linearGradient>
<linearGradient id="paint12_linear_92_699" x1="196.379" y1="252.21" x2="175.282" y2="252.21" gradientUnits="userSpaceOnUse">
<stop stop-color="#E75B00"/>
<stop offset="1" stop-color="#FFA345"/>
</linearGradient>
<linearGradient id="paint13_linear_92_699" x1="210.36" y1="182.98" x2="236.416" y2="174.391" gradientUnits="userSpaceOnUse">
<stop stop-color="#F0877E"/>
<stop offset="1" stop-color="#FABEB2"/>
</linearGradient>
<linearGradient id="paint14_linear_92_699" x1="151.204" y1="352.49" x2="159.908" y2="369.211" gradientUnits="userSpaceOnUse">
<stop stop-color="#5B00E7"/>
<stop offset="1" stop-color="#C845FF"/>
</linearGradient>
<linearGradient id="paint15_linear_92_699" x1="154.478" y1="337.948" x2="149.721" y2="346.3" gradientUnits="userSpaceOnUse">
<stop stop-color="#F0877E"/>
<stop offset="1" stop-color="#FABEB2"/>
</linearGradient>
<linearGradient id="paint16_linear_92_699" x1="172.962" y1="233.828" x2="145.916" y2="345.711" gradientUnits="userSpaceOnUse">
<stop stop-color="#E75B00"/>
<stop offset="1" stop-color="#FFA345"/>
</linearGradient>
<linearGradient id="paint17_linear_92_699" x1="170.959" y1="168.061" x2="206.949" y2="183.799" gradientUnits="userSpaceOnUse">
<stop stop-color="#5B00E7"/>
<stop offset="1" stop-color="#C845FF"/>
</linearGradient>
<linearGradient id="paint18_linear_92_699" x1="173.261" y1="223.745" x2="171.426" y2="150.334" gradientUnits="userSpaceOnUse">
<stop stop-color="#5B00E7"/>
<stop offset="1" stop-color="#C845FF"/>
</linearGradient>
<linearGradient id="paint19_linear_92_699" x1="186.155" y1="185.374" x2="186.16" y2="185.131" gradientUnits="userSpaceOnUse">
<stop stop-color="#E75B00"/>
<stop offset="1" stop-color="#FFA345"/>
</linearGradient>
<linearGradient id="paint20_linear_92_699" x1="196.439" y1="174.4" x2="196.598" y2="174.7" gradientUnits="userSpaceOnUse">
<stop stop-color="#00D1D0"/>
<stop offset="1" stop-color="#0098D0"/>
</linearGradient>
<linearGradient id="paint21_linear_92_699" x1="174.407" y1="224.241" x2="173.241" y2="173.305" gradientUnits="userSpaceOnUse">
<stop stop-color="#5B00E7"/>
<stop offset="1" stop-color="#C845FF"/>
</linearGradient>
<linearGradient id="paint22_linear_92_699" x1="164.819" y1="149.38" x2="176.092" y2="187.465" gradientUnits="userSpaceOnUse">
<stop stop-color="#5B00E7"/>
<stop offset="1" stop-color="#C845FF"/>
</linearGradient>
<linearGradient id="paint23_linear_92_699" x1="170.696" y1="147.637" x2="182.028" y2="185.921" gradientUnits="userSpaceOnUse">
<stop stop-color="#5B00E7"/>
<stop offset="1" stop-color="#C845FF"/>
</linearGradient>
<linearGradient id="paint24_linear_92_699" x1="297.186" y1="190.302" x2="272.184" y2="164.637" gradientUnits="userSpaceOnUse">
<stop stop-color="#FF9C4C"/>
<stop offset="1" stop-color="#F28F3F"/>
</linearGradient>
<linearGradient id="paint25_linear_92_699" x1="203.633" y1="280.175" x2="178.631" y2="254.51" gradientUnits="userSpaceOnUse">
<stop stop-color="#FF9C4C"/>
<stop offset="1" stop-color="#F28F3F"/>
</linearGradient>
<linearGradient id="paint26_linear_92_699" x1="284.609" y1="271.211" x2="244.4" y2="228.07" gradientUnits="userSpaceOnUse">
<stop stop-color="#FF9C4C"/>
<stop offset="1" stop-color="#F28F3F"/>
</linearGradient>
<linearGradient id="paint27_linear_92_699" x1="227.798" y1="210.861" x2="183.696" y2="164.061" gradientUnits="userSpaceOnUse">
<stop stop-color="#FF9C4C"/>
<stop offset="1" stop-color="#F28F3F"/>
</linearGradient>
<linearGradient id="paint28_linear_92_699" x1="179.1" y1="197.216" x2="212.42" y2="184.027" gradientUnits="userSpaceOnUse">
<stop stop-color="#F0877E"/>
<stop offset="1" stop-color="#FABEB2"/>
</linearGradient>
<linearGradient id="paint29_linear_92_699" x1="179.061" y1="224.193" x2="177.894" y2="173.223" gradientUnits="userSpaceOnUse">
<stop stop-color="#5B00E7"/>
<stop offset="1" stop-color="#C845FF"/>
</linearGradient>
</defs>
</svg>
