<svg width="30" height="20" viewBox="0 0 30 20" fill="none" xmlns="http://www.w3.org/2000/svg">
<path d="M8.68966 15.9623C6.86897 18.1088 2.13793 19.2893 0 19.6113C1.4069 20.1265 5.75862 19.9691 7.75862 19.826C11.9793 19.0532 14.069 17.3575 14.5862 16.6062C14.7517 16.0052 14.931 15.998 15 16.0696C15.1034 16.2127 15.3517 16.5633 15.5172 16.8209C15.7241 17.1428 18.5172 19.2894 21.5172 19.826C23.9172 20.2553 28.1724 19.7902 30 19.504C27.6207 19.2178 22.5517 18.1517 21.3103 16.1769C19.7586 13.7084 18.2069 14.4597 17.8966 14.4597C17.6483 14.4597 17.5862 14.3166 17.5862 14.245C17.669 13.8157 18.6552 13.2791 19.1379 13.0645L20.4828 14.4597C21.8276 15.8852 25.9875 15.3486 27.2069 11.7766C28.6138 7.65525 26.6207 4.62151 25.4483 3.6198C24.6207 2.91272 22.4973 1.93288 20.1724 3.6198C17.1724 5.79661 17.7241 9.84469 18.2069 11.7766C17.5172 12.0628 16.0138 12.721 15.5172 13.0645C15.0207 13.4079 14.6207 13.2076 14.4828 13.0645L11.6897 11.7766C11.8966 11.2399 12.7241 5.7966 9.82759 3.86474C7.51034 2.31925 5.68966 3.11346 4.75862 3.54276C4.43615 3.67143 4.02328 4.06371 3.62069 4.63904C3.44342 4.89238 3.26814 5.18121 3.10345 5.49865C3.00164 5.6949 2.90387 5.90208 2.81218 6.11858C1.98432 8.07337 1.652 10.7873 3.31034 13.0645C6.12414 16.9282 9.65517 14.6743 11.069 13.0645L12.5172 14.4597C12 14.0662 10.5103 13.8157 8.68966 15.9623Z" fill="#9B0E53"/>
<path d="M2.77251 5.62442C0.872486 4.6918 -0.403674 2.58673 0.302267 0.439933C0.445918 -0.173003 1.30432 -0.135229 1.46765 0.489401C1.60014 1.12631 1.84891 1.78058 2.45458 2.07721C2.84326 2.38685 3.91028 3.092 5.0689 3.43544C4.59403 3.79181 3.51777 4.75182 3.01176 5.74087L2.77251 5.62442Z" fill="#9B0E53"/>
<ellipse cx="7.24147" cy="9.01638" rx="3.72414" ry="4.72233" fill="white"/>
<ellipse cx="22.9656" cy="9.01638" rx="3.72414" ry="4.72233" fill="white"/>
<ellipse cx="14.7931" cy="14.49" rx="0.517241" ry="0.536628" fill="white"/>
</svg>
