<svg width="20" height="20" viewBox="0 0 20 20" fill="none" xmlns="http://www.w3.org/2000/svg">
<g clip-path="url(#clip0_1528_15410)">
<rect width="20" height="20" rx="10" fill="#333333"/>
<path d="M6.84483 12.6589C5.93448 13.6888 3.56897 14.2553 2.5 14.4097C3.20345 14.6569 5.37931 14.5814 6.37931 14.5127C8.48966 14.142 9.53448 13.3283 9.7931 12.9679C9.87586 12.6795 9.96552 12.676 10 12.7104C10.0517 12.779 10.1759 12.9473 10.2586 13.0708C10.3621 13.2253 11.7586 14.2553 13.2586 14.5127C14.4586 14.7187 16.5862 14.4956 17.5 14.3583C16.3103 14.2209 13.7759 13.7094 13.1552 12.7619C12.3793 11.5775 11.6034 11.9379 11.4483 11.9379C11.3241 11.9379 11.2931 11.8693 11.2931 11.8349C11.3345 11.629 11.8276 11.3715 12.069 11.2685L12.7414 11.9379C13.4138 12.6219 15.4938 12.3644 16.1034 10.6505C16.8069 8.67307 15.8103 7.21745 15.2241 6.73682C14.8103 6.39755 13.7486 5.92741 12.5862 6.73682C11.0862 7.78127 11.3621 9.7236 11.6034 10.6505C11.2586 10.7879 10.5069 11.1037 10.2586 11.2685C10.0103 11.4333 9.81035 11.3371 9.74138 11.2685L8.34483 10.6505C8.44828 10.393 8.86207 7.78127 7.41379 6.85434C6.25517 6.11279 5.34483 6.49387 4.87931 6.69985C4.71808 6.76159 4.51164 6.94981 4.31034 7.22586C4.22171 7.34741 4.13407 7.486 4.05172 7.63831C4.00082 7.73247 3.95193 7.83188 3.90609 7.93576C3.49216 8.87369 3.326 10.1759 4.15517 11.2685C5.56207 13.1223 7.32759 12.0409 8.03448 11.2685L8.75862 11.9379C8.5 11.7491 7.75517 11.629 6.84483 12.6589Z" fill="#9B0E53"/>
<path d="M3.88638 7.69866C2.93637 7.25118 2.29828 6.24114 2.65126 5.21108C2.72308 4.91699 3.15228 4.93511 3.23395 5.23482C3.30019 5.54041 3.42458 5.85434 3.72741 5.99667C3.92175 6.14524 4.45526 6.48358 5.03457 6.64837C4.79713 6.81936 4.259 7.27998 4.006 7.75454L3.88638 7.69866Z" fill="#9B0E53"/>
<ellipse cx="6.12037" cy="9.32614" rx="1.86207" ry="2.26583" fill="white"/>
<ellipse cx="13.9827" cy="9.32614" rx="1.86207" ry="2.26583" fill="white"/>
<ellipse cx="9.89632" cy="11.9524" rx="0.258621" ry="0.257481" fill="white"/>
</g>
<defs>
<clipPath id="clip0_1528_15410">
<rect width="20" height="20" rx="10" fill="white"/>
</clipPath>
</defs>
</svg>
