<svg width="17" height="16" viewBox="0 0 17 16" fill="none" xmlns="http://www.w3.org/2000/svg">
<path d="M10.25 15.1666H6.24998C2.62998 15.1666 1.08331 13.6199 1.08331 9.99992V5.99992C1.08331 2.37992 2.62998 0.833252 6.24998 0.833252H7.58331C7.85665 0.833252 8.08331 1.05992 8.08331 1.33325C8.08331 1.60659 7.85665 1.83325 7.58331 1.83325H6.24998C3.17665 1.83325 2.08331 2.92659 2.08331 5.99992V9.99992C2.08331 13.0733 3.17665 14.1666 6.24998 14.1666H10.25C13.3233 14.1666 14.4166 13.0733 14.4166 9.99992V8.66659C14.4166 8.39325 14.6433 8.16659 14.9166 8.16659C15.19 8.16659 15.4166 8.39325 15.4166 8.66659V9.99992C15.4166 13.6199 13.87 15.1666 10.25 15.1666Z" fill="#757575"/>
<path d="M5.91664 11.7934C5.50997 11.7934 5.13664 11.6467 4.86331 11.38C4.53664 11.0534 4.39664 10.58 4.46997 10.08L4.75664 8.07337C4.80997 7.68671 5.06331 7.18671 5.33664 6.91337L10.59 1.66004C11.9166 0.333372 13.2633 0.333372 14.59 1.66004C15.3166 2.38671 15.6433 3.12671 15.5766 3.86671C15.5166 4.46671 15.1966 5.05337 14.59 5.65337L9.33664 10.9067C9.0633 11.18 8.5633 11.4334 8.17664 11.4867L6.16997 11.7734C6.08331 11.7934 5.99664 11.7934 5.91664 11.7934ZM11.2966 2.36671L6.0433 7.62004C5.91664 7.74671 5.76997 8.04004 5.7433 8.21337L5.45664 10.22C5.42997 10.4134 5.46997 10.5734 5.56997 10.6734C5.66997 10.7734 5.82997 10.8134 6.0233 10.7867L8.02997 10.5C8.2033 10.4734 8.5033 10.3267 8.6233 10.2L13.8766 4.94671C14.31 4.51337 14.5366 4.12671 14.57 3.76671C14.61 3.33337 14.3833 2.87337 13.8766 2.36004C12.81 1.29337 12.0766 1.59337 11.2966 2.36671Z" fill="#757575"/>
<path d="M13.4834 6.55343C13.4367 6.55343 13.39 6.54677 13.35 6.53343C11.5967 6.0401 10.2034 4.64677 9.71002 2.89343C9.63668 2.62677 9.79002 2.35343 10.0567 2.27343C10.3234 2.2001 10.5967 2.35343 10.67 2.6201C11.07 4.0401 12.1967 5.16677 13.6167 5.56677C13.8833 5.6401 14.0367 5.9201 13.9634 6.18677C13.9034 6.41343 13.7034 6.55343 13.4834 6.55343Z" fill="#757575"/>
</svg>
