<svg width="24" height="25" viewBox="0 0 24 25" fill="none" xmlns="http://www.w3.org/2000/svg">
<path d="M17 21.3372H7C3.35 21.3372 1.25 19.2372 1.25 15.5872V8.58716C1.25 4.93716 3.35 2.83716 7 2.83716H17C20.65 2.83716 22.75 4.93716 22.75 8.58716V15.5872C22.75 19.2372 20.65 21.3372 17 21.3372ZM7 4.33716C4.14 4.33716 2.75 5.72716 2.75 8.58716V15.5872C2.75 18.4472 4.14 19.8372 7 19.8372H17C19.86 19.8372 21.25 18.4472 21.25 15.5872V8.58716C21.25 5.72716 19.86 4.33716 17 4.33716H7Z" fill="#B0413E"/>
<path d="M11.9998 12.9571C11.1598 12.9571 10.3098 12.6971 9.65978 12.1671L6.52978 9.66713C6.20978 9.40713 6.14978 8.93713 6.40978 8.61713C6.66978 8.29713 7.13978 8.23713 7.45978 8.49713L10.5898 10.9971C11.3498 11.6071 12.6398 11.6071 13.3998 10.9971L16.5298 8.49713C16.8498 8.23713 17.3298 8.28713 17.5798 8.61713C17.8398 8.93713 17.7898 9.41713 17.4598 9.66713L14.3298 12.1671C13.6898 12.6971 12.8398 12.9571 11.9998 12.9571Z" fill="#B0413E"/>
</svg>
