<svg width="24" height="25" viewBox="0 0 24 25" fill="none" xmlns="http://www.w3.org/2000/svg">
<path d="M11.9999 16.5267C9.60992 16.5267 7.66992 14.5867 7.66992 12.1967C7.66992 9.8067 9.60992 7.8667 11.9999 7.8667C14.3899 7.8667 16.3299 9.8067 16.3299 12.1967C16.3299 14.5867 14.3899 16.5267 11.9999 16.5267ZM11.9999 9.3667C10.4399 9.3667 9.16992 10.6367 9.16992 12.1967C9.16992 13.7567 10.4399 15.0267 11.9999 15.0267C13.5599 15.0267 14.8299 13.7567 14.8299 12.1967C14.8299 10.6367 13.5599 9.3667 11.9999 9.3667Z" fill="#757575"/>
<path d="M12.0001 21.2168C8.24008 21.2168 4.69008 19.0168 2.25008 15.1968C1.19008 13.5468 1.19008 10.8568 2.25008 9.19676C4.70008 5.37676 8.25008 3.17676 12.0001 3.17676C15.7501 3.17676 19.3001 5.37676 21.7401 9.19676C22.8001 10.8468 22.8001 13.5368 21.7401 15.1968C19.3001 19.0168 15.7501 21.2168 12.0001 21.2168ZM12.0001 4.67676C8.77008 4.67676 5.68008 6.61676 3.52008 10.0068C2.77008 11.1768 2.77008 13.2168 3.52008 14.3868C5.68008 17.7768 8.77008 19.7168 12.0001 19.7168C15.2301 19.7168 18.3201 17.7768 20.4801 14.3868C21.2301 13.2168 21.2301 11.1768 20.4801 10.0068C18.3201 6.61676 15.2301 4.67676 12.0001 4.67676Z" fill="#757575"/>
</svg>
