<svg width="28" height="28" viewBox="0 0 28 28" fill="none" xmlns="http://www.w3.org/2000/svg">
<rect x="0.5" y="0.5" width="27" height="27" rx="3.5" fill="#D8DAE5"/>
<rect x="0.5" y="0.5" width="27" height="27" rx="3.5" stroke="#D8DAE5"/>
<path d="M11.4995 18.7917C11.1579 18.7917 10.8745 18.5084 10.8745 18.1667V14.6751L10.2745 15.2751C10.0329 15.5167 9.63288 15.5167 9.39121 15.2751C9.14954 15.0334 9.14954 14.6334 9.39121 14.3917L11.0579 12.7251C11.2329 12.5501 11.5079 12.4917 11.7412 12.5917C11.9745 12.6834 12.1245 12.9167 12.1245 13.1667V18.1667C12.1245 18.5084 11.8412 18.7917 11.4995 18.7917Z" fill="#757575"/>
<path d="M13.1665 15.4576C13.0082 15.4576 12.8499 15.3992 12.7249 15.2742L11.0582 13.6076C10.8165 13.3659 10.8165 12.9659 11.0582 12.7242C11.2999 12.4826 11.6999 12.4826 11.9415 12.7242L13.6082 14.3909C13.8499 14.6326 13.8499 15.0326 13.6082 15.2742C13.4832 15.3992 13.3249 15.4576 13.1665 15.4576Z" fill="#757575"/>
<path d="M16.5003 22.9577H11.5003C6.97533 22.9577 5.04199 21.0243 5.04199 16.4993V11.4993C5.04199 6.97435 6.97533 5.04102 11.5003 5.04102H15.667C16.0087 5.04102 16.292 5.32435 16.292 5.66602C16.292 6.00768 16.0087 6.29102 15.667 6.29102H11.5003C7.65866 6.29102 6.29199 7.65768 6.29199 11.4993V16.4993C6.29199 20.341 7.65866 21.7077 11.5003 21.7077H16.5003C20.342 21.7077 21.7087 20.341 21.7087 16.4993V12.3327C21.7087 11.991 21.992 11.7077 22.3337 11.7077C22.6753 11.7077 22.9587 11.991 22.9587 12.3327V16.4993C22.9587 21.0243 21.0253 22.9577 16.5003 22.9577Z" fill="#757575"/>
<path d="M22.3337 12.9584H19.0003C16.1503 12.9584 15.042 11.8501 15.042 9.00007V5.66674C15.042 5.41674 15.192 5.18341 15.4253 5.09174C15.6587 4.99174 15.9253 5.05007 16.1087 5.22507L22.7753 11.8917C22.9503 12.0667 23.0087 12.3417 22.9087 12.5751C22.8087 12.8084 22.5837 12.9584 22.3337 12.9584ZM16.292 7.17507V9.00007C16.292 11.1501 16.8503 11.7084 19.0003 11.7084H20.8253L16.292 7.17507Z" fill="#757575"/>
</svg>
