<svg width="32" height="32" viewBox="0 0 32 32" fill="none" xmlns="http://www.w3.org/2000/svg">
<path d="M15 23.9V8.1C15 6.6 14.36 6 12.77 6H8.73C7.14 6 6.5 6.6 6.5 8.1V23.9C6.5 25.4 7.14 26 8.73 26H12.77C14.36 26 15 25.4 15 23.9Z" fill="#757575"/>
<path opacity="0.4" d="M25.5 14.9V8.1C25.5 6.6 24.86 6 23.27 6H19.23C17.64 6 17 6.6 17 8.1V14.9C17 16.4 17.64 17 19.23 17H23.27C24.86 17 25.5 16.4 25.5 14.9Z" fill="#757575"/>
<path opacity="0.4" d="M25.5 23.9V21.1C25.5 19.6 24.86 19 23.27 19H19.23C17.64 19 17 19.6 17 21.1V23.9C17 25.4 17.64 26 19.23 26H23.27C24.86 26 25.5 25.4 25.5 23.9Z" fill="#757575"/>
</svg>
