<svg width="21" height="20" viewBox="0 0 21 20" fill="none" xmlns="http://www.w3.org/2000/svg">
<path d="M10.5 18.9583C6.13337 18.9583 2.58337 15.4083 2.58337 11.0417C2.58337 6.675 6.13337 3.125 10.5 3.125C14.8667 3.125 18.4167 6.675 18.4167 11.0417C18.4167 15.4083 14.8667 18.9583 10.5 18.9583ZM10.5 4.375C6.82504 4.375 3.83337 7.36667 3.83337 11.0417C3.83337 14.7167 6.82504 17.7083 10.5 17.7083C14.175 17.7083 17.1667 14.7167 17.1667 11.0417C17.1667 7.36667 14.175 4.375 10.5 4.375Z" fill="#757575"/>
<path d="M10.5 11.4587C10.1583 11.4587 9.875 11.1753 9.875 10.8337V6.66699C9.875 6.32533 10.1583 6.04199 10.5 6.04199C10.8417 6.04199 11.125 6.32533 11.125 6.66699V10.8337C11.125 11.1753 10.8417 11.4587 10.5 11.4587Z" fill="#757575"/>
<path d="M13 2.29199H8C7.65833 2.29199 7.375 2.00866 7.375 1.66699C7.375 1.32533 7.65833 1.04199 8 1.04199H13C13.3417 1.04199 13.625 1.32533 13.625 1.66699C13.625 2.00866 13.3417 2.29199 13 2.29199Z" fill="#757575"/>
</svg>
