<svg width="185" height="46" viewBox="0 0 185 46" fill="none" xmlns="http://www.w3.org/2000/svg">
<path d="M21.4254 36.7132C17.1049 41.6502 5.87809 44.3655 0.804749 45.1061C4.14334 46.2909 14.47 45.9289 19.2161 45.5998C29.2318 43.8225 34.1906 39.9223 35.418 38.1943C35.8108 36.812 36.2363 36.7955 36.4 36.9601C36.6455 37.2892 37.2346 38.0956 37.6274 38.688C38.1184 39.4286 44.7465 44.3655 51.8655 45.5998C57.5607 46.5872 67.6583 45.5175 71.9952 44.8592C66.3491 44.201 54.3203 41.7489 51.3745 37.2069C47.6923 31.5294 44.01 33.2573 43.2735 33.2573C42.6844 33.2573 42.5371 32.9282 42.5371 32.7636C42.7335 31.7762 45.0738 30.542 46.2194 30.0483L49.4107 33.2573C52.602 36.536 62.4735 35.3018 65.3671 27.0861C68.7057 17.6071 63.9761 10.6295 61.1939 8.32558C59.23 6.69929 54.1912 4.44565 48.6742 8.32558C41.5552 13.3322 42.8644 22.6428 44.01 27.0861C42.3734 27.7444 38.8057 29.2584 37.6274 30.0483C36.4491 30.8382 35.4999 30.3774 35.1726 30.0483L28.5445 27.0861C29.0355 25.8519 30.9993 13.3322 24.1258 8.88892C18.6269 5.3343 14.3064 7.16098 12.097 8.14838C11.3318 8.44433 10.3521 9.34656 9.3967 10.6698C8.97603 11.2525 8.56009 11.9168 8.16928 12.6469C7.92768 13.0983 7.69568 13.5748 7.4781 14.0728C5.51357 18.5688 4.72498 24.8109 8.66025 30.0483C15.3374 38.9349 23.7166 33.751 27.0716 30.0483L30.5084 33.2573C29.2809 32.3522 25.746 31.7762 21.4254 36.7132Z" fill="#9B0E53"/>
<path d="M7.38414 12.9362C2.87535 10.7911 -0.152999 5.94948 1.52221 1.01184C1.8631 -0.397915 3.90011 -0.311035 4.28768 1.12561C4.60209 2.59049 5.19242 4.09533 6.62968 4.77757C7.55203 5.48975 10.0841 7.11159 12.8335 7.9015C11.7066 8.72116 9.15264 10.9292 7.95188 13.204L7.38414 12.9362Z" fill="#9B0E53"/>
<ellipse cx="17.9886" cy="20.7377" rx="8.83744" ry="10.8614" fill="white"/>
<ellipse cx="55.3023" cy="20.7377" rx="8.83744" ry="10.8614" fill="white"/>
<ellipse cx="35.909" cy="33.327" rx="1.22742" ry="1.23425" fill="white"/>
<path d="M82.7837 29.5V16.4667H85.8V27.0423H92.3352V29.5H82.7837ZM97.9877 29.649C97.1561 29.649 96.4113 29.4876 95.7534 29.1649C95.108 28.8421 94.6053 28.3518 94.2453 27.694C93.8853 27.0237 93.7053 26.1734 93.7053 25.1431V19.483H96.6099V24.7149C96.6099 25.5466 96.7837 26.161 97.1312 26.5582C97.4912 26.943 97.9939 27.1354 98.6394 27.1354C99.0862 27.1354 99.4835 27.0423 99.831 26.8561C100.179 26.6575 100.452 26.3596 100.65 25.9624C100.849 25.5528 100.948 25.0438 100.948 24.4356V19.483H103.853V29.5H101.097V26.7444L101.6 27.545C101.265 28.2401 100.768 28.7677 100.11 29.1276C99.4648 29.4752 98.7573 29.649 97.9877 29.649ZM105.278 29.5L109.765 23.6164L109.709 25.2176L105.408 19.483H108.666L111.385 23.2254L110.156 23.2626L112.967 19.483H116.058L111.738 25.1618V23.5978L116.207 29.5H112.911L110.063 25.5155L111.273 25.6831L108.443 29.5H105.278ZM122.279 29.649C121.137 29.649 120.132 29.4255 119.263 28.9787C118.406 28.5318 117.742 27.9236 117.271 27.154C116.799 26.372 116.563 25.4845 116.563 24.4915C116.563 23.486 116.793 22.5985 117.252 21.829C117.724 21.047 118.363 20.4387 119.17 20.0043C119.976 19.5574 120.889 19.334 121.907 19.334C122.887 19.334 123.769 19.545 124.551 19.967C125.345 20.3767 125.972 20.9725 126.431 21.7545C126.89 22.5241 127.12 23.4488 127.12 24.5287C127.12 24.6404 127.114 24.7708 127.101 24.9197C127.089 25.0563 127.077 25.1866 127.064 25.3107H118.928V23.6164H125.537L124.42 24.1191C124.42 23.5978 124.315 23.1447 124.104 22.7599C123.893 22.3751 123.601 22.0772 123.229 21.8662C122.856 21.6428 122.422 21.531 121.925 21.531C121.429 21.531 120.988 21.6428 120.603 21.8662C120.231 22.0772 119.939 22.3813 119.728 22.7785C119.517 23.1633 119.412 23.6226 119.412 24.1563V24.6032C119.412 25.1493 119.53 25.6334 119.765 26.0555C120.014 26.4651 120.355 26.7816 120.79 27.005C121.236 27.2161 121.758 27.3216 122.354 27.3216C122.887 27.3216 123.353 27.2409 123.75 27.0795C124.16 26.9182 124.532 26.6761 124.867 26.3534L126.412 28.0291C125.953 28.5504 125.376 28.9538 124.681 29.2393C123.986 29.5124 123.185 29.649 122.279 29.649ZM129.259 29.5V16.4667H132.275V27.0423H138.81V29.5H129.259ZM145.003 29.649C143.935 29.649 142.986 29.4255 142.154 28.9787C141.335 28.5318 140.683 27.9236 140.199 27.154C139.727 26.372 139.491 25.4845 139.491 24.4915C139.491 23.486 139.727 22.5985 140.199 21.829C140.683 21.047 141.335 20.4387 142.154 20.0043C142.986 19.5574 143.935 19.334 145.003 19.334C146.058 19.334 147.001 19.5574 147.833 20.0043C148.664 20.4387 149.316 21.0407 149.788 21.8103C150.259 22.5799 150.495 23.4736 150.495 24.4915C150.495 25.4845 150.259 26.372 149.788 27.154C149.316 27.9236 148.664 28.5318 147.833 28.9787C147.001 29.4255 146.058 29.649 145.003 29.649ZM145.003 27.2657C145.487 27.2657 145.921 27.154 146.306 26.9306C146.691 26.7071 146.995 26.3906 147.218 25.981C147.442 25.559 147.553 25.0625 147.553 24.4915C147.553 23.9081 147.442 23.4116 147.218 23.002C146.995 22.5923 146.691 22.2758 146.306 22.0524C145.921 21.829 145.487 21.7172 145.003 21.7172C144.518 21.7172 144.084 21.829 143.699 22.0524C143.314 22.2758 143.004 22.5923 142.768 23.002C142.545 23.4116 142.433 23.9081 142.433 24.4915C142.433 25.0625 142.545 25.559 142.768 25.981C143.004 26.3906 143.314 26.7071 143.699 26.9306C144.084 27.154 144.518 27.2657 145.003 27.2657ZM157.203 29.649C156.136 29.649 155.186 29.4255 154.354 28.9787C153.535 28.5318 152.884 27.9236 152.399 27.154C151.928 26.372 151.692 25.4845 151.692 24.4915C151.692 23.486 151.928 22.5985 152.399 21.829C152.884 21.047 153.535 20.4387 154.354 20.0043C155.186 19.5574 156.136 19.334 157.203 19.334C158.258 19.334 159.202 19.5574 160.033 20.0043C160.865 20.4387 161.517 21.0407 161.988 21.8103C162.46 22.5799 162.696 23.4736 162.696 24.4915C162.696 25.4845 162.46 26.372 161.988 27.154C161.517 27.9236 160.865 28.5318 160.033 28.9787C159.202 29.4255 158.258 29.649 157.203 29.649ZM157.203 27.2657C157.687 27.2657 158.122 27.154 158.506 26.9306C158.891 26.7071 159.195 26.3906 159.419 25.981C159.642 25.559 159.754 25.0625 159.754 24.4915C159.754 23.9081 159.642 23.4116 159.419 23.002C159.195 22.5923 158.891 22.2758 158.506 22.0524C158.122 21.829 157.687 21.7172 157.203 21.7172C156.719 21.7172 156.285 21.829 155.9 22.0524C155.515 22.2758 155.205 22.5923 154.969 23.002C154.745 23.4116 154.634 23.9081 154.634 24.4915C154.634 25.0625 154.745 25.559 154.969 25.981C155.205 26.3906 155.515 26.7071 155.9 26.9306C156.285 27.154 156.719 27.2657 157.203 27.2657ZM167.039 27.4519L167.114 23.9143L171.787 19.483H175.25L170.763 24.0446L169.255 25.2735L167.039 27.4519ZM164.637 29.5V15.6847H167.542V29.5H164.637ZM172.103 29.5L168.715 25.2921L170.539 23.0392L175.622 29.5H172.103ZM179.971 29.649C179.115 29.649 178.29 29.5497 177.495 29.351C176.713 29.14 176.092 28.8794 175.633 28.569L176.601 26.4837C177.061 26.7692 177.601 27.005 178.221 27.1912C178.854 27.365 179.475 27.4519 180.083 27.4519C180.753 27.4519 181.225 27.3712 181.498 27.2099C181.784 27.0485 181.926 26.8251 181.926 26.5396C181.926 26.3037 181.815 26.13 181.591 26.0182C181.38 25.8941 181.095 25.801 180.735 25.739C180.375 25.6769 179.978 25.6148 179.543 25.5528C179.121 25.4907 178.693 25.41 178.259 25.3107C177.824 25.199 177.427 25.0376 177.067 24.8266C176.707 24.6156 176.415 24.3301 176.192 23.9701C175.981 23.6102 175.875 23.1447 175.875 22.5737C175.875 21.9407 176.055 21.3821 176.415 20.898C176.788 20.4139 177.321 20.0353 178.016 19.7622C178.712 19.4767 179.543 19.334 180.511 19.334C181.194 19.334 181.889 19.4085 182.597 19.5574C183.304 19.7064 183.894 19.9236 184.366 20.2091L183.397 22.2758C182.913 21.9903 182.423 21.7979 181.926 21.6986C181.442 21.5869 180.971 21.531 180.511 21.531C179.866 21.531 179.394 21.6179 179.096 21.7917C178.798 21.9655 178.65 22.1889 178.65 22.462C178.65 22.7103 178.755 22.8964 178.966 23.0206C179.189 23.1447 179.481 23.244 179.841 23.3185C180.201 23.393 180.592 23.4612 181.014 23.5233C181.449 23.5729 181.883 23.6536 182.317 23.7653C182.752 23.877 183.143 24.0384 183.49 24.2494C183.85 24.448 184.142 24.7273 184.366 25.0873C184.589 25.4348 184.701 25.8941 184.701 26.4651C184.701 27.0857 184.515 27.6381 184.142 28.1222C183.77 28.5939 183.23 28.9663 182.522 29.2393C181.827 29.5124 180.977 29.649 179.971 29.649Z" fill="#121212"/>
</svg>
