<svg width="25" height="25" viewBox="0 0 25 25" fill="none" xmlns="http://www.w3.org/2000/svg">
<path d="M18.5 11.5176C18.09 11.5176 17.75 11.1776 17.75 10.7676V8.76758C17.75 5.61758 16.86 3.51758 12.5 3.51758C8.14 3.51758 7.25 5.61758 7.25 8.76758V10.7676C7.25 11.1776 6.91 11.5176 6.5 11.5176C6.09 11.5176 5.75 11.1776 5.75 10.7676V8.76758C5.75 5.86758 6.45 2.01758 12.5 2.01758C18.55 2.01758 19.25 5.86758 19.25 8.76758V10.7676C19.25 11.1776 18.91 11.5176 18.5 11.5176Z" fill="#FF8C2E"/>
<path d="M12.5 20.0176C10.71 20.0176 9.25 18.5576 9.25 16.7676C9.25 14.9776 10.71 13.5176 12.5 13.5176C14.29 13.5176 15.75 14.9776 15.75 16.7676C15.75 18.5576 14.29 20.0176 12.5 20.0176ZM12.5 15.0176C11.54 15.0176 10.75 15.8076 10.75 16.7676C10.75 17.7276 11.54 18.5176 12.5 18.5176C13.46 18.5176 14.25 17.7276 14.25 16.7676C14.25 15.8076 13.46 15.0176 12.5 15.0176Z" fill="#FF8C2E"/>
<path d="M17.5 23.5176H7.5C3.09 23.5176 1.75 22.1776 1.75 17.7676V15.7676C1.75 11.3576 3.09 10.0176 7.5 10.0176H17.5C21.91 10.0176 23.25 11.3576 23.25 15.7676V17.7676C23.25 22.1776 21.91 23.5176 17.5 23.5176ZM7.5 11.5176C3.92 11.5176 3.25 12.1976 3.25 15.7676V17.7676C3.25 21.3376 3.92 22.0176 7.5 22.0176H17.5C21.08 22.0176 21.75 21.3376 21.75 17.7676V15.7676C21.75 12.1976 21.08 11.5176 17.5 11.5176H7.5Z" fill="#FF8C2E"/>
</svg>
