<svg width="25" height="25" viewBox="0 0 25 25" fill="none" xmlns="http://www.w3.org/2000/svg">
<path d="M9.97 15.8672C9.78 15.8672 9.59 15.7972 9.44 15.6472C8.62 14.8272 8.17 13.7372 8.17 12.5872C8.17 10.1972 10.11 8.25717 12.5 8.25717C13.65 8.25717 14.74 8.70717 15.56 9.52717C15.7 9.66717 15.78 9.85717 15.78 10.0572C15.78 10.2572 15.7 10.4472 15.56 10.5872L10.5 15.6472C10.35 15.7972 10.16 15.8672 9.97 15.8672ZM12.5 9.75717C10.94 9.75717 9.67 11.0272 9.67 12.5872C9.67 13.0872 9.8 13.5672 10.04 13.9872L13.9 10.1272C13.48 9.88717 13 9.75717 12.5 9.75717Z" fill="#757575"/>
<path d="M6.1 19.0972C5.93 19.0972 5.75 19.0372 5.61 18.9172C4.54 18.0072 3.58 16.8872 2.76 15.5872C1.7 13.9372 1.7 11.2472 2.76 9.58718C5.2 5.76718 8.75 3.56718 12.5 3.56718C14.7 3.56718 16.87 4.32718 18.77 5.75718C19.1 6.00718 19.17 6.47718 18.92 6.80718C18.67 7.13718 18.2 7.20718 17.87 6.95718C16.23 5.71718 14.37 5.06718 12.5 5.06718C9.27 5.06718 6.18 7.00718 4.02 10.3972C3.27 11.5672 3.27 13.6072 4.02 14.7772C4.77 15.9472 5.63 16.9572 6.58 17.7772C6.89 18.0472 6.93 18.5172 6.66 18.8372C6.52 19.0072 6.31 19.0972 6.1 19.0972Z" fill="#757575"/>
<path d="M12.5 21.6072C11.17 21.6072 9.87 21.3372 8.62 20.8072C8.24 20.6472 8.06 20.2072 8.22 19.8272C8.38 19.4472 8.82 19.2672 9.2 19.4272C10.26 19.8772 11.37 20.1072 12.49 20.1072C15.72 20.1072 18.81 18.1672 20.97 14.7772C21.72 13.6072 21.72 11.5672 20.97 10.3972C20.66 9.90717 20.32 9.43717 19.96 8.99717C19.7 8.67717 19.75 8.20717 20.07 7.93717C20.39 7.67717 20.86 7.71717 21.13 8.04717C21.52 8.52717 21.9 9.04717 22.24 9.58717C23.3 11.2372 23.3 13.9272 22.24 15.5872C19.8 19.4072 16.25 21.6072 12.5 21.6072Z" fill="#757575"/>
<path d="M13.19 16.8572C12.84 16.8572 12.52 16.6072 12.45 16.2472C12.37 15.8372 12.64 15.4472 13.05 15.3772C14.15 15.1772 15.07 14.2572 15.27 13.1572C15.35 12.7472 15.74 12.4872 16.15 12.5572C16.56 12.6372 16.83 13.0272 16.75 13.4372C16.43 15.1672 15.05 16.5372 13.33 16.8572C13.28 16.8472 13.24 16.8572 13.19 16.8572Z" fill="#757575"/>
<path d="M2.5 23.3372C2.31 23.3372 2.12 23.2672 1.97 23.1172C1.68 22.8272 1.68 22.3472 1.97 22.0572L9.44 14.5872C9.73 14.2972 10.21 14.2972 10.5 14.5872C10.79 14.8772 10.79 15.3572 10.5 15.6472L3.03 23.1172C2.88 23.2672 2.69 23.3372 2.5 23.3372Z" fill="#757575"/>
<path d="M15.03 10.8072C14.84 10.8072 14.65 10.7372 14.5 10.5872C14.21 10.2972 14.21 9.81718 14.5 9.52718L21.97 2.05718C22.26 1.76718 22.74 1.76718 23.03 2.05718C23.32 2.34718 23.32 2.82718 23.03 3.11718L15.56 10.5872C15.41 10.7372 15.22 10.8072 15.03 10.8072Z" fill="#757575"/>
</svg>
