<svg width="24" height="25" viewBox="0 0 24 25" fill="none" xmlns="http://www.w3.org/2000/svg">
<path d="M18 10.8372C17.59 10.8372 17.25 10.4972 17.25 10.0872V8.08716C17.25 4.93716 16.36 2.83716 12 2.83716C7.64 2.83716 6.75 4.93716 6.75 8.08716V10.0872C6.75 10.4972 6.41 10.8372 6 10.8372C5.59 10.8372 5.25 10.4972 5.25 10.0872V8.08716C5.25 5.18716 5.95 1.33716 12 1.33716C18.05 1.33716 18.75 5.18716 18.75 8.08716V10.0872C18.75 10.4972 18.41 10.8372 18 10.8372Z" fill="#B0413E"/>
<path d="M12 19.3372C10.21 19.3372 8.75 17.8772 8.75 16.0872C8.75 14.2972 10.21 12.8372 12 12.8372C13.79 12.8372 15.25 14.2972 15.25 16.0872C15.25 17.8772 13.79 19.3372 12 19.3372ZM12 14.3372C11.04 14.3372 10.25 15.1272 10.25 16.0872C10.25 17.0472 11.04 17.8372 12 17.8372C12.96 17.8372 13.75 17.0472 13.75 16.0872C13.75 15.1272 12.96 14.3372 12 14.3372Z" fill="#B0413E"/>
<path d="M17 22.8372H7C2.59 22.8372 1.25 21.4972 1.25 17.0872V15.0872C1.25 10.6772 2.59 9.33716 7 9.33716H17C21.41 9.33716 22.75 10.6772 22.75 15.0872V17.0872C22.75 21.4972 21.41 22.8372 17 22.8372ZM7 10.8372C3.42 10.8372 2.75 11.5172 2.75 15.0872V17.0872C2.75 20.6572 3.42 21.3372 7 21.3372H17C20.58 21.3372 21.25 20.6572 21.25 17.0872V15.0872C21.25 11.5172 20.58 10.8372 17 10.8372H7Z" fill="#B0413E"/>
</svg>
