<svg width="30" height="30" viewBox="0 0 30 30" fill="none" xmlns="http://www.w3.org/2000/svg">
<path fill-rule="evenodd" clip-rule="evenodd" d="M9.7625 2.5H20.2375C24.7875 2.5 27.5 5.2125 27.4875 9.7625V20.2375C27.4875 24.7875 24.775 27.5 20.225 27.5H9.7625C5.2125 27.5 2.5 24.7875 2.5 20.225V9.7625C2.5 5.2125 5.2125 2.5 9.7625 2.5ZM19.6404 20.9661L15 16.3257L10.3596 20.9661C9.99722 21.3285 9.39618 21.3285 9.03379 20.9661C8.67139 20.6037 8.67139 20.0027 9.03379 19.6403L13.6742 14.9999L9.03379 10.3595C8.67139 9.99712 8.67139 9.39608 9.03379 9.03369C9.39618 8.6713 9.99722 8.6713 10.3596 9.03369L15 13.6741L19.6404 9.03369C20.0028 8.6713 20.6038 8.6713 20.9662 9.03369C21.3286 9.39608 21.3286 9.99712 20.9662 10.3595L16.3258 14.9999L20.9662 19.6403C21.3286 20.0027 21.3286 20.6037 20.9662 20.9661C20.6038 21.3285 20.0028 21.3285 19.6404 20.9661Z" fill="#121212"/>
</svg>
