<svg width="36" height="36" viewBox="0 0 36 36" fill="none" xmlns="http://www.w3.org/2000/svg">
<g filter="url(#filter0_d_1967_28332)">
<g clip-path="url(#clip0_1967_28332)">
<rect x="8" y="4" width="20" height="20" rx="4" fill="white"/>
<g clip-path="url(#clip1_1967_28332)">
<rect width="20" height="20" transform="translate(8 4)" fill="#FFD7EB"/>
<path d="M19.7503 20.2702H16.2503C13.0828 20.2702 11.7295 18.9168 11.7295 15.7493V12.2493C11.7295 9.08185 13.0828 7.72852 16.2503 7.72852H17.417C17.6562 7.72852 17.8545 7.92685 17.8545 8.16602C17.8545 8.40518 17.6562 8.60352 17.417 8.60352H16.2503C13.5612 8.60352 12.6045 9.56018 12.6045 12.2493V15.7493C12.6045 18.4385 13.5612 19.3952 16.2503 19.3952H19.7503C22.4395 19.3952 23.3962 18.4385 23.3962 15.7493V14.5827C23.3962 14.3435 23.5945 14.1452 23.8337 14.1452C24.0728 14.1452 24.2712 14.3435 24.2712 14.5827V15.7493C24.2712 18.9168 22.9178 20.2702 19.7503 20.2702Z" fill="#9B0E53"/>
<path d="M15.9583 17.3193C15.6024 17.3193 15.2758 17.191 15.0366 16.9577C14.7508 16.6718 14.6283 16.2577 14.6924 15.8202L14.9433 14.0643C14.9899 13.726 15.2116 13.2885 15.4508 13.0493L20.0474 8.45266C21.2083 7.29182 22.3866 7.29182 23.5474 8.45266C24.1833 9.08849 24.4691 9.73599 24.4108 10.3835C24.3583 10.9085 24.0783 11.4218 23.5474 11.9468L18.9508 16.5435C18.7116 16.7827 18.2741 17.0043 17.9358 17.051L16.1799 17.3018C16.1041 17.3193 16.0283 17.3193 15.9583 17.3193ZM20.6658 9.07099L16.0691 13.6677C15.9583 13.7785 15.8299 14.0352 15.8066 14.1868L15.5558 15.9427C15.5324 16.1118 15.5674 16.2518 15.6549 16.3393C15.7424 16.4268 15.8824 16.4618 16.0516 16.4385L17.8074 16.1877C17.9591 16.1643 18.2216 16.036 18.3266 15.9252L22.9233 11.3285C23.3024 10.9493 23.5008 10.611 23.5299 10.296C23.5649 9.91682 23.3666 9.51432 22.9233 9.06516C21.9899 8.13182 21.3483 8.39432 20.6658 9.07099Z" fill="#9B0E53"/>
<path d="M22.5794 12.7337C22.5386 12.7337 22.4977 12.7278 22.4627 12.7162C20.9286 12.2845 19.7094 11.0653 19.2777 9.53117C19.2136 9.29784 19.3477 9.05867 19.5811 8.98867C19.8144 8.92451 20.0536 9.05867 20.1177 9.29201C20.4677 10.5345 21.4536 11.5203 22.6961 11.8703C22.9294 11.9345 23.0636 12.1795 22.9994 12.4128C22.9469 12.6112 22.7719 12.7337 22.5794 12.7337Z" fill="#9B0E53"/>
</g>
</g>
</g>
<defs>
<filter id="filter0_d_1967_28332" x="0" y="0" width="36" height="36" filterUnits="userSpaceOnUse" color-interpolation-filters="sRGB">
<feFlood flood-opacity="0" result="BackgroundImageFix"/>
<feColorMatrix in="SourceAlpha" type="matrix" values="0 0 0 0 0 0 0 0 0 0 0 0 0 0 0 0 0 0 127 0" result="hardAlpha"/>
<feOffset dy="4"/>
<feGaussianBlur stdDeviation="4"/>
<feColorMatrix type="matrix" values="0 0 0 0 0.0627451 0 0 0 0 0.0941176 0 0 0 0 0.25098 0 0 0 0.16 0"/>
<feBlend mode="normal" in2="BackgroundImageFix" result="effect1_dropShadow_1967_28332"/>
<feBlend mode="normal" in="SourceGraphic" in2="effect1_dropShadow_1967_28332" result="shape"/>
</filter>
<clipPath id="clip0_1967_28332">
<rect x="8" y="4" width="20" height="20" rx="4" fill="white"/>
</clipPath>
<clipPath id="clip1_1967_28332">
<rect width="20" height="20" fill="white" transform="translate(8 4)"/>
</clipPath>
</defs>
</svg>
