<svg width="300" height="297" viewBox="0 0 300 297" fill="none" xmlns="http://www.w3.org/2000/svg">
<path d="M83.4784 219.453C80.3265 223.229 75.0806 228.207 69.334 234.033L146.692 257.606C141.539 232.179 132.946 204.988 157.998 166.049C169.755 147.776 198.292 116.855 192.258 92.3922C185.383 64.522 162.085 72.5299 159.73 51.4075C156.049 18.3936 132.424 -7.80178 100.986 3.50556C69.9571 14.6653 62.192 71.6298 90.3833 139.571C105.082 190.601 99.9365 199.735 83.4784 219.453Z" fill="#93B730"/>
<mask id="mask0_95_737" style="mask-type:luminance" maskUnits="userSpaceOnUse" x="69" y="0" width="125" height="258">
<path d="M83.4784 219.453C80.3265 223.229 75.0806 228.207 69.334 234.033L146.692 257.606C141.539 232.179 132.946 204.988 157.998 166.049C169.755 147.776 198.292 116.855 192.258 92.3922C185.383 64.522 162.085 72.5299 159.73 51.4075C156.049 18.3936 132.424 -7.80178 100.986 3.50556C69.9571 14.6653 62.192 71.6298 90.3833 139.571C105.082 190.601 99.9365 199.735 83.4784 219.453Z" fill="white"/>
</mask>
<g mask="url(#mask0_95_737)">
<path d="M110.695 241.742C112.86 231.449 114.381 221.631 115.99 211.236L116.527 207.771C116.994 202.718 117.591 197.748 118.168 192.942C119.472 182.091 120.704 171.84 120.538 160.732C120.599 160.094 120.69 159.48 120.787 158.829C121.132 156.504 121.488 154.1 120.491 151.596L120.475 151.496C123.833 93.3959 115.251 33.6308 94.9678 -26.1386L95.4122 -26.289C115.709 33.5195 124.3 93.3275 120.947 151.471C121.966 154.076 121.586 156.636 121.251 158.897C121.156 159.543 121.065 160.152 121.006 160.752C121.174 171.865 119.94 182.13 118.634 192.999C118.057 197.801 117.46 202.768 116.993 207.829L116.454 211.308C114.843 221.709 113.322 231.533 111.154 241.839L110.695 241.742Z" fill="#FCFDFE"/>
<path d="M117.961 190.879C121.612 163.719 140.851 133.74 156.348 113.374C173.13 91.3179 189.259 75.4709 189.42 75.3137L189.748 75.6484C189.587 75.8058 173.479 91.6329 156.717 113.663C141.256 133.983 122.063 163.884 118.426 190.941L117.961 190.879Z" fill="#FCFDFE"/>
<path d="M117.831 70.3869C120.098 41.3501 129.208 11.4009 132.202 1.55948C132.774 -0.322989 133.153 -1.56659 133.182 -1.81499L133.648 -1.75948C133.615 -1.48154 133.318 -0.499415 132.651 1.696C129.661 11.5254 120.562 41.4375 118.299 70.4234L117.831 70.3869Z" fill="#FCFDFE"/>
<path d="M121.117 117.878C115.219 91.6582 67.8913 61.9572 67.4141 61.6602L67.6619 61.2624C68.141 61.5602 115.634 91.3664 121.574 117.775L121.117 117.878Z" fill="#FCFDFE"/>
</g>
<path d="M95.069 135.623C90.974 174.954 111.438 164.208 128.473 170.108C145.27 201.615 144.032 228.899 111.191 248.784L78.2004 239.878C65.8107 237.858 51.6352 232.362 54.3822 215.886C57.4889 197.252 63.306 185.862 43.1993 174.206C23.093 162.551 15.9452 144.703 26.7353 126.592C38.0904 107.534 20.069 77.9855 37.0988 66.3067C66.7722 45.9573 99.333 94.6674 95.069 135.623Z" fill="#C6CC40"/>
<mask id="mask1_95_737" style="mask-type:luminance" maskUnits="userSpaceOnUse" x="21" y="61" width="119" height="188">
<path d="M95.069 135.623C90.974 174.954 111.438 164.208 128.473 170.108C145.27 201.615 144.032 228.899 111.191 248.784L78.2004 239.878C65.8107 237.858 51.6352 232.362 54.3822 215.886C57.4889 197.252 63.306 185.862 43.1993 174.206C23.093 162.551 15.9452 144.703 26.7353 126.592C38.0904 107.534 20.069 77.9855 37.0988 66.3067C66.7722 45.9573 99.333 94.6674 95.069 135.623Z" fill="white"/>
</mask>
<g mask="url(#mask1_95_737)">
<path d="M95.2515 206.879C83.0118 189.936 72.8423 171.506 65.0253 152.1C57.1413 132.527 51.7564 112.221 49.0212 91.7467C47.4527 80.0064 46.7593 68.1498 46.9608 56.5063L47.4717 56.5154C47.2713 68.1331 47.9628 79.9639 49.5281 91.6793C52.2576 112.111 57.6312 132.375 65.4998 151.909C73.3012 171.277 83.4508 189.671 95.666 206.58L95.2515 206.879Z" fill="#FCFDFE"/>
<path d="M56.6145 224.268L56.4365 223.789C63.04 221.338 70.6823 219.715 79.1515 218.965C83.1871 218.607 87.1645 218.524 90.9733 218.716L90.9478 219.226C87.1624 219.035 83.2087 219.118 79.1969 219.474C70.7727 220.219 63.1751 221.833 56.6145 224.268Z" fill="#FCFDFE"/>
<path d="M70.2607 164.063C54.8679 145.302 17.7872 142.561 17.415 142.538L17.45 142.028C17.8257 142.055 55.123 144.807 70.6562 163.74L70.2607 164.063Z" fill="#FCFDFE"/>
<path d="M53.9559 117.863C51.8672 90.5336 75.5009 61.9674 75.7398 61.6822L76.1318 62.0098C75.8942 62.2938 52.3931 90.7037 54.4658 117.824L53.9559 117.863Z" fill="#FCFDFE"/>
</g>
<path d="M299.999 245.023L13.7549 242.669V249.634C13.7549 251.524 15.0034 253.132 16.6943 253.418L97.6357 267.132C98.5963 267.295 99.5704 267.338 100.54 267.261L296.889 251.624C298.642 251.485 299.999 249.872 299.999 247.93L299.999 245.023Z" fill="url(#paint0_linear_95_737)"/>
<path d="M196.123 233.733L16.7152 246.474C13.5048 246.702 10.8945 244.279 10.8945 241.062V112.177C10.8945 108.96 13.5048 106.352 16.7152 106.352H196.123C198.767 106.352 200.906 108.709 200.906 111.617V228.128C200.906 231.036 198.768 233.545 196.123 233.733Z" fill="url(#paint1_linear_95_737)"/>
<path d="M198.983 233.733L19.5756 246.474C16.3651 246.702 13.7549 244.279 13.7549 241.062V112.177C13.7549 108.96 16.3651 106.352 19.5756 106.352H198.983C201.628 106.352 203.766 108.709 203.766 111.617V228.128C203.766 231.036 201.628 233.545 198.983 233.733Z" fill="url(#paint2_linear_95_737)"/>
<path d="M197.341 118.148V220.926C197.341 223.317 195.577 225.373 193.393 225.519L159.965 227.732L38.9865 235.746L26.2937 236.588C23.6838 236.759 21.5596 234.769 21.5596 232.144V119.304C21.5596 116.679 23.6838 114.539 26.2937 114.529L89.6182 114.267L111.084 114.176L128.182 114.106L143.22 114.043L193.393 113.834C195.577 113.827 197.341 115.757 197.341 118.148Z" fill="url(#paint3_linear_95_737)"/>
<g opacity="0.3">
<path d="M180.655 185.592C183.628 185.089 185.823 182.262 185.557 179.274L184.652 169.089C184.387 166.101 181.763 164.076 178.79 164.572L173.053 165.521C171.816 160.889 170.104 156.512 167.966 152.425L172.85 148.599C175.296 146.683 175.886 143.228 174.168 140.879L168.305 132.868C166.583 130.515 163.197 130.156 160.744 132.072L155.602 136.083C152.29 132.952 148.632 130.198 144.698 127.859L147.419 121.772C148.688 118.934 147.503 115.751 144.771 114.661L143.22 114.044L128.183 114.107L128.179 114.11L125.381 120.347C120.916 119.408 116.272 118.92 111.507 118.934L111.084 114.176L89.6185 114.267C89.5485 114.707 89.5312 115.157 89.573 115.611L90.1669 122.306C85.4993 123.786 81.0272 125.723 76.7997 128.051L72.9358 122.826C71.1712 120.442 67.7019 120.075 65.1865 122.009L56.5884 128.613C54.0623 130.55 53.4474 134.062 55.2189 136.449L59.0131 141.563C55.5124 145.126 52.361 149.022 49.6078 153.176L43.7419 150.893C40.9363 149.8 37.5998 151.252 36.2897 154.139L31.8211 163.986C30.5074 166.879 31.7234 170.104 34.5392 171.19L40.1433 173.358C38.7283 178.101 37.7885 183.002 37.3763 187.99L31.4229 188.974C28.3275 189.487 26.0355 192.377 26.3081 195.428L27.2304 205.833C27.503 208.884 30.2315 210.933 33.3271 210.413L38.9485 209.467C40.098 214.322 41.7609 218.919 43.8851 223.202L39.4621 226.654C36.9221 228.633 36.3037 232.165 38.0856 234.542L38.9869 235.747L159.965 227.732C161.527 225.676 162.984 223.544 164.329 221.345L168.826 223.083C171.544 224.13 174.765 222.671 176.026 219.819L180.316 210.112C181.574 207.267 180.397 204.105 177.686 203.051L172.959 201.208C174.22 196.429 174.995 191.504 175.24 186.503L180.655 185.592ZM110.521 229.516C87.6023 233.478 67.2724 218.154 65.2389 195.267C63.2056 172.384 80.262 150.809 103.202 147.099C126.006 143.413 146.022 158.792 148.031 181.428C150.04 204.06 133.304 225.582 110.521 229.516Z" fill="url(#paint4_linear_95_737)"/>
</g>
<path d="M115.616 109.877C115.616 111.075 114.693 112.048 113.553 112.052C112.411 112.055 111.484 111.085 111.484 109.885C111.484 108.684 112.411 107.711 113.553 107.71C114.693 107.709 115.616 108.679 115.616 109.877Z" fill="white"/>
<path d="M206.134 233.155L13.7549 246.566L97.6356 260.779C98.5962 260.942 99.5703 260.985 100.54 260.908L299.999 245.023L209.194 233.246C208.178 233.115 207.154 233.084 206.134 233.155Z" fill="url(#paint5_linear_95_737)"/>
<path opacity="0.3" d="M41.8262 246.904L201.987 235.572L251.556 241.949L92.7743 254.062L41.8262 246.904Z" fill="url(#paint6_linear_95_737)"/>
<path d="M107.785 220.302C126.83 220.302 142.269 204.878 142.269 185.85C142.269 166.823 126.83 151.398 107.785 151.398C88.7399 151.398 73.3008 166.823 73.3008 185.85C73.3008 204.878 88.7399 220.302 107.785 220.302Z" fill="white"/>
<path d="M90.8211 193.706C90.4534 193.706 90.1052 193.487 89.9591 193.125C88.9838 190.712 88.4893 188.157 88.4893 185.533C88.4893 174.343 97.601 165.24 108.801 165.24C115.22 165.24 121.331 168.324 125.15 173.489C125.455 173.901 125.367 174.482 124.954 174.787C124.541 175.092 123.96 175.004 123.655 174.592C120.185 169.899 114.632 167.097 108.801 167.097C98.6259 167.097 90.3478 175.367 90.3478 185.533C90.3478 187.918 90.797 190.239 91.6826 192.43C91.8746 192.906 91.6446 193.447 91.1687 193.639C91.0548 193.685 90.937 193.706 90.8211 193.706Z" fill="url(#paint7_linear_95_737)"/>
<path d="M121.479 175.132C120.975 175.132 120.561 174.749 120.55 174.243C120.539 173.731 120.946 173.316 121.459 173.305L123.782 173.26L124.18 170.903C124.265 170.397 124.746 170.058 125.251 170.143C125.757 170.228 126.098 170.707 126.013 171.213L125.487 174.33C125.413 174.77 125.037 175.076 124.591 175.085L121.499 175.132C121.492 175.132 121.485 175.132 121.479 175.132Z" fill="url(#paint8_linear_95_737)"/>
<path d="M108.802 205.825C102.523 205.825 96.6956 202.992 92.8145 198.051C92.4977 197.648 92.568 197.064 92.9719 196.748C93.3757 196.431 93.9598 196.502 94.2766 196.905C97.803 201.394 103.097 203.969 108.802 203.969C118.977 203.969 127.255 195.698 127.255 185.533C127.255 183.447 126.909 181.4 126.227 179.45C126.058 178.966 126.313 178.436 126.798 178.267C127.282 178.098 127.812 178.353 127.982 178.837C128.733 180.985 129.113 183.237 129.113 185.533C129.113 196.722 120.002 205.825 108.802 205.825Z" fill="url(#paint9_linear_95_737)"/>
<path d="M92.4608 200.807C92.3996 200.807 92.3379 200.801 92.2758 200.788C91.7726 200.687 91.4472 200.197 91.5489 199.694L92.1613 196.656C92.2489 196.223 92.6304 195.902 93.0721 195.902C93.0756 195.902 93.079 195.902 93.0824 195.902L96.246 195.946C96.7593 195.952 97.1707 196.377 97.1651 196.89C97.1595 197.402 96.7343 197.82 96.2256 197.81L93.8309 197.785L93.3707 200.061C93.2815 200.502 92.894 200.807 92.4608 200.807Z" fill="url(#paint10_linear_95_737)"/>
<path d="M106.91 195.34C106.617 195.34 106.322 195.262 106.056 195.099L99.8444 191.295C99.0744 190.824 98.8327 189.817 99.3049 189.048C99.7773 188.279 100.784 188.038 101.554 188.509L106.576 191.585L117.866 178.411C118.454 177.726 119.486 177.645 120.172 178.232C120.858 178.819 120.938 179.851 120.351 180.536L108.153 194.769C107.833 195.143 107.375 195.34 106.91 195.34Z" fill="url(#paint11_linear_95_737)"/>
<path d="M66.5635 193.197C68.0733 192.219 66.6976 189.374 66.6163 183.263C66.5166 175.775 68.5074 174.379 66.9085 171.441C64.9533 167.849 60.0314 166.362 56.7705 166.292C56.0513 166.276 55.8831 165.884 49.8579 167.443C39.0027 170.252 36.2852 167.241 31.424 170.248C26.7275 173.154 28.784 176.337 24.2233 179.744C16.8308 185.268 9.05677 179.296 3.77329 183.917C-1.22423 188.287 -1.33927 199.422 3.91725 205.499C9.87632 212.388 20.6215 210.318 27.8236 208.952C29.3389 208.665 36.9925 207.059 44.9615 201.183C49.3698 197.932 52.3967 194.46 54.3225 191.902C54.7745 191.394 55.4797 190.779 56.4107 190.679C57.5283 190.56 58.4263 191.243 58.8589 191.543C61.1307 193.115 65.0802 194.158 66.5635 193.197Z" fill="url(#paint12_linear_95_737)"/>
<path d="M60.4974 189.093C62.4388 187.326 69.3667 190.732 73.958 195.252C79.352 200.562 78.9373 204.868 83.6445 211.465C85.9845 214.745 89.9966 219.16 97.1053 223.027C96.602 224.284 96.0989 225.541 95.5957 226.798C92.1587 227.004 85.4109 226.883 79.1158 222.776C74.7428 219.923 72.4928 216.143 68.1712 208.7C63.8341 201.229 58.0707 191.302 60.4974 189.093Z" fill="url(#paint13_linear_95_737)"/>
<path d="M104.253 290.095L98.8445 286.849H96.4038C96.4038 286.849 95.5723 289.941 95.6666 290.095C96.7541 291.876 101.817 293.23 104.977 293.342C105.501 293.361 106.233 293.363 106.423 292.983C106.743 292.34 105.312 290.991 104.253 290.095Z" fill="url(#paint14_linear_95_737)"/>
<path d="M98.7482 283.306C98.4006 285.316 98.8403 286.364 99.3143 286.951C99.648 287.364 99.9443 287.482 101.924 289.192C102.579 289.757 102.912 290.06 102.837 290.219C102.75 290.4 102.172 290.302 100.924 290.002C98.205 289.349 96.8385 289.009 96.5049 288.355C96.2028 287.763 96.4699 287.496 96.4523 285.883C96.4408 284.821 96.2246 283.966 96.0547 283.431C96.9526 283.389 97.8504 283.348 98.7482 283.306Z" fill="#D8DEE8"/>
<path d="M102.659 267.377C102.659 267.377 105.102 270.29 104.704 273.483C104.307 276.676 100.028 272.008 99.4314 270.43C98.8346 268.852 98.1377 266.605 98.1377 266.605C98.1377 266.605 101.138 264.74 102.659 267.377Z" fill="url(#paint15_linear_95_737)"/>
<path d="M101.726 262.82C101.726 262.82 101.063 266.213 102.327 268.004C102.957 268.896 103.806 269.653 103.557 270.379C103.389 270.866 102.754 271.215 102.215 271.16C101.185 271.054 100.613 269.476 100.21 268.362C99.6151 266.718 99.2832 263.198 99.2832 263.198L101.726 262.82Z" fill="#D8DEE8"/>
<path d="M99.7787 265.68C100.53 265.407 101.282 265.133 102.033 264.86C103.205 262.185 104.636 257.791 104.158 252.451C102.929 238.717 90.215 231.439 88.8026 230.661C85.3385 232.397 81.8298 234.847 81.7027 237.935C81.5433 241.811 86.8292 243.86 91.7981 249.529C94.7807 252.931 97.9677 258.001 99.7787 265.68Z" fill="url(#paint16_linear_95_737)"/>
<path d="M98.9682 284.877C101.451 275.187 100.817 267.281 100.101 262.726C99.018 255.841 96.8161 241.837 87.4576 236.615C85.414 235.475 82.4924 234.453 78.9317 231.283C75.9581 228.636 74.0681 225.851 72.9278 223.89C60.4119 220.222 48.8677 221.708 43.7736 228.414C43.185 229.189 41.7113 230.87 41.4263 233.348C40.7831 238.94 46.2826 245.672 52.4538 247.078C60.2967 248.865 64.8468 240.819 71.7955 243.496C73.7394 244.245 75.3872 246.1 78.6832 249.812C82.8761 254.533 85.2329 258.889 86.1247 260.632C88.78 265.823 90.7934 269.655 91.0871 274.62C91.1554 275.777 91.1964 278.115 92.5527 280.635C93.5938 282.57 95.005 283.861 96.055 284.658C97.0259 284.731 97.997 284.804 98.9682 284.877Z" fill="url(#paint17_linear_95_737)"/>
<path opacity="0.3" d="M41.4264 233.348C41.7114 230.87 43.1851 229.189 43.7736 228.414C48.8677 221.708 60.4119 220.222 72.9278 223.89C74.0682 225.851 75.9582 228.636 78.9316 231.283C82.4924 234.453 85.414 235.475 87.4576 236.615C93.1723 239.804 96.2158 246.266 97.9681 252.384C95.3682 248.356 93.1427 247.286 91.4205 247.267C88.9552 247.239 87.8538 249.345 84.9102 249.057C81.764 248.75 81.0447 246.151 78.4945 245.853C77.7312 245.763 76.7919 245.881 75.6638 246.481C74.1584 244.906 73.0363 243.974 71.7956 243.496C64.8469 240.819 60.2967 248.865 52.4538 247.078C46.2826 245.672 40.783 238.94 41.4264 233.348Z" fill="url(#paint18_linear_95_737)"/>
<path d="M92.4841 240.949C91.0675 240.874 88.886 240.83 86.2545 241.09C73.7662 242.323 70.3236 248.494 60.0023 250C57.5608 250.357 46.6899 251.943 41.9814 245.664C38.6011 241.157 39.1124 233.39 42.8099 230.335C44.3746 229.042 45.9238 229.078 55.9453 229.169C59.7193 229.203 63.4934 229.215 67.2674 229.263C83.2425 229.466 86.2976 228.361 89.2043 231.001C90.5601 232.232 92.5429 234.877 92.4841 240.949Z" fill="url(#paint19_linear_95_737)"/>
<path d="M58.7589 189.741C58.7589 189.741 40.1173 184.309 38.1835 197.944C36.33 211.012 45.8253 217.009 41.5049 230.246C41.004 231.78 76.9907 224.752 76.9907 224.752C72.1869 218.765 71.0706 213.825 70.9559 210.391C70.83 206.625 71.9163 204.914 70.9559 200.463C70.9559 200.463 69.8841 195.497 66.0177 191.232C65.4627 190.62 64.801 189.982 58.7589 189.741Z" fill="url(#paint20_linear_95_737)"/>
<path d="M54.7098 181.57C54.8806 182.367 55.7498 186.644 53.9982 187.744C53.6185 187.983 52.889 188.119 51.4296 188.393C50.4743 188.572 49.6728 188.681 49.1074 188.749C49.1891 189.466 49.4309 190.634 50.2594 191.695C52.5819 194.672 57.2386 193.902 57.9027 193.781C60.245 193.355 62.5499 192.632 63.1067 192.19C63.9542 191.517 64.6206 191.012 65.0148 190.499C64.1083 190.062 62.2783 188.908 61.0501 188.53C60.1323 188.248 59.2708 188.047 58.487 187.902C58.3582 187.076 58.2293 186.25 58.1004 185.423C56.9702 184.139 55.84 182.854 54.7098 181.57Z" fill="white"/>
<path d="M54.6277 183.701C54.6277 183.701 54.9442 186.836 57.9941 187.388C60.7248 187.883 62.7804 181.29 61.3828 179.585C60.9167 179.016 59.7659 178.475 58.7682 178.503C58.0666 178.524 55.6966 179.425 55.3658 181.795C54.8938 181.298 54.3057 181.155 54.0157 181.363C53.6479 181.627 53.8449 182.394 53.8896 182.568C54.0444 183.17 54.438 183.544 54.6277 183.701Z" fill="white"/>
<path d="M80.7897 226.283L52.2581 227.67C51.8654 227.689 51.5072 227.9 51.2994 228.233L50.5099 229.499C50.117 230.129 50.5892 230.942 51.3319 230.913L81.5537 229.763L80.7897 226.283Z" fill="url(#paint21_linear_95_737)"/>
<path d="M110.465 210.41L80.9888 210.98C80.1166 210.997 79.3179 211.472 78.887 212.23L68.6797 230.171L99.8103 228.932C100.665 228.898 101.444 228.436 101.884 227.703L111.341 211.918C111.743 211.247 111.249 210.395 110.465 210.41Z" fill="url(#paint22_linear_95_737)"/>
<path opacity="0.3" d="M78.8868 212.23C79.3178 211.472 80.1165 210.997 80.9887 210.98L81.6347 210.968C81.7309 211.919 82.0229 212.788 82.6052 213.49C84.4227 215.682 87.4425 214.33 89.6932 216.65C92.1656 219.198 89.8816 222.231 92.0922 224.602C94.4189 227.098 98.1812 225.066 102.506 226.663L101.884 227.703C101.444 228.436 100.665 228.898 99.8103 228.932L68.6797 230.172L78.8868 212.23Z" fill="url(#paint23_linear_95_737)"/>
<path d="M54.5834 225.331C54.9547 224.351 55.3261 223.371 55.6976 222.391C51.5931 221.267 45.9168 219.606 40.0943 217.527C39.1824 217.202 38.0992 216.799 37.7443 215.84C36.7487 213.151 43.078 210.364 45.5384 204.493C47.8139 199.062 46.5615 191.526 43.9205 190.636C38.4251 188.783 18.9374 213.018 25.8975 223.234C29.832 229.009 41.9618 229.928 54.5834 225.331Z" fill="url(#paint24_linear_95_737)"/>
<path d="M55.6977 222.391C58.2743 221.024 61.3587 222.426 61.5574 222.519C62.1235 222.786 62.9476 223.262 63.7801 224.112C63.8742 224.24 64.9919 225.787 64.5847 226.283C64.2584 226.68 62.9944 226.351 61.4752 225.407C60.8385 225.318 59.8905 225.236 58.7549 225.34C56.6694 225.533 55.7141 226.191 54.957 225.623C54.4026 225.207 54.2137 224.327 54.4132 223.674C54.6277 222.971 55.2615 222.623 55.6977 222.391Z" fill="white"/>
<path d="M192.203 144.093C199.535 140.515 213.837 153.473 220.797 165.886C223.571 170.832 226.827 176.639 226.028 183.543C224.612 195.782 211.022 206.519 192.316 210.103C191.79 208.224 191.263 206.345 190.736 204.466C192.782 202.338 195.84 199.265 199.749 195.745C205.754 190.338 206.987 189.977 207.275 188.27C208.219 182.678 193.825 177.997 188.705 168.165C184.303 159.712 186.569 146.841 192.203 144.093Z" fill="url(#paint25_linear_95_737)"/>
<path d="M201.836 242.466C201.836 242.466 200.632 245.433 201.23 246.595C201.859 247.815 203.676 247.452 208.791 247.644C214.03 247.841 215.214 248.261 215.424 247.735C215.842 246.684 211.772 243.348 207.011 242.466C204.913 242.077 203.096 242.242 201.836 242.466Z" fill="url(#paint26_linear_95_737)"/>
<path d="M202.914 238.03L205.762 242.466C205.762 242.466 204.449 243.76 202.219 243.278L199.086 239.076L202.914 238.03Z" fill="url(#paint27_linear_95_737)"/>
<path opacity="0.3" d="M188.705 168.165C184.303 159.712 186.57 146.841 192.202 144.092C193.68 143.372 195.442 143.332 197.368 143.813C196.354 146.739 196.555 148.854 197.055 150.353C199.287 157.035 208.936 156.275 211.951 163.881C213.856 168.689 210.826 171.075 213.53 174.929C216.333 178.923 220.916 178.253 222.332 182.144C223.387 185.043 221.307 186.692 222.106 189.134C222.329 189.814 222.768 190.498 223.507 191.147C218.549 200.054 207.014 207.286 192.316 210.103C191.79 208.224 191.263 206.345 190.736 204.466C192.782 202.338 195.84 199.265 199.749 195.745C205.754 190.338 206.987 189.977 207.275 188.27C208.218 182.678 193.825 177.997 188.705 168.165Z" fill="url(#paint28_linear_95_737)"/>
<path d="M197.205 146.745C196.888 159.556 197.066 173.408 197.995 188.155C199.18 206.984 201.402 224.279 204.117 239.82C202.911 240.203 201.705 240.587 200.498 240.97C188.092 228.894 184.38 218.27 183.363 210.629C182.645 205.227 183.732 204.763 182.762 198.002C180.916 185.127 176.099 180.718 172.716 168.665C171.447 164.141 170.033 157.307 170.123 148.399C179.151 147.847 188.178 147.296 197.205 146.745Z" fill="url(#paint29_linear_95_737)"/>
<path d="M206.093 123.798C205.868 123.849 204.889 124.174 204.503 128.256C203.57 138.099 208.7 142.084 207.437 147.421C206.224 152.545 200.041 155.031 193.677 157.589C189.424 159.299 176.27 164.587 168.62 158.641C165.4 156.138 165.048 153.117 162.751 142.01C156.916 113.791 154.655 111.367 157.109 105.258C161.324 94.7677 172.609 90.4234 174.487 89.7006C194.508 81.9934 218.15 96.1585 227.493 112.432C228.723 114.575 236.069 127.372 230.908 133.442C227.785 137.114 220.609 137.707 215.873 135.203C209.545 131.857 208.201 123.315 206.093 123.798Z" fill="url(#paint30_linear_95_737)"/>
<path d="M227.974 131.263C228.037 131.263 228.1 131.249 228.161 131.222C228.388 131.118 228.488 130.851 228.385 130.624C228.213 130.249 224.08 121.388 214.53 117.891C214.296 117.805 214.037 117.925 213.952 118.16C213.866 118.393 213.986 118.652 214.22 118.738C223.406 122.101 227.523 130.91 227.563 130.999C227.639 131.165 227.803 131.263 227.974 131.263Z" fill="url(#paint31_linear_95_737)"/>
<path d="M190.481 121.141C190.534 120.734 190.947 117.923 193.297 117.022C194.466 116.574 196.52 116.443 197.32 117.725C197.822 118.53 197.778 119.81 197.118 120.438C196.285 121.232 195.197 120.288 193.699 120.94C191.898 121.724 191.606 123.898 190.984 123.753C190.495 123.64 190.341 122.217 190.481 121.141Z" fill="url(#paint32_linear_95_737)"/>
<path opacity="0.3" d="M170.199 101.651C171.462 105.087 167.671 108.065 169.296 111.797C171.625 117.145 180.882 114.4 184.191 119.688C188.113 125.956 179.132 136.237 182.837 139.755C184.526 141.359 186.476 139.305 191.413 140.432C198.443 142.036 200.556 147.587 203.826 146.745C204.854 146.481 206.101 145.548 207.15 142.676C207.607 144.27 207.824 145.782 207.437 147.422C206.224 152.545 200.041 155.031 193.677 157.589C189.424 159.299 176.27 164.587 168.62 158.641C165.4 156.138 165.048 153.117 162.751 142.01C156.916 113.792 154.655 111.367 157.109 105.258C158.447 101.927 160.499 99.2183 162.736 97.0458C167.557 98.1097 169.537 99.8516 170.199 101.651Z" fill="url(#paint33_linear_95_737)"/>
<path d="M190.334 118.493C189.794 118.983 183.737 125.482 177.148 123.837C171.41 122.403 167.887 116.83 167.27 112.14C165.802 100.986 180.347 91.6243 178.554 89.3671C177.5 88.0396 171.884 90.5032 167.947 92.9747C164.719 95.0013 151.192 103.493 151.555 117.732C151.592 119.177 151.825 128.333 157.891 132.903C166.083 139.075 178.743 138.91 192.268 123.991C191.519 121.861 191.083 120.623 190.334 118.493Z" fill="url(#paint34_linear_95_737)"/>
<path d="M219.905 104.827L213.384 125.639C213.17 126.322 212.549 126.795 211.833 126.82L203.306 128.059C202.206 128.098 201.364 127.091 201.598 126.017L207.348 104.714C207.512 103.958 208.17 103.411 208.944 103.387L218.243 102.639C219.403 102.602 220.252 103.72 219.905 104.827Z" fill="url(#paint35_linear_95_737)"/>
<path d="M219.592 105.511L213.263 125.71C213.055 126.373 212.452 126.832 211.758 126.857L204.264 128.059C203.197 128.097 202.38 127.12 202.606 126.077L208.223 105.39C208.382 104.656 209.021 104.125 209.772 104.101L217.978 103.387C219.104 103.352 219.929 104.437 219.592 105.511Z" fill="url(#paint36_linear_95_737)"/>
<path opacity="0.3" d="M202.606 126.077L207.972 106.312C208.371 106.509 208.946 106.812 209.486 107.275C211.6 109.086 212.81 112.364 212.112 114.986C211.223 118.33 207.808 118.433 207.335 121.215C206.966 123.393 208.734 125.698 210.194 127.107L204.264 128.059C203.197 128.096 202.38 127.119 202.606 126.077Z" fill="url(#paint37_linear_95_737)"/>
<path d="M195.125 87.6954C194.752 89.0035 195.54 90.363 196.863 90.6821C198.466 91.0685 200.419 91.6029 201.263 92.085C202.811 92.9701 196.547 91.9477 190.786 91.8126C187.19 91.7283 184.502 91.325 182.99 91.0338C182.584 90.9556 182.553 90.3896 182.946 90.262C184.386 89.794 186.726 89.105 188.704 88.8568C191.153 88.5492 193.779 83.1502 193.779 83.1502L195.878 85.055L195.125 87.6954Z" fill="url(#paint38_linear_95_737)"/>
<path d="M215.97 119.656L215.572 119.005C215.22 117.654 213.92 116.772 212.533 116.943L210.44 117.201C209.786 117.282 209.343 117.904 209.477 118.549C209.672 119.482 210.173 120.599 211.459 120.512C213.643 120.365 215.039 123.545 215.039 123.545L215.877 122.365C216.448 121.562 216.484 120.496 215.97 119.656Z" fill="url(#paint39_linear_95_737)"/>
<path d="M199.802 84.9284C201.612 84.6605 203.639 83.1404 203.6 81.8844C203.546 80.158 199.596 79.2126 197.601 78.7353C195.601 78.2565 194.752 78.4297 194.179 78.8653C193.594 79.3102 193.21 80.1069 193.084 80.7938C193.016 81.1682 193.012 81.6833 193.076 82.7098C193.133 83.6207 193.116 83.5807 193.14 83.8498C193.197 84.4962 193.373 85.6329 194.004 87.2088C194.267 86.9211 194.615 86.5773 195.054 86.2385C195.223 86.1082 195.891 85.6035 196.651 85.2977C197.956 84.7727 198.703 85.091 199.802 84.9284Z" fill="url(#paint40_linear_95_737)"/>
<path d="M193.041 85.4524C193.041 85.4524 193.158 87.9715 195.534 89.0773C197.662 90.0675 200.485 85.6301 199.708 83.9357C199.449 83.3705 198.647 82.7556 197.824 82.5653C197.339 82.4527 197.1 82.5497 196.31 82.3506C195.582 82.1668 195.44 81.9975 195.159 82.0541C194.807 82.1247 194.359 82.5249 194.023 84.0903C193.849 83.4795 193.462 83.0699 193.042 83.0448C192.975 83.0408 192.782 83.0595 192.623 83.1614C192.048 83.5299 192.16 84.464 193.041 85.4524Z" fill="url(#paint41_linear_95_737)"/>
<path d="M268.608 95.3195L248.839 99.2614L245.838 99.8577C245.838 99.8577 245.539 99.2042 244.975 97.9828C244.71 97.3619 244.329 96.6225 243.892 95.7482C243.471 94.8619 242.923 93.8815 242.318 92.7704C241.083 90.5728 239.513 87.9217 237.46 85.0335C235.412 82.1495 232.926 78.9961 229.904 75.8058C226.891 72.6155 223.358 69.3842 219.327 66.3041C217.282 64.801 215.164 63.2692 212.879 61.8804C212.597 61.7007 212.31 61.5208 212.028 61.3411C211.738 61.1696 211.444 61.0022 211.154 60.8304C210.569 60.4915 209.98 60.1483 209.391 59.801C208.181 59.1679 206.979 58.4734 205.72 57.877C200.727 55.373 195.281 53.3102 189.561 51.762C186.699 50.9981 183.763 50.3936 180.79 49.8911L178.546 49.5765C178.174 49.5275 177.789 49.4623 177.429 49.4214L176.338 49.3069L175.246 49.1885C174.882 49.1517 174.535 49.1069 174.109 49.0863L171.673 48.9271L171.366 48.9066L171.215 48.7331L171.174 48.5677H171.137L170.605 48.7086L169.461 48.7525C168.7 48.728 167.936 48.7314 167.175 48.7477L164.889 48.772C164.125 48.8047 163.364 48.8433 162.604 48.8719C159.562 49.0191 156.528 49.2896 153.539 49.7551L152.415 49.9212L151.302 50.1225C150.562 50.2574 149.818 50.3846 149.082 50.5316C147.614 50.8544 146.147 51.1489 144.707 51.541C143.26 51.884 141.845 52.3254 140.426 52.7339C139.723 52.9545 139.028 53.1915 138.333 53.4203C137.985 53.5346 137.638 53.6492 137.29 53.7634C136.947 53.8901 136.608 54.0168 136.268 54.1435C133.521 55.1114 130.896 56.2635 128.344 57.452C127.081 58.0729 125.825 58.6735 124.619 59.3393C123.393 59.9724 122.223 60.6711 121.054 61.3409C116.421 64.0861 112.284 67.121 108.661 70.1643C105.034 73.2158 101.947 76.308 99.3671 79.2001C96.7873 82.0923 94.7305 84.7882 93.095 87.0553C92.2936 88.1991 91.5657 89.2202 90.9934 90.1272C90.4088 91.034 89.8977 91.7939 89.5134 92.4597C89.309 92.8027 89.1289 93.101 88.9736 93.3585C88.6466 93.9016 87.9923 94.1386 87.4036 93.9507C87.3217 93.9262 87.244 93.8935 87.1664 93.8528L87.0682 93.7996C86.4306 93.4565 86.1728 92.6722 86.4877 92.0186C86.6145 91.749 86.7658 91.4346 86.9375 91.075C87.2523 90.3888 87.7103 89.5349 88.2378 88.5343C88.7489 87.513 89.3989 86.3978 90.1145 85.1355C91.5783 82.6356 93.451 79.6372 95.855 76.3611C98.2634 73.0932 101.195 69.5395 104.724 65.9488C108.252 62.3663 112.349 58.7144 117.047 55.2954C118.233 54.4538 119.423 53.5839 120.682 52.779C121.917 51.9376 123.213 51.1532 124.521 50.3568C127.159 48.8044 129.906 47.2808 132.809 45.9328C133.169 45.7613 133.529 45.5855 133.893 45.414C134.261 45.2507 134.629 45.0871 134.997 44.9279C135.737 44.6052 136.477 44.2701 137.225 43.9556C138.738 43.3593 140.255 42.7262 141.821 42.1952C143.37 41.615 144.961 41.1289 146.559 40.6182C147.361 40.3773 148.171 40.1607 148.984 39.9279L150.203 39.593L151.433 39.2907C154.721 38.4533 158.09 37.8325 161.496 37.3421C162.35 37.2278 163.205 37.1175 164.059 37.0032L166.635 36.7499C167.498 36.6559 168.361 36.6109 169.223 36.5578L170.524 36.4762L171.17 36.4353L171.897 36.419L174.338 36.3495C174.727 36.329 175.189 36.3372 175.635 36.3413L176.98 36.3536L178.325 36.3699C178.774 36.3741 179.196 36.4067 179.633 36.423C180.5 36.4639 181.371 36.5007 182.238 36.5414C185.701 36.7906 189.152 37.1705 192.558 37.7424C199.357 38.8985 205.973 40.7121 212.155 43.1061C213.713 43.6737 215.213 44.3519 216.722 44.9768C217.462 45.3159 218.198 45.6549 218.934 45.994C219.298 46.1655 219.666 46.3371 220.03 46.5047C220.39 46.6843 220.746 46.8683 221.105 47.048C223.988 48.4489 226.699 50.0299 229.324 51.6069C234.521 54.8421 239.173 58.351 243.221 61.8886C247.273 65.4259 250.704 69.0084 253.578 72.3336C256.453 75.6588 258.726 78.7632 260.533 81.3695C261.424 82.6807 262.222 83.8531 262.86 84.9068C263.514 85.9526 264.078 86.8432 264.495 87.5866C265.35 89.0616 268.608 95.3195 268.608 95.3195Z" fill="url(#paint42_linear_95_737)"/>
<path opacity="0.3" d="M248.876 98.3831C248.888 98.6813 248.876 98.9755 248.839 99.2613L245.838 99.8577C245.838 99.8577 245.539 99.2041 244.975 97.9827C244.709 97.3619 244.329 96.6224 243.892 95.7482C243.471 94.8618 242.923 93.8814 242.317 92.7703C241.083 90.5727 239.513 87.9216 237.46 85.0334C235.411 82.1494 232.926 78.996 229.904 75.8057C226.891 72.6154 223.358 69.3841 219.326 66.3041C217.282 64.8009 215.164 63.2692 212.879 61.8803C212.596 61.7006 212.31 61.5207 212.028 61.341C211.738 61.1695 211.444 61.0021 211.153 60.8304C210.568 60.4915 209.98 60.1482 209.391 59.8009C208.181 59.1678 206.979 58.4734 205.719 57.8769C200.727 55.3729 195.281 53.3101 189.561 51.7619C186.698 50.998 183.763 50.3935 180.79 49.891L178.546 49.5764C178.173 49.5274 177.789 49.4622 177.429 49.4213L176.337 49.3068L175.246 49.1884C174.882 49.1516 174.534 49.1068 174.109 49.0862L171.672 48.927L171.366 48.9065L171.214 48.733L171.174 48.5676H171.137L170.605 48.7085L169.46 48.7524C168.7 48.7279 167.935 48.7313 167.175 48.7476L164.889 48.772C164.124 48.8047 163.364 48.8433 162.604 48.8718C159.562 49.019 156.528 49.2896 153.539 49.7551L152.414 49.9211L151.302 50.1224C150.562 50.2573 149.818 50.3845 149.082 50.5315C147.614 50.8543 146.146 51.1488 144.707 51.5409C143.26 51.884 141.845 52.3253 140.426 52.7338C139.723 52.9544 139.028 53.1915 138.333 53.4202C137.985 53.5345 137.638 53.6491 137.29 53.7634C136.947 53.8901 136.607 54.0167 136.268 54.1434C133.52 55.1113 130.895 56.2634 128.344 57.452C127.081 58.0728 125.825 58.6735 124.619 59.3392C123.392 59.9723 122.223 60.6711 121.054 61.3408C116.421 64.086 112.283 67.1209 108.661 70.1642C105.034 73.2157 101.947 76.308 99.3669 79.2C96.7871 82.0922 94.7303 84.7881 93.0948 87.0553C92.2933 88.199 91.5655 89.2202 90.9931 90.1272C90.4086 91.0339 89.8974 91.7938 89.5131 92.4596C89.3087 92.8027 89.1286 93.1009 88.9733 93.3584C88.6463 93.9016 87.992 94.1385 87.4033 93.9506C92.6777 85.4008 117.529 48.7921 158.355 45.8918C204.603 42.6078 247.939 73.0649 248.876 98.3831Z" fill="url(#paint43_linear_95_737)"/>
<path d="M276.841 95.2913L261.96 137.803L230.238 91.5751L276.841 95.2913Z" fill="url(#paint44_linear_95_737)"/>
<path opacity="0.3" d="M276.841 95.2913L261.96 137.803L230.238 91.5751L276.841 95.2913Z" fill="url(#paint45_linear_95_737)"/>
<path d="M279.703 95.2912L262.267 137.802L233.101 91.8032L279.703 95.2912Z" fill="url(#paint46_linear_95_737)"/>
<path d="M290.924 152.326V259.911C290.924 261.52 289.616 261.977 288.13 262.155L235.462 269.509L234.637 269.608C232.942 269.812 231.55 268.566 231.55 266.839V151.328C231.55 149.6 232.942 148.216 234.637 148.25L235.756 148.273L288.593 151.773C290.077 151.801 290.924 150.717 290.924 152.326Z" fill="url(#paint47_linear_95_737)"/>
<path d="M292.504 152.301V259.778C292.504 261.385 291.295 262.846 289.813 263.024L236.332 269.461C234.64 269.664 233.251 268.42 233.251 266.694V151.303C233.251 149.577 234.64 148.194 236.332 148.229L289.813 149.323C291.295 149.354 292.504 150.694 292.504 152.301Z" fill="url(#paint48_linear_95_737)"/>
<path d="M290.835 158.242V257.912C290.835 259.415 289.702 260.777 288.314 260.94L238.03 266.851C236.459 267.036 235.169 265.873 235.169 264.267V157.717C235.169 156.111 236.459 154.813 238.03 154.834L288.314 155.479C289.702 155.496 290.835 156.74 290.835 158.242Z" fill="url(#paint49_linear_95_737)"/>
<path d="M284.8 206.379C284.8 217.283 276.284 226.704 265.602 227.435C254.719 228.179 245.746 219.65 245.746 208.372C245.746 197.094 254.719 187.649 265.602 187.282C276.284 186.922 284.8 195.475 284.8 206.379Z" fill="white"/>
<path d="M255.918 212.469C255.706 212.481 255.506 212.363 255.422 212.155C254.859 210.766 254.574 209.279 254.574 207.735C254.574 201.152 259.807 195.584 266.176 195.325C269.795 195.178 273.219 196.824 275.349 199.718C275.518 199.949 275.47 200.287 275.24 200.473C275.01 200.66 274.686 200.624 274.516 200.393C272.579 197.763 269.465 196.27 266.176 196.407C260.393 196.647 255.645 201.705 255.645 207.68C255.645 209.082 255.904 210.432 256.414 211.692C256.524 211.966 256.392 212.291 256.118 212.418C256.052 212.449 255.985 212.465 255.918 212.469Z" fill="url(#paint50_linear_95_737)"/>
<path d="M273.302 200.761C273.021 200.774 272.789 200.563 272.783 200.27C272.777 199.973 273.005 199.723 273.291 199.704L274.588 199.62L274.809 198.247C274.857 197.953 275.125 197.745 275.406 197.782C275.687 197.819 275.877 198.088 275.83 198.382L275.537 200.196C275.496 200.452 275.287 200.638 275.038 200.655L273.314 200.761C273.31 200.761 273.306 200.761 273.302 200.761Z" fill="url(#paint51_linear_95_737)"/>
<path d="M266.176 218.963C262.614 219.181 259.289 217.724 257.063 214.956C256.881 214.73 256.922 214.385 257.154 214.186C257.385 213.987 257.721 214.01 257.902 214.236C259.922 216.75 262.941 218.077 266.176 217.882C271.901 217.538 276.518 212.486 276.518 206.618C276.518 205.414 276.326 204.242 275.947 203.134C275.853 202.859 275.995 202.547 276.264 202.436C276.533 202.326 276.828 202.459 276.922 202.734C277.338 203.953 277.55 205.242 277.55 206.566C277.55 213.019 272.475 218.579 266.176 218.963Z" fill="url(#paint52_linear_95_737)"/>
<path d="M256.86 216.586C256.825 216.588 256.79 216.587 256.754 216.581C256.465 216.539 256.277 216.262 256.336 215.963L256.688 214.159C256.738 213.901 256.958 213.701 257.211 213.687C257.213 213.687 257.215 213.687 257.217 213.686L259.031 213.611C259.325 213.597 259.56 213.833 259.557 214.134C259.554 214.434 259.311 214.693 259.02 214.704L257.647 214.767L257.383 216.118C257.332 216.38 257.109 216.571 256.86 216.586Z" fill="url(#paint53_linear_95_737)"/>
<path d="M265.106 212.916C264.939 212.926 264.772 212.889 264.622 212.803L261.088 210.774C260.649 210.522 260.511 209.94 260.78 209.476C261.05 209.012 261.624 208.841 262.063 209.093L264.916 210.737L271.28 202.755C271.609 202.342 272.187 202.268 272.571 202.59C272.955 202.912 272.999 203.507 272.671 203.92L265.81 212.544C265.628 212.772 265.369 212.902 265.106 212.916Z" fill="url(#paint54_linear_95_737)"/>
<path d="M121.464 249.09L137.398 245.912L139.818 245.432C139.818 245.432 140.058 245.959 140.513 246.943C140.727 247.444 141.034 248.04 141.386 248.744C141.726 249.459 142.167 250.249 142.655 251.145C143.65 252.916 144.916 255.053 146.57 257.381C148.222 259.705 150.225 262.247 152.661 264.819C155.09 267.39 157.937 269.995 161.187 272.477C162.835 273.689 164.542 274.924 166.384 276.043C166.612 276.188 166.842 276.333 167.07 276.478C167.304 276.616 167.541 276.751 167.775 276.889C168.246 277.162 168.721 277.439 169.195 277.719C170.171 278.229 171.14 278.789 172.155 279.27C176.179 281.288 180.569 282.951 185.179 284.199C187.486 284.814 189.853 285.302 192.249 285.707L194.058 285.96C194.358 286 194.668 286.052 194.958 286.085L195.838 286.177L196.718 286.273C197.011 286.303 197.291 286.339 197.634 286.355L199.598 286.484L199.845 286.5L199.967 286.626L200 286.745H200.03L200.458 286.645L201.381 286.617C201.994 286.637 202.61 286.638 203.223 286.625L205.066 286.607C205.682 286.58 206.295 286.55 206.908 286.527C209.36 286.408 211.805 286.191 214.214 285.816L215.121 285.682L216.017 285.52C216.614 285.411 217.214 285.309 217.807 285.19C218.99 284.93 220.173 284.693 221.333 284.376C222.5 284.1 223.64 283.744 224.784 283.415C225.351 283.237 225.911 283.046 226.471 282.862C226.751 282.77 227.031 282.677 227.312 282.585C227.588 282.483 227.862 282.381 228.136 282.279C230.35 281.499 232.466 280.57 234.523 279.612C235.541 279.111 236.553 278.627 237.525 278.091C238.514 277.58 239.456 277.017 240.399 276.477C244.133 274.265 247.468 271.818 250.388 269.365C253.311 266.906 255.8 264.413 257.879 262.082C259.959 259.751 261.616 257.578 262.935 255.75C263.581 254.829 264.167 254.006 264.629 253.274C265.1 252.544 265.512 251.931 265.822 251.394C265.987 251.118 266.132 250.877 266.257 250.67C266.52 250.232 267.048 250.041 267.522 250.192C267.588 250.212 267.651 250.239 267.714 250.271L267.793 250.314C268.307 250.591 268.514 251.223 268.261 251.75C268.159 251.967 268.037 252.221 267.898 252.511C267.644 253.064 267.275 253.752 266.85 254.558C266.438 255.382 265.914 256.28 265.337 257.298C264.158 259.313 262.648 261.73 260.71 264.371C258.769 267.005 256.406 269.869 253.562 272.763C250.718 275.651 247.415 278.594 243.629 281.35C242.673 282.029 241.714 282.73 240.699 283.379C239.703 284.057 238.659 284.689 237.604 285.331C235.478 286.582 233.264 287.811 230.924 288.897C230.634 289.035 230.344 289.177 230.05 289.315C229.754 289.447 229.457 289.579 229.161 289.707C228.564 289.967 227.968 290.237 227.364 290.491C226.145 290.972 224.922 291.482 223.66 291.91C222.411 292.377 221.129 292.769 219.84 293.181C219.194 293.375 218.542 293.55 217.886 293.737L216.904 294.007L215.912 294.251C213.262 294.926 210.546 295.426 207.801 295.822C207.112 295.914 206.423 296.003 205.735 296.095L203.658 296.299C202.963 296.375 202.268 296.411 201.572 296.454L200.524 296.519L200.003 296.552L199.417 296.566L197.449 296.622C197.136 296.638 196.764 296.631 196.404 296.628L195.32 296.618L194.236 296.605C193.873 296.602 193.534 296.576 193.181 296.562C192.483 296.529 191.781 296.5 191.082 296.467C188.29 296.266 185.509 295.96 182.764 295.499C177.283 294.567 171.95 293.105 166.967 291.176C165.712 290.718 164.502 290.171 163.286 289.668C162.689 289.394 162.096 289.121 161.503 288.848C161.21 288.709 160.913 288.571 160.62 288.436C160.33 288.291 160.043 288.143 159.753 287.998C157.43 286.869 155.245 285.595 153.129 284.324C148.94 281.716 145.189 278.888 141.927 276.036C138.661 273.185 135.896 270.297 133.579 267.617C131.262 264.937 129.429 262.435 127.973 260.334C127.254 259.277 126.612 258.332 126.097 257.483C125.57 256.64 125.115 255.922 124.779 255.323C124.09 254.134 121.464 249.09 121.464 249.09Z" fill="url(#paint55_linear_95_737)"/>
<path opacity="0.3" d="M137.369 246.62C137.359 246.38 137.369 246.143 137.399 245.912L139.818 245.432C139.818 245.432 140.058 245.959 140.513 246.943C140.727 247.444 141.034 248.04 141.386 248.744C141.726 249.459 142.168 250.249 142.655 251.145C143.651 252.916 144.916 255.053 146.571 257.381C148.222 259.705 150.225 262.247 152.661 264.819C155.09 267.39 157.937 269.995 161.187 272.477C162.835 273.689 164.542 274.924 166.384 276.043C166.612 276.188 166.843 276.333 167.07 276.478C167.304 276.616 167.541 276.751 167.775 276.889C168.246 277.162 168.721 277.439 169.196 277.719C170.171 278.229 171.14 278.789 172.155 279.27C176.179 281.288 180.569 282.951 185.18 284.199C187.486 284.814 189.853 285.302 192.249 285.707L194.058 285.96C194.358 286 194.668 286.052 194.958 286.085L195.838 286.177L196.718 286.273C197.011 286.303 197.291 286.339 197.634 286.355L199.598 286.484L199.845 286.5L199.967 286.626L200 286.745H200.03L200.459 286.645L201.381 286.617C201.994 286.637 202.61 286.638 203.223 286.625L205.066 286.607C205.682 286.58 206.295 286.55 206.908 286.527C209.36 286.408 211.805 286.191 214.215 285.816L215.121 285.682L216.017 285.52C216.614 285.411 217.214 285.309 217.807 285.19C218.99 284.93 220.173 284.693 221.333 284.376C222.5 284.1 223.64 283.744 224.784 283.415C225.351 283.237 225.911 283.046 226.471 282.862C226.751 282.77 227.032 282.677 227.312 282.585C227.588 282.483 227.862 282.381 228.136 282.279C230.35 281.499 232.466 280.57 234.523 279.612C235.541 279.111 236.553 278.627 237.525 278.091C238.514 277.58 239.456 277.017 240.399 276.477C244.133 274.265 247.468 271.818 250.388 269.365C253.311 266.906 255.8 264.413 257.879 262.082C259.959 259.751 261.617 257.578 262.935 255.75C263.581 254.829 264.168 254.006 264.629 253.274C265.1 252.544 265.512 251.931 265.822 251.394C265.987 251.118 266.132 250.877 266.257 250.67C266.521 250.232 267.048 250.041 267.522 250.192C263.271 257.084 243.24 286.592 210.333 288.93C173.055 291.578 138.124 267.028 137.369 246.62Z" fill="url(#paint56_linear_95_737)"/>
<path d="M114.828 249.113L126.823 214.847L152.392 252.108L114.828 249.113Z" fill="url(#paint57_linear_95_737)"/>
<path opacity="0.3" d="M114.828 249.113L126.823 214.847L152.392 252.108L114.828 249.113Z" fill="url(#paint58_linear_95_737)"/>
<path d="M112.521 249.113L126.576 214.847L150.085 251.924L112.521 249.113Z" fill="url(#paint59_linear_95_737)"/>
<defs>
<linearGradient id="paint0_linear_95_737" x1="134.698" y1="255.884" x2="114.606" y2="264.331" gradientUnits="userSpaceOnUse">
<stop stop-color="#40447E"/>
<stop offset="0.9964" stop-color="#3C3B6B"/>
</linearGradient>
<linearGradient id="paint1_linear_95_737" x1="102.114" y1="171.733" x2="81.5884" y2="180.361" gradientUnits="userSpaceOnUse">
<stop stop-color="#40447E"/>
<stop offset="0.9964" stop-color="#3C3B6B"/>
</linearGradient>
<linearGradient id="paint2_linear_95_737" x1="13.7549" y1="176.42" x2="203.766" y2="176.42" gradientUnits="userSpaceOnUse">
<stop stop-color="#40447E"/>
<stop offset="0.9964" stop-color="#3C3B6B"/>
</linearGradient>
<linearGradient id="paint3_linear_95_737" x1="133.86" y1="130.257" x2="-12.0223" y2="368.967" gradientUnits="userSpaceOnUse">
<stop stop-color="#FFC444"/>
<stop offset="0.9964" stop-color="#F36F56"/>
</linearGradient>
<linearGradient id="paint4_linear_95_737" x1="24.4554" y1="183.342" x2="183.989" y2="163.681" gradientUnits="userSpaceOnUse">
<stop stop-color="#F36F56"/>
<stop offset="0.9964" stop-color="#F36F56"/>
</linearGradient>
<linearGradient id="paint5_linear_95_737" x1="13.7549" y1="247.031" x2="299.999" y2="247.031" gradientUnits="userSpaceOnUse">
<stop stop-color="#40447E"/>
<stop offset="0.9964" stop-color="#3C3B6B"/>
</linearGradient>
<linearGradient id="paint6_linear_95_737" x1="41.8261" y1="244.817" x2="251.556" y2="244.817" gradientUnits="userSpaceOnUse">
<stop stop-color="#40447E"/>
<stop offset="0.9964" stop-color="#3C3B6B"/>
</linearGradient>
<linearGradient id="paint7_linear_95_737" x1="88.4893" y1="179.473" x2="125.331" y2="179.473" gradientUnits="userSpaceOnUse">
<stop stop-color="#FB6FBB"/>
<stop offset="1" stop-color="#FF9085"/>
</linearGradient>
<linearGradient id="paint8_linear_95_737" x1="120.55" y1="172.631" x2="126.026" y2="172.631" gradientUnits="userSpaceOnUse">
<stop stop-color="#FB6FBB"/>
<stop offset="1" stop-color="#FF9085"/>
</linearGradient>
<linearGradient id="paint9_linear_95_737" x1="92.6162" y1="192.02" x2="129.113" y2="192.02" gradientUnits="userSpaceOnUse">
<stop stop-color="#FB6FBB"/>
<stop offset="1" stop-color="#FF9085"/>
</linearGradient>
<linearGradient id="paint10_linear_95_737" x1="91.5303" y1="198.354" x2="97.1651" y2="198.354" gradientUnits="userSpaceOnUse">
<stop stop-color="#FB6FBB"/>
<stop offset="1" stop-color="#FF9085"/>
</linearGradient>
<linearGradient id="paint11_linear_95_737" x1="99.0635" y1="186.59" x2="120.744" y2="186.59" gradientUnits="userSpaceOnUse">
<stop stop-color="#FB6FBB"/>
<stop offset="1" stop-color="#FF9085"/>
</linearGradient>
<linearGradient id="paint12_linear_95_737" x1="70.973" y1="164.226" x2="-9.2397" y2="218.762" gradientUnits="userSpaceOnUse">
<stop stop-color="#311944"/>
<stop offset="1" stop-color="#6B3976"/>
</linearGradient>
<linearGradient id="paint13_linear_95_737" x1="53.9565" y1="318.715" x2="88.585" y2="160.452" gradientUnits="userSpaceOnUse">
<stop offset="0.0036" stop-color="#E38DDD"/>
<stop offset="1" stop-color="#9571F6"/>
</linearGradient>
<linearGradient id="paint14_linear_95_737" x1="106.468" y1="290.099" x2="95.6591" y2="290.099" gradientUnits="userSpaceOnUse">
<stop stop-color="#311944"/>
<stop offset="1" stop-color="#6B3976"/>
</linearGradient>
<linearGradient id="paint15_linear_95_737" x1="104.748" y1="270.27" x2="98.1377" y2="270.27" gradientUnits="userSpaceOnUse">
<stop stop-color="#311944"/>
<stop offset="1" stop-color="#6B3976"/>
</linearGradient>
<linearGradient id="paint16_linear_95_737" x1="95.2783" y1="233.898" x2="87.2418" y2="280.403" gradientUnits="userSpaceOnUse">
<stop stop-color="#AB316D"/>
<stop offset="1" stop-color="#792D3D"/>
</linearGradient>
<linearGradient id="paint17_linear_95_737" x1="83.9077" y1="289.01" x2="72.4794" y2="252.807" gradientUnits="userSpaceOnUse">
<stop stop-color="#AB316D"/>
<stop offset="1" stop-color="#792D3D"/>
</linearGradient>
<linearGradient id="paint18_linear_95_737" x1="83.9068" y1="289.01" x2="72.4785" y2="252.808" gradientUnits="userSpaceOnUse">
<stop stop-color="#AB316D"/>
<stop offset="1" stop-color="#792D3D"/>
</linearGradient>
<linearGradient id="paint19_linear_95_737" x1="67.7986" y1="229.205" x2="59.7806" y2="275.602" gradientUnits="userSpaceOnUse">
<stop stop-color="#AB316D"/>
<stop offset="1" stop-color="#792D3D"/>
</linearGradient>
<linearGradient id="paint20_linear_95_737" x1="34.9423" y1="314.555" x2="69.5707" y2="156.292" gradientUnits="userSpaceOnUse">
<stop offset="0.0036" stop-color="#E38DDD"/>
<stop offset="1" stop-color="#9571F6"/>
</linearGradient>
<linearGradient id="paint21_linear_95_737" x1="81.5535" y1="228.599" x2="50.3682" y2="228.599" gradientUnits="userSpaceOnUse">
<stop stop-color="#40447E"/>
<stop offset="0.9964" stop-color="#3C3B6B"/>
</linearGradient>
<linearGradient id="paint22_linear_95_737" x1="101.497" y1="208.945" x2="81.0697" y2="229.228" gradientUnits="userSpaceOnUse">
<stop stop-color="#40447E"/>
<stop offset="0.9964" stop-color="#3C3B6B"/>
</linearGradient>
<linearGradient id="paint23_linear_95_737" x1="101.497" y1="208.945" x2="81.0696" y2="229.228" gradientUnits="userSpaceOnUse">
<stop stop-color="#40447E"/>
<stop offset="0.9964" stop-color="#3C3B6B"/>
</linearGradient>
<linearGradient id="paint24_linear_95_737" x1="19.8961" y1="311.263" x2="54.5246" y2="153" gradientUnits="userSpaceOnUse">
<stop offset="0.0036" stop-color="#E38DDD"/>
<stop offset="1" stop-color="#9571F6"/>
</linearGradient>
<linearGradient id="paint25_linear_95_737" x1="226.151" y1="176.796" x2="186.39" y2="176.796" gradientUnits="userSpaceOnUse">
<stop stop-color="#444B8C"/>
<stop offset="0.9964" stop-color="#3E4177"/>
</linearGradient>
<linearGradient id="paint26_linear_95_737" x1="202.608" y1="213.388" x2="208.624" y2="248.972" gradientUnits="userSpaceOnUse">
<stop stop-color="#444B8C"/>
<stop offset="0.9964" stop-color="#26264F"/>
</linearGradient>
<linearGradient id="paint27_linear_95_737" x1="199.018" y1="219.468" x2="204.2" y2="251.937" gradientUnits="userSpaceOnUse">
<stop stop-color="#311944"/>
<stop offset="1" stop-color="#A03976"/>
</linearGradient>
<linearGradient id="paint28_linear_95_737" x1="226.151" y1="176.798" x2="186.39" y2="176.798" gradientUnits="userSpaceOnUse">
<stop stop-color="#444B8C"/>
<stop offset="0.9964" stop-color="#3E4177"/>
</linearGradient>
<linearGradient id="paint29_linear_95_737" x1="204.117" y1="193.858" x2="170.119" y2="193.858" gradientUnits="userSpaceOnUse">
<stop stop-color="#444B8C"/>
<stop offset="0.9964" stop-color="#3E4177"/>
</linearGradient>
<linearGradient id="paint30_linear_95_737" x1="156.13" y1="124.466" x2="232.725" y2="124.466" gradientUnits="userSpaceOnUse">
<stop stop-color="#FF9085"/>
<stop offset="1" stop-color="#FB6FBB"/>
</linearGradient>
<linearGradient id="paint31_linear_95_737" x1="213.924" y1="124.563" x2="228.425" y2="124.563" gradientUnits="userSpaceOnUse">
<stop stop-color="#FF9085"/>
<stop offset="1" stop-color="#FB6FBB"/>
</linearGradient>
<linearGradient id="paint32_linear_95_737" x1="189.165" y1="112.434" x2="195.191" y2="122.62" gradientUnits="userSpaceOnUse">
<stop stop-color="#311944"/>
<stop offset="1" stop-color="#A03976"/>
</linearGradient>
<linearGradient id="paint33_linear_95_737" x1="156.13" y1="129.219" x2="207.637" y2="129.219" gradientUnits="userSpaceOnUse">
<stop stop-color="#FF9085"/>
<stop offset="1" stop-color="#FB6FBB"/>
</linearGradient>
<linearGradient id="paint34_linear_95_737" x1="151.548" y1="112.864" x2="192.268" y2="112.864" gradientUnits="userSpaceOnUse">
<stop stop-color="#FF9085"/>
<stop offset="1" stop-color="#FB6FBB"/>
</linearGradient>
<linearGradient id="paint35_linear_95_737" x1="223.972" y1="125.286" x2="202.365" y2="108.99" gradientUnits="userSpaceOnUse">
<stop stop-color="#444B8C"/>
<stop offset="0.9964" stop-color="#26264F"/>
</linearGradient>
<linearGradient id="paint36_linear_95_737" x1="214.195" y1="109.294" x2="203.929" y2="127.822" gradientUnits="userSpaceOnUse">
<stop stop-color="#444B8C"/>
<stop offset="0.9964" stop-color="#26264F"/>
</linearGradient>
<linearGradient id="paint37_linear_95_737" x1="201.018" y1="103.787" x2="216.997" y2="142.516" gradientUnits="userSpaceOnUse">
<stop stop-color="#444B8C"/>
<stop offset="0.9964" stop-color="#26264F"/>
</linearGradient>
<linearGradient id="paint38_linear_95_737" x1="189.753" y1="71.6249" x2="192.607" y2="95.9766" gradientUnits="userSpaceOnUse">
<stop stop-color="#311944"/>
<stop offset="1" stop-color="#A03976"/>
</linearGradient>
<linearGradient id="paint39_linear_95_737" x1="216.332" y1="120.233" x2="209.453" y2="120.233" gradientUnits="userSpaceOnUse">
<stop stop-color="#311944"/>
<stop offset="1" stop-color="#A03976"/>
</linearGradient>
<linearGradient id="paint40_linear_95_737" x1="201.925" y1="70.7644" x2="198.11" y2="82.1199" gradientUnits="userSpaceOnUse">
<stop stop-color="#444B8C"/>
<stop offset="0.9964" stop-color="#26264F"/>
</linearGradient>
<linearGradient id="paint41_linear_95_737" x1="192.337" y1="74.9162" x2="195.041" y2="81.6822" gradientUnits="userSpaceOnUse">
<stop stop-color="#311944"/>
<stop offset="1" stop-color="#A03976"/>
</linearGradient>
<linearGradient id="paint42_linear_95_737" x1="265.501" y1="80.8004" x2="105.569" y2="20.7196" gradientUnits="userSpaceOnUse">
<stop stop-color="#FF625E"/>
<stop offset="1" stop-color="#B0413E"/>
</linearGradient>
<linearGradient id="paint43_linear_95_737" x1="172.416" y1="35.0955" x2="162.159" y2="182.418" gradientUnits="userSpaceOnUse">
<stop stop-color="#FF9085"/>
<stop offset="1" stop-color="#FB6FBB"/>
</linearGradient>
<linearGradient id="paint44_linear_95_737" x1="258.042" y1="28.8873" x2="245.795" y2="204.791" gradientUnits="userSpaceOnUse">
<stop stop-color="#FF9085"/>
<stop offset="1" stop-color="#FB6FBB"/>
</linearGradient>
<linearGradient id="paint45_linear_95_737" x1="258.042" y1="28.8873" x2="245.795" y2="204.791" gradientUnits="userSpaceOnUse">
<stop stop-color="#FF9085"/>
<stop offset="1" stop-color="#FB6FBB"/>
</linearGradient>
<linearGradient id="paint46_linear_95_737" x1="278.909" y1="124.002" x2="233.05" y2="117.919" gradientUnits="userSpaceOnUse">
<stop stop-color="#FF625E"/>
<stop offset="1" stop-color="#B0413E"/>
</linearGradient>
<linearGradient id="paint47_linear_95_737" x1="302.469" y1="245.073" x2="251.478" y2="201.534" gradientUnits="userSpaceOnUse">
<stop stop-color="#444B8C"/>
<stop offset="0.9964" stop-color="#26264F"/>
</linearGradient>
<linearGradient id="paint48_linear_95_737" x1="260.714" y1="263.643" x2="268.049" y2="66.2789" gradientUnits="userSpaceOnUse">
<stop stop-color="#444B8C"/>
<stop offset="0.9964" stop-color="#26264F"/>
</linearGradient>
<linearGradient id="paint49_linear_95_737" x1="278.761" y1="186.675" x2="213.277" y2="274.806" gradientUnits="userSpaceOnUse">
<stop stop-color="#FFC444"/>
<stop offset="0.9964" stop-color="#F36F56"/>
</linearGradient>
<linearGradient id="paint50_linear_95_737" x1="288.913" y1="229.383" x2="263.023" y2="203.469" gradientUnits="userSpaceOnUse">
<stop stop-color="#FB6FBB"/>
<stop offset="1" stop-color="#FF9085"/>
</linearGradient>
<linearGradient id="paint51_linear_95_737" x1="296.681" y1="221.623" x2="270.791" y2="195.708" gradientUnits="userSpaceOnUse">
<stop stop-color="#FB6FBB"/>
<stop offset="1" stop-color="#FF9085"/>
</linearGradient>
<linearGradient id="paint52_linear_95_737" x1="288.227" y1="230.069" x2="262.336" y2="204.154" gradientUnits="userSpaceOnUse">
<stop stop-color="#FB6FBB"/>
<stop offset="1" stop-color="#FF9085"/>
</linearGradient>
<linearGradient id="paint53_linear_95_737" x1="280.576" y1="237.713" x2="254.686" y2="211.798" gradientUnits="userSpaceOnUse">
<stop stop-color="#FB6FBB"/>
<stop offset="1" stop-color="#FF9085"/>
</linearGradient>
<linearGradient id="paint54_linear_95_737" x1="289.223" y1="229.074" x2="263.333" y2="203.159" gradientUnits="userSpaceOnUse">
<stop stop-color="#FB6FBB"/>
<stop offset="1" stop-color="#FF9085"/>
</linearGradient>
<linearGradient id="paint55_linear_95_737" x1="265.864" y1="281.271" x2="136.953" y2="232.843" gradientUnits="userSpaceOnUse">
<stop stop-color="#FF625E"/>
<stop offset="1" stop-color="#B0413E"/>
</linearGradient>
<linearGradient id="paint56_linear_95_737" x1="265.303" y1="276.018" x2="152.177" y2="231.897" gradientUnits="userSpaceOnUse">
<stop stop-color="#FF625E"/>
<stop offset="1" stop-color="#B0413E"/>
</linearGradient>
<linearGradient id="paint57_linear_95_737" x1="151.751" y1="240.929" x2="114.781" y2="236.049" gradientUnits="userSpaceOnUse">
<stop stop-color="#FF625E"/>
<stop offset="1" stop-color="#B0413E"/>
</linearGradient>
<linearGradient id="paint58_linear_95_737" x1="151.751" y1="240.929" x2="114.781" y2="236.049" gradientUnits="userSpaceOnUse">
<stop stop-color="#FF625E"/>
<stop offset="1" stop-color="#B0413E"/>
</linearGradient>
<linearGradient id="paint59_linear_95_737" x1="149.445" y1="240.8" x2="112.481" y2="235.897" gradientUnits="userSpaceOnUse">
<stop stop-color="#FF625E"/>
<stop offset="1" stop-color="#B0413E"/>
</linearGradient>
</defs>
</svg>
