<svg
    width="24"
    height="24"
    viewBox="0 0 24 24"
    fill="none"
    xmlns="http://www.w3.org/2000/svg"
  >
    <path
      d="M16.6949 3.4487H16.9449V3.1987V2.73934V2.48934H16.6949H13.3586C13.2843 2.48928 13.2429 2.46299 13.217 2.43354C13.1869 2.3994 13.1662 2.34682 13.1654 2.2871C13.1647 2.2274 13.184 2.17798 13.211 2.14715C13.2336 2.12133 13.2743 2.09326 13.3572 2.09366H13.3584H16.6949H16.9449V1.84366V1.39726V1.14809L16.6957 1.14726L13.3593 1.13621L13.3568 1.13623C13.2821 1.13672 13.2412 1.1107 13.2158 1.08207C13.1862 1.04869 13.1655 0.99674 13.1647 0.937096C13.164 0.87753 13.1832 0.827619 13.2108 0.796113C13.234 0.769529 13.2754 0.741087 13.3586 0.74102L17.3958 0.74102C17.721 0.742079 17.9846 0.892877 18.1729 1.11441C18.3646 1.33991 18.4674 1.62705 18.47 1.86842V22.2643C18.4687 22.5196 18.3718 22.6964 18.2376 22.8129C18.0984 22.9338 17.9055 23.0007 17.7045 23.0019C17.5036 23.0031 17.3124 22.9385 17.175 22.8195C17.0427 22.7049 16.9453 22.5274 16.9449 22.2644V13.5485V13.2985H16.6949L13.3584 13.2985L13.3572 13.2985C13.2839 13.2988 13.245 13.2733 13.2209 13.2456C13.1924 13.2129 13.1721 13.1609 13.1717 13.1002C13.1714 13.0395 13.1912 12.9883 13.2188 12.9563C13.242 12.9294 13.2812 12.9027 13.3582 12.9028H13.3584H16.6949H16.9449V12.6528V12.2064V11.9564H16.6949H13.3593C13.2814 11.9558 13.2403 11.9285 13.2158 11.9003C13.187 11.8672 13.1672 11.8157 13.1672 11.7559C13.1673 11.696 13.1874 11.6455 13.2154 11.6137C13.239 11.5869 13.2789 11.5605 13.3562 11.5612L13.3562 11.5612H13.3584H16.6949H16.9449V11.3112V10.8528V10.6028H16.6949L13.3584 10.6028L13.3566 10.6028C13.2785 10.6034 13.2385 10.5766 13.215 10.5499C13.1871 10.5181 13.1672 10.4676 13.1672 10.4076C13.1673 10.3477 13.1874 10.2959 13.2163 10.2627C13.241 10.2344 13.2819 10.2074 13.359 10.2071C13.3591 10.2071 13.3592 10.2071 13.3592 10.2071L16.6949 10.2071H16.9449V9.9571V9.50974V9.25974H16.6949H13.3584C13.2802 9.25974 13.2395 9.23262 13.2154 9.20506C13.187 9.17259 13.1672 9.12156 13.1672 9.06176C13.1673 9.00194 13.1874 8.9509 13.2158 8.9185C13.2399 8.89103 13.2803 8.86429 13.3576 8.86454H13.3584H16.6949H16.9449V8.61454V8.16622V7.91622H16.6949H13.3591C13.2861 7.91572 13.2465 7.88973 13.2217 7.86098C13.1926 7.82715 13.1721 7.77414 13.1717 7.71255C13.1714 7.65098 13.1913 7.59888 13.2195 7.56593C13.2433 7.53818 13.2829 7.5112 13.3595 7.51046H16.6949H16.9449V7.26046V6.8131V6.5631H16.6949L13.3584 6.5631L13.3574 6.5631C13.2838 6.56341 13.2433 6.5376 13.218 6.50889C13.1885 6.47538 13.1678 6.4232 13.167 6.36332C13.1663 6.3035 13.1856 6.25358 13.2129 6.22225C13.2358 6.19594 13.2764 6.1679 13.3584 6.1679H16.6949H16.9449V5.9179V5.44846V5.19846H16.6949H13.359C13.2857 5.19804 13.2446 5.17186 13.2186 5.14219C13.1885 5.10774 13.1678 5.05481 13.167 4.9949C13.1663 4.93498 13.1856 4.88578 13.2123 4.8554C13.2344 4.83015 13.2743 4.80253 13.3562 4.80325V4.80326H13.3584H16.6949H16.9449V4.55326V4.0939V3.8439H16.6949L13.3584 3.84389L13.3561 3.84391C13.2815 3.84459 13.2408 3.81869 13.2156 3.79036C13.1862 3.75724 13.1655 3.70551 13.1647 3.64586C13.164 3.5863 13.1832 3.53618 13.2109 3.5044C13.2343 3.47756 13.2759 3.44904 13.3589 3.4487H16.6949ZM9.35002 16.5139V16.9414L9.72259 16.7318C10.5948 16.2412 11.3704 16.379 11.935 16.7973C12.5137 17.2262 12.878 17.9564 12.879 18.6519C12.877 19.5292 12.3694 20.2716 11.6032 20.6262L11.4869 20.68L11.4627 20.8058C11.3566 21.3565 11.3638 21.7325 11.4454 22.0446C11.5086 22.286 11.6177 22.4837 11.7179 22.6651C11.7422 22.7092 11.766 22.7523 11.7885 22.7948C11.8584 22.934 11.8126 23.0996 11.6925 23.1991C11.6353 23.2465 11.5691 23.2709 11.5028 23.2698C11.439 23.2687 11.3544 23.2437 11.2584 23.1552L11.2583 23.1551C11.0789 22.9899 10.9179 22.6698 10.8055 22.2692C10.6952 21.8766 10.6424 21.4456 10.6515 21.0963L10.6579 20.8533L10.4152 20.8401C9.36642 20.7829 8.41002 19.8764 8.41002 18.6398V12.48V12.23H8.16002H7.68002H7.43002V12.48V18.6398C7.43002 19.7429 6.49978 20.8653 5.22781 20.8623L5.22663 20.8623C3.9548 20.8653 3.01478 19.8668 3.01434 18.6397C3.01462 17.9534 3.36746 17.2261 3.93314 16.7983C4.48359 16.3821 5.24514 16.2411 6.11746 16.7318L6.49002 16.9414V16.5139V10.5997L7.72352 0.835725C7.72353 0.835658 7.72354 0.835591 7.72355 0.835524C7.72594 0.817086 7.73334 0.79656 7.78491 0.771582C7.8395 0.745145 7.91149 0.732563 7.96536 0.73015C8.01102 0.732395 8.05054 0.743206 8.07437 0.758197C8.08478 0.764743 8.09082 0.771137 8.09506 0.77789C8.09916 0.784414 8.10652 0.799043 8.10951 0.828902L8.10942 0.828911L8.11025 0.83547L9.35002 10.5998V16.5139ZM11.9303 22.532C11.7073 22.1269 11.5262 21.7979 11.7082 20.8531L11.089 23.339C11.6304 23.8382 12.2751 23.1998 12.0106 22.68C11.9836 22.6288 11.9566 22.5799 11.9303 22.532ZM5.28194 20.1215L5.28459 20.1215C5.67196 20.1174 6.04217 19.9611 6.31524 19.6863C6.5883 19.4115 6.74229 19.0403 6.74396 18.6529L6.74394 18.65C6.73817 17.8438 6.08752 17.1853 5.28339 17.1807H5.28194C4.89197 17.1807 4.51797 17.3356 4.24221 17.6114C3.96646 17.8871 3.81154 18.2611 3.81154 18.6511C3.81154 19.0411 3.96646 19.4151 4.24221 19.6908C4.51797 19.9666 4.89197 20.1215 5.28194 20.1215ZM10.6108 17.1807L10.6108 17.1807L10.6059 17.1807C10.2182 17.1848 9.84765 17.3414 9.57447 17.6165C9.30128 17.8916 9.14737 18.2632 9.14602 18.651L9.14603 18.6526C9.14723 19.0403 9.30118 19.4119 9.57452 19.6869C9.84786 19.9618 10.2186 20.118 10.6062 20.1215L10.6062 20.1215L10.6105 20.1215C10.9984 20.1184 11.3693 19.9624 11.6428 19.6872C11.9162 19.4121 12.0699 19.0401 12.0705 18.6522L12.0705 18.6514C12.0699 18.2635 11.9163 17.8914 11.643 17.616C11.3696 17.3406 10.9987 17.1842 10.6108 17.1807Z"
      stroke="#FF8C2E"
      strokeWidth="1"
    />
  </svg>