<svg width="30" height="30" viewBox="0 0 30 30" fill="none" xmlns="http://www.w3.org/2000/svg">
<path opacity="0.4" d="M22.5 23.5749H21.55C20.55 23.5749 19.6 23.9624 18.9 24.6624L16.7625 26.7749C15.7875 27.7374 14.2 27.7374 13.225 26.7749L11.0875 24.6624C10.3875 23.9624 9.425 23.5749 8.4375 23.5749H7.5C5.425 23.5749 3.75 21.9125 3.75 19.8625V6.22491C3.75 4.17491 5.425 2.51245 7.5 2.51245H22.5C24.575 2.51245 26.25 4.17491 26.25 6.22491V19.8625C26.25 21.9 24.575 23.5749 22.5 23.5749Z" fill="#AF52DE"/>
<path d="M14.9999 13.0125C16.6085 13.0125 17.9124 11.7086 17.9124 10.1C17.9124 8.49149 16.6085 7.1875 14.9999 7.1875C13.3914 7.1875 12.0874 8.49149 12.0874 10.1C12.0874 11.7086 13.3914 13.0125 14.9999 13.0125Z" fill="#AF52DE"/>
<path d="M18.35 18.825C19.3625 18.825 19.95 17.7 19.3875 16.8625C18.5375 15.6 16.8875 14.75 15 14.75C13.1125 14.75 11.4625 15.6 10.6125 16.8625C10.05 17.7 10.6375 18.825 11.65 18.825H18.35Z" fill="#AF52DE"/>
</svg>
