<svg width="20" height="20" viewBox="0 0 20 20" fill="none" xmlns="http://www.w3.org/2000/svg">
<path d="M10 18.9583C5.63337 18.9583 2.08337 15.4083 2.08337 11.0417C2.08337 6.675 5.63337 3.125 10 3.125C14.3667 3.125 17.9167 6.675 17.9167 11.0417C17.9167 15.4083 14.3667 18.9583 10 18.9583ZM10 4.375C6.32504 4.375 3.33337 7.36667 3.33337 11.0417C3.33337 14.7167 6.32504 17.7083 10 17.7083C13.675 17.7083 16.6667 14.7167 16.6667 11.0417C16.6667 7.36667 13.675 4.375 10 4.375Z" fill="#FF8C2E"/>
<path d="M10 11.4582C9.65833 11.4582 9.375 11.1748 9.375 10.8332V6.6665C9.375 6.32484 9.65833 6.0415 10 6.0415C10.3417 6.0415 10.625 6.32484 10.625 6.6665V10.8332C10.625 11.1748 10.3417 11.4582 10 11.4582Z" fill="#FF8C2E"/>
<path d="M12.5 2.2915H7.5C7.15833 2.2915 6.875 2.00817 6.875 1.6665C6.875 1.32484 7.15833 1.0415 7.5 1.0415H12.5C12.8417 1.0415 13.125 1.32484 13.125 1.6665C13.125 2.00817 12.8417 2.2915 12.5 2.2915Z" fill="#FF8C2E"/>
</svg>
