<svg width="18" height="18" viewBox="0 0 18 18" fill="none" xmlns="http://www.w3.org/2000/svg">
<path d="M9 3.48755C5.415 3.48755 2.4975 6.40505 2.4975 9.99005C2.4975 13.575 5.415 16.5 9 16.5C12.585 16.5 15.5025 13.5825 15.5025 9.99755C15.5025 6.41255 12.585 3.48755 9 3.48755ZM9.5625 9.75005C9.5625 10.0575 9.3075 10.3125 9 10.3125C8.6925 10.3125 8.4375 10.0575 8.4375 9.75005V6.00005C8.4375 5.69255 8.6925 5.43755 9 5.43755C9.3075 5.43755 9.5625 5.69255 9.5625 6.00005V9.75005Z" fill="#9B0E53"/>
<path d="M11.1675 2.5875H6.83248C6.53248 2.5875 6.29248 2.3475 6.29248 2.0475C6.29248 1.7475 6.53248 1.5 6.83248 1.5H11.1675C11.4675 1.5 11.7075 1.74 11.7075 2.04C11.7075 2.34 11.4675 2.5875 11.1675 2.5875Z" fill="#9B0E53"/>
</svg>
