<svg width="16" height="16" viewBox="0 0 16 16" fill="none" xmlns="http://www.w3.org/2000/svg">
<path d="M9.99998 15.1666H5.99998C2.37998 15.1666 0.833313 13.6199 0.833313 9.99992V5.99992C0.833313 2.37992 2.37998 0.833252 5.99998 0.833252H9.99998C13.62 0.833252 15.1666 2.37992 15.1666 5.99992V9.99992C15.1666 13.6199 13.62 15.1666 9.99998 15.1666ZM5.99998 1.83325C2.92665 1.83325 1.83331 2.92659 1.83331 5.99992V9.99992C1.83331 13.0733 2.92665 14.1666 5.99998 14.1666H9.99998C13.0733 14.1666 14.1666 13.0733 14.1666 9.99992V5.99992C14.1666 2.92659 13.0733 1.83325 9.99998 1.83325H5.99998Z" fill="#E71C1C"/>
<path d="M11.9334 6.53325C11.92 6.53325 11.9 6.53325 11.8867 6.53325C9.58004 6.30658 7.2867 6.21325 5.01337 6.44658L4.12003 6.53325C3.84003 6.55992 3.60004 6.35992 3.57337 6.08658C3.5467 5.81325 3.7467 5.56658 4.02003 5.53991L4.91337 5.45324C7.25337 5.21991 9.61337 5.30658 11.9867 5.53991C12.26 5.56658 12.46 5.81325 12.4334 6.08658C12.4067 6.33992 12.1867 6.53325 11.9334 6.53325Z" fill="#E71C1C"/>
<path d="M9.52665 6.0933C9.28665 6.0933 9.07332 5.91997 9.03332 5.67997L8.93999 5.1133C8.92666 5.01997 8.89999 4.8733 8.87332 4.83997C8.87332 4.83997 8.80666 4.79997 8.56666 4.79997H7.41999C7.17333 4.79997 7.10666 4.83997 7.10666 4.83997C7.09333 4.86663 7.06666 5.01331 7.05332 5.10664L6.95999 5.67997C6.91332 5.95331 6.65332 6.1333 6.38666 6.0933C6.11332 6.04664 5.93333 5.78664 5.97333 5.51997L6.06666 4.94664C6.13999 4.51997 6.25999 3.80664 7.41999 3.80664H8.56666C9.73333 3.80664 9.85333 4.5533 9.91999 4.9533L10.0133 5.51997C10.06 5.7933 9.87333 6.0533 9.60666 6.0933C9.58666 6.0933 9.55332 6.0933 9.52665 6.0933Z" fill="#E71C1C"/>
<path d="M9.40002 12.2066H6.59335C4.90668 12.2066 4.83335 11.1932 4.78668 10.5199L4.50002 6.11325C4.48002 5.83991 4.69335 5.59991 4.96668 5.57991C5.24668 5.55991 5.48002 5.77325 5.50002 6.04659L5.78668 10.4466C5.83335 11.0999 5.84002 11.1999 6.59335 11.1999H9.40002C10.1534 11.1999 10.16 11.0999 10.2067 10.4466L10.4934 6.04659C10.5134 5.77325 10.74 5.55991 11.0267 5.57991C11.3 5.59991 11.5134 5.83325 11.4934 6.11325L11.2067 10.5133C11.16 11.1933 11.0934 12.2066 9.40002 12.2066Z" fill="#E71C1C"/>
</svg>
