<svg width="30" height="30" viewBox="0 0 30 30" fill="none" xmlns="http://www.w3.org/2000/svg">
<path d="M20.9375 4.45V2.5C20.9375 1.9875 20.5125 1.5625 20 1.5625C19.4875 1.5625 19.0625 1.9875 19.0625 2.5V4.375H10.9375V2.5C10.9375 1.9875 10.5125 1.5625 10 1.5625C9.48754 1.5625 9.06254 1.9875 9.06254 2.5V4.45C5.68754 4.7625 4.05004 6.775 3.80004 9.7625C3.77504 10.125 4.07504 10.425 4.42504 10.425H25.575C25.9375 10.425 26.2375 10.1125 26.2 9.7625C25.95 6.775 24.3125 4.7625 20.9375 4.45Z" fill="#9B0E53"/>
<path opacity="0.4" d="M26.25 13.55V15.725C26.25 16.4875 25.575 17.075 24.825 16.95C24.475 16.9 24.1125 16.8625 23.75 16.8625C19.9625 16.8625 16.875 19.95 16.875 23.7375C16.875 24.3125 17.1 25.1125 17.3375 25.8375C17.6125 26.65 17.0125 27.4875 16.15 27.4875H10C5.625 27.4875 3.75 24.9875 3.75 21.2375V13.5375C3.75 12.85 4.3125 12.2875 5 12.2875H25C25.6875 12.3 26.25 12.8625 26.25 13.55Z" fill="#9B0E53"/>
<path d="M23.75 18.75C20.9875 18.75 18.75 20.9875 18.75 23.75C18.75 24.6875 19.0125 25.575 19.475 26.325C20.3375 27.775 21.925 28.75 23.75 28.75C25.575 28.75 27.1625 27.775 28.025 26.325C28.4875 25.575 28.75 24.6875 28.75 23.75C28.75 20.9875 26.5125 18.75 23.75 18.75ZM26.3375 23.2125L23.675 25.675C23.5 25.8375 23.2625 25.925 23.0375 25.925C22.8 25.925 22.5625 25.8375 22.375 25.65L21.1375 24.4125C20.775 24.05 20.775 23.45 21.1375 23.0875C21.5 22.725 22.1 22.725 22.4625 23.0875L23.0625 23.6875L25.0625 21.8375C25.4375 21.4875 26.0375 21.5125 26.3875 21.8875C26.7375 22.2625 26.7125 22.85 26.3375 23.2125Z" fill="#9B0E53"/>
<path d="M10.625 18.75C10.3 18.75 9.975 18.6125 9.7375 18.3875C9.5125 18.15 9.375 17.825 9.375 17.5C9.375 17.175 9.5125 16.85 9.7375 16.6125C10.025 16.325 10.4625 16.1875 10.875 16.275C10.95 16.2875 11.025 16.3125 11.1 16.35C11.175 16.375 11.25 16.4125 11.325 16.4625C11.3875 16.5125 11.45 16.5625 11.5125 16.6125C11.7375 16.85 11.875 17.175 11.875 17.5C11.875 17.825 11.7375 18.15 11.5125 18.3875C11.45 18.4375 11.3875 18.4875 11.325 18.5375C11.25 18.5875 11.175 18.625 11.1 18.65C11.025 18.6875 10.95 18.7125 10.875 18.725C10.7875 18.7375 10.7 18.75 10.625 18.75Z" fill="#9B0E53"/>
<path d="M15 18.75C14.675 18.75 14.35 18.6125 14.1125 18.3875C13.8875 18.15 13.75 17.825 13.75 17.5C13.75 17.175 13.8875 16.85 14.1125 16.6125C14.5875 16.15 15.425 16.15 15.8875 16.6125C16.1125 16.85 16.25 17.175 16.25 17.5C16.25 17.825 16.1125 18.15 15.8875 18.3875C15.65 18.6125 15.325 18.75 15 18.75Z" fill="#9B0E53"/>
<path d="M10.625 23.125C10.3 23.125 9.975 22.9875 9.7375 22.7625C9.5125 22.525 9.375 22.2 9.375 21.875C9.375 21.55 9.5125 21.225 9.7375 20.9875C9.8625 20.875 9.9875 20.7874 10.15 20.7249C10.6125 20.5249 11.1625 20.6375 11.5125 20.9875C11.7375 21.225 11.875 21.55 11.875 21.875C11.875 22.2 11.7375 22.525 11.5125 22.7625C11.275 22.9875 10.95 23.125 10.625 23.125Z" fill="#9B0E53"/>
</svg>
