<svg width="24" height="25" viewBox="0 0 24 25" fill="none" xmlns="http://www.w3.org/2000/svg">
<path d="M12.1596 11.7072C12.1296 11.7072 12.1096 11.7072 12.0796 11.7072C12.0296 11.6972 11.9596 11.6972 11.8996 11.7072C8.99963 11.6172 6.80963 9.33716 6.80963 6.52716C6.80963 3.66716 9.13963 1.33716 11.9996 1.33716C14.8596 1.33716 17.1896 3.66716 17.1896 6.52716C17.1796 9.33716 14.9796 11.6172 12.1896 11.7072C12.1796 11.7072 12.1696 11.7072 12.1596 11.7072ZM11.9996 2.83716C9.96963 2.83716 8.30963 4.49716 8.30963 6.52716C8.30963 8.52716 9.86963 10.1372 11.8596 10.2072C11.9096 10.1972 12.0496 10.1972 12.1796 10.2072C14.1396 10.1172 15.6796 8.50716 15.6896 6.52716C15.6896 4.49716 14.0296 2.83716 11.9996 2.83716Z" fill="#B0413E"/>
<path d="M12.1696 22.6372C10.2096 22.6372 8.23961 22.1372 6.74961 21.1372C5.35961 20.2172 4.59961 18.9572 4.59961 17.5872C4.59961 16.2172 5.35961 14.9472 6.74961 14.0172C9.74961 12.0272 14.6096 12.0272 17.5896 14.0172C18.9696 14.9372 19.7396 16.1972 19.7396 17.5672C19.7396 18.9372 18.9796 20.2072 17.5896 21.1372C16.0896 22.1372 14.1296 22.6372 12.1696 22.6372ZM7.57961 15.2772C6.61961 15.9172 6.09961 16.7372 6.09961 17.5972C6.09961 18.4472 6.62961 19.2672 7.57961 19.8972C10.0696 21.5672 14.2696 21.5672 16.7596 19.8972C17.7196 19.2572 18.2396 18.4372 18.2396 17.5772C18.2396 16.7272 17.7096 15.9072 16.7596 15.2772C14.2696 13.6172 10.0696 13.6172 7.57961 15.2772Z" fill="#B0413E"/>
</svg>
